<svg xmlns="http://www.w3.org/2000/svg" width="4000" height="430.667" viewBox="0 0 1058.333 113.947"><path d="M0 56.974C0 7.772-.266 0 .17 0c.42 0 101.675 21.71 183.275 39.355 3.008.65 81.272 17.535 173.92 37.522 92.648 19.988 170.505 36.857 171.281 37.038.879.205-99.8-.025-264.326-.003L0 113.947zm528.663 56.936c.776-.18 79.658-17.045 172.306-37.033a3501295.65 3501295.65 0 0 0 173.92-37.522c81.6-17.645 182.915-39.368 183.333-39.368.437 0 .111 7.785.111 56.987v56.973l-264.318-.035c-164.527-.022-266.23.203-265.352-.001z" fill="#fff"/></svg>