<svg 
 xmlns="http://www.w3.org/2000/svg"
 xmlns:xlink="http://www.w3.org/1999/xlink"
 width="46px" height="46px">
<path fill-rule="evenodd"  
 d="M23.000,46.000 C10.297,46.000 -0.000,35.702 -0.000,22.999 C-0.000,10.297 10.297,-0.001 23.000,-0.001 C35.702,-0.001 46.000,10.297 46.000,22.999 C46.000,35.702 35.702,46.000 23.000,46.000 ZM32.332,40.811 C35.945,38.911 38.908,35.943 40.806,32.328 L33.921,26.589 C32.783,30.050 30.050,32.784 26.592,33.922 L32.332,40.811 ZM31.625,22.999 C31.625,18.236 27.763,14.375 23.000,14.375 C18.236,14.375 14.375,18.236 14.375,22.999 C14.375,27.763 18.236,31.624 23.000,31.624 C27.763,31.624 31.625,27.763 31.625,22.999 ZM13.668,40.811 L19.408,33.922 C15.950,32.784 13.217,30.050 12.079,26.589 L5.194,32.328 C7.092,35.943 10.055,38.911 13.668,40.811 ZM5.194,13.671 L12.079,19.409 C13.217,15.949 15.950,13.215 19.408,12.077 L13.668,5.188 C10.056,7.088 7.092,10.056 5.194,13.671 ZM32.332,5.188 L26.592,12.077 C30.050,13.215 32.783,15.949 33.921,19.409 L40.806,13.671 C38.908,10.056 35.945,7.088 32.332,5.188 Z"/>
</svg>