<?xml version="1.0" encoding="UTF-8" standalone="no"?>
<svg
   xmlns:dc="http://purl.org/dc/elements/1.1/"
   xmlns:cc="http://creativecommons.org/ns#"
   xmlns:rdf="http://www.w3.org/1999/02/22-rdf-syntax-ns#"
   xmlns:svg="http://www.w3.org/2000/svg"
   xmlns="http://www.w3.org/2000/svg"
   id="svg8"
   version="1.1"
   viewBox="0 0 964.62689 299.85685"
>
  <defs
     id="defs2" />
  <metadata
     id="metadata5">
    <rdf:RDF>
      <cc:Work
         rdf:about="">
        <dc:format>image/svg+xml</dc:format>
        <dc:type
           rdf:resource="http://purl.org/dc/dcmitype/StillImage" />
        <dc:title></dc:title>
      </cc:Work>
    </rdf:RDF>
  </metadata>
  <g
     transform="translate(537.62574,360.17645)"
     id="layer1">
    <path
       id="path76"
       d="m -401.07655,-60.834976 c -20.65599,-1.887 -43.33703,-9.12368 -61.59988,-19.65425 -20.10661,-11.5937 -37.77703,-28.234564 -50.34392,-47.410664 -5.86737,-8.95314 -14.60241,-25.73919 -14.60241,-28.06131 0,-0.57925 -0.64205,-2.29477 -1.42678,-3.81227 -1.80746,-3.49525 -3.92825,-11.19224 -6.42324,-23.31198 -2.70756,-13.15236 -2.89251,-38.75652 -0.378,-52.33114 3.65852,-19.75053 7.96705,-31.69974 18.01138,-49.95245 2.66153,-4.83658 9.08742,-14.22675 12.37117,-18.07803 9.87871,-11.58606 13.45166,-15.23235 20.8635,-21.2918 11.2946,-9.23376 12.57455,-10.15423 20.58773,-14.80562 14.93387,-8.66861 30.13859,-14.43063 48.19258,-18.26318 13.8571,-2.94162 40.23098,-3.18717 52.80688,-0.49166 10.75995,2.30629 24.9924,6.32988 26.11799,7.38371 0.49715,0.46545 1.56756,0.84803 2.37869,0.85019 2.21924,0.006 22.94308,10.64074 29.75382,15.26876 24.97141,16.96851 44.28556,41.04809 56.05402,69.88435 5.99698,14.69442 10.29892,37.54712 10.29892,54.70983 0,8.24886 -2.15326,26.42879 -4.11333,34.72884 -9.45003,40.01676 -36.56259,75.580234 -73.39209,96.268224 -24.74733,13.90113 -57.27311,20.91774 -85.15703,18.37045 z m 80.14677,-80.783254 c 2.63739,-2.3565 3.10731,-3.4241 3.10731,-7.05941 0,-5.84085 -2.12363,-7.85277 -15.05791,-14.26569 -27.04518,-13.40923 -53.12849,-18.64066 -86.74994,-17.3991 -19.84682,0.73289 -48.2588,5.05247 -52.38629,7.96449 -2.04284,1.44126 -4.22639,5.48478 -4.22293,7.8201 0.005,3.50721 3.1411,8.08468 6.48852,9.47122 2.47092,1.02348 4.17887,0.91356 11.29237,-0.72681 22.15303,-5.10849 53.44087,-6.42844 73.55718,-3.10317 20.06379,3.31658 36.99564,9.26836 51.46963,18.09228 4.63185,2.82376 8.74555,2.56253 12.50206,-0.79391 z m 16.24249,-38.9579 c 7.78915,-5.13577 8.01552,-14.67959 0.48442,-20.42384 -4.46641,-3.4067 -25.15722,-13.1619 -35.47733,-16.72668 -34.76235,-12.00762 -77.69536,-15.24399 -113.25175,-8.53712 -23.69435,4.46938 -29.02,7.4415 -29.02,16.19538 0,5.3485 1.85203,8.81342 5.8029,10.85649 3.68093,1.90349 6.71316,1.74132 17.60437,-0.94149 34.66167,-8.53816 74.47583,-6.44849 111.70222,5.86275 6.71808,2.22175 20.30573,8.45327 28.52954,13.08411 5.04313,2.8398 9.93173,3.06597 13.62563,0.6304 z m 21.52003,-47.50126 c 1.34878,-1.00439 3.25911,-3.7634 4.24517,-6.13116 3.68472,-8.8478 -0.15607,-15.10915 -13.47401,-21.96564 -29.7806,-15.33196 -66.2024,-23.79647 -107.72898,-25.03645 -32.53878,-0.97161 -68.76777,3.24607 -83.85954,9.7627 -12.10902,5.22868 -10.57684,23.59695 2.25658,27.05263 2.96387,0.79809 5.43008,0.54635 13.36101,-1.36381 22.18795,-5.34396 31.86277,-6.41063 58.25146,-6.42231 29.29361,-0.0129 48.53417,2.61414 77.0695,10.52305 6.36663,1.76459 21.36293,8.01037 28.06852,11.69021 3.92483,2.15384 8.42055,4.19161 9.99049,4.52836 3.69147,0.79183 8.7219,-0.33071 11.8198,-2.63758 z m 208.678105,117.94293 c -0.94542,-0.60022 -1.14465,-14.79258 -0.95148,-67.77803 l 0.24435,-67.01885 h 12.369181 12.369178 l 0.283273,5.94672 c 0.16001,3.35915 0.720191,5.94672 1.287413,5.94672 0.552274,0 3.083988,-1.86996 5.626016,-4.15546 12.812899,-11.5199 30.662536,-13.22925 48.4645995,-4.64116 6.9619735,3.35861 16.9329495,13.4149 20.3850535,20.55949 8.673088,17.95007 8.386418,41.66417 -0.700086,57.91234 -4.030963,7.20804 -12.707123,15.75178 -19.4824365,19.1851 -17.1986475,8.71521 -38.3983145,6.53946 -50.3750955,-5.17007 -1.671409,-1.63411 -3.483094,-2.6966 -4.025958,-2.36109 -0.631827,0.3905 -0.987041,7.91507 -0.987041,20.90879 0,17.6321 -0.197717,20.37464 -1.505035,20.8763 -2.220258,0.85199 -21.607762,0.67432 -23.001932,-0.2108 z m 61.931628,-53.46812 c 6.4512305,-2.41372 11.59812152,-7.35034 14.7906255,-14.18641 3.493513,-7.48061 4.000088,-20.10296 1.115548,-27.79608 -7.215532,-19.24401 -29.9273795,-24.70156 -44.2055305,-10.62239 -11.944183,11.77772 -12.196971,34.01805 -0.522922,46.00607 7.704581,7.91179 18.628478,10.4128 28.822279,6.59881 z m 355.534627,53.65479 c -3.50683,-0.67847 -15.13627,-5.14759 -15.67868,-6.02521 -0.85579,-1.38471 7.68978,-19.54956 9.10879,-19.36203 0.73522,0.0972 3.04943,0.82765 5.14267,1.62331 2.09325,0.79567 5.89005,1.46546 8.43735,1.48843 4.13688,0.0373 5.02591,-0.35269 8.32541,-3.6522 2.23735,-2.23734 3.69396,-4.5938 3.69396,-5.97593 0,-1.7953 -14.29247,-37.43412 -22.45079,-55.9819 -0.80563,-1.83159 -1.81619,-4.18649 -2.24569,-5.23311 -0.4295,-1.04662 -1.92148,-4.68602 -3.31551,-8.08754 -4.80392,-11.72189 -3.7021,-10.94197 -15.45804,-10.94197 h -10.28832 l -0.24818,40.1843 -0.24819,40.18429 -2.1305,0.52953 c -1.17178,0.29125 -7.05439,0.40528 -13.07247,0.25341 l -10.94197,-0.27613 -0.47573,-40.4377 -0.47574,-40.4377 -6.18459,-0.47573 -6.18459,-0.47574 -0.27169,-10.38917 c -0.20061,-7.67122 0.0483,-10.59221 0.95147,-11.16526 0.67274,-0.42686 3.68511,-0.78266 6.69415,-0.79067 l 5.47099,-0.0146 v -6.5601 c 0,-13.0147 6.11858,-24.97462 15.10161,-29.51893 6.39344,-3.23429 16.34059,-4.37438 26.14213,-2.99627 12.63601,1.77663 12.03887,1.10957 12.03887,13.44881 0,11.21579 -0.62751,12.61313 -4.68829,10.43986 -1.0904,-0.58357 -4.65622,-1.28947 -7.92402,-1.56867 -10.01671,-0.85583 -14.77872,3.35124 -14.92677,13.18727 -0.0336,2.23045 0.39216,3.58171 1.13564,3.60454 0.65414,0.0201 9.53854,0.0178 19.74311,-0.005 10.20458,-0.0228 18.99489,0.28187 19.53405,0.6771 0.53915,0.39523 2.2028,3.92983 3.69698,7.85467 1.4942,3.92483 3.23821,8.42055 3.87557,9.99049 0.63737,1.56993 2.11702,5.42341 3.28811,8.56327 3.27344,8.7766 4.85983,12.93643 6.71283,17.6023 0.93522,2.3549 2.34909,5.99429 3.14192,8.08753 5.38773,14.22476 7.07598,18.02155 7.82687,17.6023 0.76548,-0.4274 3.70268,-8.3091 10.46005,-28.06852 1.25274,-3.66318 4.25162,-12.22646 6.66418,-19.02951 2.41256,-6.80305 4.9637,-14.20877 5.6692,-16.45715 2.13879,-6.81614 2.22622,-6.85569 15.11735,-6.83942 6.34653,0.008 12.0883,0.36303 12.75947,0.78893 1.34215,0.85161 0.76356,2.55573 -11.6785,34.40108 -3.78248,9.68126 -8.48155,21.88393 -10.44236,27.11705 -1.96081,5.23311 -4.37576,11.32978 -5.36657,13.54815 -0.9908,2.21813 -1.80145,4.45146 -1.80145,4.96272 0,0.90507 -0.57096,2.33094 -4.68011,11.68786 -1.08913,2.48003 -1.98169,4.83493 -1.98348,5.23311 -0.006,1.17196 -5.21578,13.61779 -8.00706,19.12571 -3.45851,6.82455 -9.43271,13.11783 -15.26262,16.0778 -3.90012,1.98016 -6.39457,2.48405 -13.35886,2.69854 -4.7098,0.14506 -9.63368,0.0566 -10.94196,-0.19647 z M 88.933199,-138.49144 c -14.583271,-2.79446 -23.741163,-7.10907 -32.373384,-15.25227 -10.998845,-10.37574 -16.475698,-23.31192 -16.450884,-38.85649 0.04253,-26.63291 17.299676,-47.82175 43.326682,-53.19777 19.633017,-4.05531 37.870337,1.27287 51.702927,15.10546 29.61175,29.61175 15.28565,79.91752 -25.74862,90.41563 -6.23166,1.59429 -16.690468,2.50712 -20.456721,1.78544 z M 107.9627,-164.2695 c 11.74042,-5.55181 18.82504,-20.40621 16.18773,-33.94101 -3.52327,-18.08162 -18.76886,-28.50105 -36.337384,-24.83442 -7.559404,1.57769 -15.435127,8.27459 -19.019381,16.1726 -3.132038,6.90153 -3.149079,20.81407 -0.03378,27.59278 3.608261,7.85141 9.565657,13.1126 19.221856,16.97553 3.205367,1.2823 15.715169,0.0518 19.980979,-1.96548 z m -254.04388,24.78375 c -9.04462,-1.46298 -16.88094,-3.8394 -24.42629,-7.40747 -9.71834,-4.59563 -21.19523,-12.58974 -21.22498,-14.78404 -0.022,-1.62351 12.75369,-16.97621 14.7708,-17.75025 0.72678,-0.27889 3.15535,0.94647 5.39684,2.72302 12.43947,9.85923 22.3419,13.55107 36.42559,13.58028 8.27006,0.0171 10.13692,-0.29143 14.27075,-2.35895 6.67204,-3.33698 9.32776,-7.5705 8.80839,-14.04158 -0.77181,-9.61631 -3.90215,-11.37515 -35.87921,-20.15933 -20.39816,-5.60343 -31.88828,-13.3618 -36.32819,-24.52955 -3.1237,-7.85707 -3.12195,-22.1648 0.004,-30.02751 4.3199,-10.86702 16.12644,-20.56132 29.18316,-23.96216 12.13904,-3.16182 34.40582,-1.30648 46.10701,3.8418 9.03924,3.97706 19.02951,10.48384 19.02951,12.39413 -1.4e-4,1.8182 -12.35764,19.41471 -13.6345,19.41471 -0.53002,0 -1.63963,-0.60783 -2.4658,-1.35073 -3.19894,-2.87651 -13.88433,-8.25771 -20.21619,-10.18095 -8.56988,-2.60302 -21.47631,-2.2685 -26.53826,0.68784 -7.15061,4.17618 -9.60294,12.538 -5.58415,19.04053 2.68124,4.33836 10.67588,7.98784 26.57384,12.13077 28.56225,7.44317 39.60456,14.75861 44.7199,29.62661 4.96189,14.42199 -0.14616,32.90343 -11.73412,42.45521 -5.20978,4.29433 -13.74149,8.1292 -21.77934,9.78946 -6.68456,1.38073 -19.59082,1.82051 -25.47856,0.86816 z m 332.14228,-0.80356 c -9.122,-2.56565 -13.75421,-6.36394 -17.39536,-14.26374 -2.10577,-4.56862 -2.20504,-5.91594 -2.66304,-36.1442 l -0.47574,-31.39869 -5.97652,-0.28404 -5.97651,-0.28404 0.26766,-11.13366 0.26767,-11.13366 5.92087,-0.2826 5.92087,-0.2826 0.26372,-13.51379 0.26372,-13.51379 12.2947,-0.26752 c 9.19697,-0.20011 12.48959,0.0396 13.06821,0.95148 0.42543,0.67044 0.78008,6.88008 0.78809,13.79918 l 0.0146,12.5802 13.08278,0.26472 13.08279,0.26472 0.26783,11.15279 0.26783,11.15279 -13.11275,0.26491 -13.11274,0.26491 -0.25256,26.80904 -0.25257,26.80902 2.31317,2.68671 c 2.12066,2.46313 2.85427,2.68572 8.81583,2.6749 3.57648,-0.007 7.88653,-0.59046 9.57789,-1.2977 5.37003,-2.24548 5.96381,-1.32752 5.96381,9.21971 0,7.76554 -0.2891,9.64773 -1.66508,10.84039 -5.06677,4.39171 -22.44037,6.62929 -31.55913,4.06456 z m 45.30328,-1.06277 c -0.36375,-0.36374 -0.66136,-23.70269 -0.66136,-51.86431 v -51.20296 l 2.14082,-0.53275 c 1.17745,-0.29302 6.85062,-0.40821 12.60704,-0.256 l 10.46623,0.27676 v 51.8554 51.8554 l -11.94569,0.26491 c -6.57013,0.1457 -12.2433,-0.0327 -12.60704,-0.39645 z m 5.2184,-118.9758 c -1.73759,-0.85625 -4.30657,-3.06103 -5.70885,-4.89951 -2.18359,-2.86283 -2.5496,-4.26532 -2.5496,-9.76945 0,-6.94981 1.35222,-9.76457 6.5544,-13.64357 2.05039,-1.52887 4.04902,-1.96118 9.05762,-1.9592 5.50856,0.002 6.90627,0.36832 9.78344,2.56285 9.55105,7.28494 8.21031,22.70717 -2.41227,27.74791 -4.17931,1.98322 -10.65584,1.96605 -14.72474,-0.039 z"
        />
  </g>
</svg>
