<?xml version="1.0" encoding="UTF-8" standalone="no"?>
<svg
   xmlns:dc="http://purl.org/dc/elements/1.1/"
   xmlns:cc="http://creativecommons.org/ns#"
   xmlns:rdf="http://www.w3.org/1999/02/22-rdf-syntax-ns#"
   xmlns:svg="http://www.w3.org/2000/svg"
   xmlns="http://www.w3.org/2000/svg"
   id="svg8"
   version="1.1"
   viewBox="0 0 1135.327 159.23053"
	>
  <defs
     id="defs2" />
  <metadata
     id="metadata5">
    <rdf:RDF>
      <cc:Work
         rdf:about="">
        <dc:format>image/svg+xml</dc:format>
        <dc:type
           rdf:resource="http://purl.org/dc/dcmitype/StillImage" />
        <dc:title></dc:title>
      </cc:Work>
    </rdf:RDF>
  </metadata>
  <g
     transform="translate(645.29226,135.72583)"
     id="layer1">
    <path
       id="path89"
       d="m -589.34292,22.27624 c -1.47177,-1.08901 -1.63103,-5.62191 -1.8504,-52.66735 l -0.24002,-51.47579 -26.69115,-0.51458 c -14.68013,-0.28301 -26.79838,-0.60474 -26.92946,-0.71494 -0.13107,-0.1102 -0.23831,-11.9969 -0.23831,-26.41489 v -26.21452 h 79.55362 79.55361 l 0.55889,3.09808 c 0.30737,1.70394 0.43405,13.60772 0.2815,26.45284 l -0.27737,23.35475 -26.21452,0.51519 c -14.41798,0.28336 -26.32176,0.60508 -26.45283,0.71495 -0.13107,0.10986 -0.23831,23.37447 -0.23831,51.69913 v 51.49938 l -2.4452,0.92966 c -3.78048,1.43734 -46.38535,1.20665 -48.37005,-0.26191 z m 105.79882,0 c -1.49876,-1.10042 -1.60383,-5.09219 -1.37376,-52.19073 l 0.24911,-50.99916 26.45283,-0.25339 26.45284,-0.25339 0.0146,25.03803 c 0.008,13.77092 0.36845,25.59589 0.80093,26.2777 0.6302,0.99352 10.87092,1.22554 51.57404,1.16851 36.88067,-0.0517 51.14834,0.22813 52.10474,1.02187 1.05819,0.87823 1.31703,5.92105 1.31703,25.65898 0,21.52154 -0.18687,24.63762 -1.50785,25.14454 -0.8293,0.31824 -35.92243,0.57861 -77.98473,0.57861 -59.68047,0 -76.83331,-0.26169 -78.09976,-1.19157 z m 241.2405,-25.57593 c -1.53907,-0.89642 -1.6682,-3.58489 -1.6682,-34.7313 0,-32.40157 -0.0742,-33.79935 -1.84384,-34.74645 -1.01412,-0.54273 -6.75925,-0.98679 -12.76696,-0.98679 -9.08108,0 -11.02069,-0.25428 -11.50173,-1.50785 -1.07136,-2.7919 -0.62906,-17.12551 0.56529,-18.31986 1.64237,-1.64238 74.23674,-1.64238 75.87912,0 1.61056,1.61056 1.51709,16.09319 -0.1183,18.32972 -1.08689,1.48641 -2.58778,1.70534 -10.80603,1.5762 -5.2491,-0.0825 -10.68661,0.28453 -12.08337,0.81558 l -2.53954,0.96553 v 33.83063 c 0,32.47171 -0.0741,33.87024 -1.84385,34.81741 -2.36838,1.26751 -19.08064,1.23387 -21.27259,-0.0428 z m 66.42721,-1.23746 c -7.11695,-3.314 -11.4033,-7.56885 -14.82743,-14.71846 -2.72244,-5.68447 -3.09749,-7.50533 -3.4885,-16.93659 -0.38483,-9.28224 -0.1924,-11.12282 1.58235,-15.13494 1.11126,-2.51218 2.02046,-4.98974 2.02046,-5.50569 0,-1.99214 7.91797,-10.26299 12.1926,-12.73599 4.15373,-2.40306 5.31927,-2.60353 15.58967,-2.68138 9.31189,-0.0706 11.39735,0.18462 12.94401,1.58405 1.01403,0.91751 2.288,1.66819 2.83103,1.66819 1.99826,0 6.8775,5.39272 9.62325,10.63596 2.1106,4.03039 3.13806,7.85591 4.06639,15.14037 1.17446,9.21597 1.14503,9.81835 -0.54018,11.0506 -1.36167,0.99568 -6.1267,1.30329 -20.18864,1.30329 h -18.40628 v 2.4458 c 0,3.88426 1.50474,5.72598 6.39643,7.82888 4.98855,2.14454 8.61372,1.89457 17.79754,-1.22722 5.42669,-1.84465 5.41375,-1.85288 10.00896,6.36143 l 3.02067,5.39969 -2.64478,1.81583 c -5.98742,4.11079 -13.31632,5.97369 -23.46289,5.96394 -8.16433,-0.008 -10.44464,-0.36256 -14.51466,-2.25776 z m 22.27409,-43.57469 c 0.1956,-1.68312 -0.60858,-3.42725 -2.52728,-5.48122 -2.33605,-2.50077 -3.52863,-3.01258 -7.01964,-3.01258 -3.36332,0 -4.71841,0.5354 -6.76695,2.67362 -2.58099,2.69397 -3.05737,4.45751 -1.96973,7.29185 0.4965,1.29386 1.9926,1.49822 9.29424,1.26953 8.57248,-0.26849 8.70677,-0.30944 8.98936,-2.7412 z m 51.7705,43.2875 c -5.00278,-2.41927 -12.49729,-9.05755 -12.49729,-11.06951 0,-0.55086 -0.57534,-1.67879 -1.27854,-2.50651 -1.54884,-1.82308 -4.45651,-14.95908 -4.40096,-19.8822 0.0532,-4.71686 3.06722,-17.04536 4.52308,-18.50121 0.63603,-0.63603 1.15642,-1.68021 1.15642,-2.3204 0,-1.44432 8.34467,-9.89379 9.77107,-9.89379 0.57269,0 1.8661,-0.74648 2.87425,-1.65884 1.53006,-1.38468 3.759582,-1.66039 13.489612,-1.6682 11.170107,-0.009 11.824488,0.10172 15.678623,2.65187 4.102086,2.7142 11.568744,9.8887 11.568744,11.11607 0,0.75509 -13.92622,11.48398 -14.906348,11.48398 -0.34118,0 -2.002427,-1.59887 -3.691681,-3.55305 -2.609578,-3.01883 -3.655778,-3.55304 -6.958378,-3.55304 -5.58807,0 -8.10992,2.73151 -9.64308,10.44478 -1.70722,8.58904 0.0259,17.69616 4.00498,21.04427 4.17107,3.50973 8.68399,2.82126 14.550642,-2.21978 1.983009,-1.70394 3.923045,-3.09808 4.311182,-3.09808 1.254484,0 12.332683,9.79728 12.332683,10.90672 0,1.48797 -9.265584,10.28675 -13.458086,12.78008 -2.920422,1.7368 -4.892402,2.04576 -12.868951,2.01629 -8.15846,-0.0301 -10.10813,-0.36757 -14.557972,-2.51945 z m 58.15032,1.25296 c -0.777065,-0.93631 -1.010336,-13.13981 -0.831667,-43.50776 0.214129,-36.39541 0.445189,-42.30472 1.678206,-42.92015 0.786435,-0.39253 2.931259,-1.36018 4.766276,-2.15032 1.835016,-0.79015 5.556267,-2.39699 8.269441,-3.57076 7.817342,-3.38192 7.935898,-3.18964 7.935898,12.87029 0,13.58082 0.04054,13.85212 2.069765,13.85212 1.138368,0 2.899269,-0.75068 3.913103,-1.66819 1.505124,-1.36212 3.649938,-1.6682 11.6898359,-1.6682 9.636295,0 9.910766,0.0611 12.855972,2.85977 8.1968231,7.78909 9.3870761,13.20893 9.4578941,43.06671 0.04271,17.99431 -0.172864,21.36486 -1.447824,22.63982 -1.88918,1.88919 -19.3624151,2.18115 -21.1895011,0.35406 -0.824765,-0.82476 -1.143906,-7.38996 -1.143906,-23.53163 0,-21.67403 -0.06606,-22.45806 -2.072672,-24.59399 -3.0678619,-3.26558 -9.4746229,-3.10462 -12.1569689,0.30543 -1.86962,2.37684 -1.975698,3.69734 -1.975698,24.59399 0,15.90412 -0.320046,22.40234 -1.143906,23.2262 -1.686871,1.68687 -19.254641,1.55313 -20.674248,-0.15739 z M 64.882902,-2.90741 C 52.244901,-7.21011 44.903777,-13.14816 40.061012,-22.98523 27.878048,-47.73235 35.447342,-80.99122 55.64582,-91.4636 c 4.508316,-2.33744 15.778967,-5.14537 20.676145,-5.15117 6.184929,-0.007 18.07778,3.13824 22.557832,5.96638 5.701333,3.59909 13.665863,14.48429 13.665863,18.67726 0,2.03031 -0.8447,2.54903 -11.44288,7.02693 -1.837115,0.77621 -4.721951,1.71477 -6.410738,2.08569 -2.886848,0.63406 -3.242041,0.40395 -5.937703,-3.84667 -3.715589,-5.85888 -7.040486,-7.99905 -12.432374,-8.00246 -5.639068,-0.004 -9.51507,2.46436 -12.915818,8.22378 -2.634712,4.46208 -2.737206,5.09846 -2.742534,17.02764 -0.0048,11.62079 0.153369,12.68906 2.546821,17.1586 3.635725,6.78936 6.389051,8.46014 13.941701,8.46014 h 6.193795 l 5.007784,-5.51046 c 4.560211,-5.01795 5.267717,-5.45336 7.916146,-4.87167 1.599601,0.35133 3.132397,1.00127 3.40621,1.44431 0.273813,0.44303 3.28149,2.16162 6.68372,3.81908 7.37772,3.59419 7.6495,4.75682 2.6709,11.42546 -5.28186,7.07485 -11.35536,11.08688 -21.739999,14.36102 -2.943766,0.92812 -19.870148,1.12629 -22.407789,0.26233 z M 201.58438,-5.36816 c -3.08731,-2.08121 -5.39107,-4.65339 -7.01883,-7.83665 -2.37514,-4.64481 -2.4325,-5.2465 -2.8997,-30.41334 -0.30809,-16.59554 -0.13513,-26.14049 0.48909,-26.99172 0.7426,-1.01266 3.38559,-1.25389 11.43907,-1.04408 l 10.47334,0.27286 0.47662,23.0186 c 0.54846,26.48749 0.71155,27.0273 8.16567,27.0273 3.36021,0 4.48112,-0.50383 6.52505,-2.93291 l 2.46788,-2.9329 v -22.32836 -22.32836 h 10.29515 c 6.73634,0 10.69058,0.39542 11.43907,1.14391 1.49493,1.49493 1.64182,62.87242 0.15711,65.64663 -0.87993,1.64416 -2.0764,1.84384 -11.04795,1.84384 -8.8382,0 -10.25354,-0.22821 -11.64384,-1.87754 -1.56871,-1.86095 -1.62478,-1.85681 -6.34896,0.46792 -3.70508,1.82324 -6.281,2.34739 -11.56965,2.35417 -6.10479,0.008 -7.27525,-0.3094 -11.39912,-3.08937 z m 169.95883,1.72164 c -14.8807,-5.30783 -22.75859,-22.02099 -19.61781,-41.61986 1.87525,-11.70214 5.94927,-18.2513 14.63609,-23.5283 5.63098,-3.42058 5.8385,-3.46543 16.21087,-3.50231 9.69251,-0.0345 10.83947,0.15876 14.79662,2.49267 5.28723,3.11837 11.4526,9.18254 11.39989,11.21274 -0.0315,1.20558 -10.57447,10.06412 -13.51259,11.35345 -0.39055,0.17137 -2.21393,-1.33001 -4.052,-3.3364 -2.94737,-3.21725 -3.86068,-3.64797 -7.7349,-3.64797 -5.96443,0 -8.53135,3.14108 -9.43084,11.54018 -1.52121,14.20524 2.09153,22.30039 9.95246,22.30039 3.21113,0 4.60822,-0.66387 8.02469,-3.81302 2.27513,-2.09717 4.35876,-3.81303 4.63025,-3.81303 0.93276,0 11.66193,8.67269 12.43245,10.04947 1.15792,2.06902 -7.14008,10.42592 -13.19811,13.29181 -4.18193,1.97838 -6.44877,2.38932 -12.98944,2.35478 -4.3578,-0.023 -9.55428,-0.62358 -11.54763,-1.3346 z M 130.13818,-4.42077 c -0.25273,-0.65858 -0.3465,-15.99408 -0.20839,-34.07888 l 0.25109,-32.88144 9.53256,-0.298 c 7.65057,-0.23917 10.15388,0.0309 12.6797,1.36811 2.99799,1.58713 3.28184,1.58654 5.98858,-0.0124 3.80407,-2.24711 12.09547,-3.02171 16.56288,-1.54734 3.34983,1.10555 3.53232,1.36439 2.94045,4.17054 -0.34707,1.64552 -0.99927,5.13667 -1.44931,7.75812 -0.96823,5.63977 -2.38631,9.59047 -3.7435,10.42926 -0.53865,0.33291 -2.69285,-0.26887 -4.78711,-1.33728 -4.59262,-2.34298 -5.97032,-2.39889 -10.15704,-0.41216 -4.54232,2.15547 -5.15415,5.32719 -5.16039,26.75098 -0.003,10.04971 -0.26569,18.95073 -0.58393,19.78004 -0.47877,1.24763 -2.37575,1.50785 -10.99235,1.50785 -7.47881,0 -10.54324,-0.33747 -10.87324,-1.19743 z m 142.98829,0 c -0.25273,-0.65858 -0.3465,-15.99408 -0.2084,-34.07888 l 0.2511,-32.88144 9.53255,-0.298 c 7.66436,-0.2396 10.15185,0.0299 12.69253,1.37501 3.04043,1.60972 3.29015,1.60296 6.60094,-0.17863 5.14515,-2.76868 18.51311,-2.63081 23.14041,0.23866 4.22034,2.61706 6.81949,6.13898 9.00978,12.20853 1.41358,3.91702 1.80137,8.79623 2.17667,27.38349 0.25118,12.43947 0.18493,23.6998 -0.14719,25.02295 -0.59883,2.38605 -0.68796,2.40574 -10.88083,2.40574 -6.72217,0 -10.67265,-0.39567 -11.42086,-1.1439 -0.81885,-0.81884 -1.14429,-6.98169 -1.14543,-21.68656 0,-17.64787 -0.23631,-21.01281 -1.6682,-23.87905 -1.60185,-3.20658 -1.87067,-3.33639 -6.90957,-3.33639 -5.03892,0 -5.30776,0.12981 -6.90963,3.33639 -1.42905,2.86065 -1.66692,6.21373 -1.66819,23.5151 -8.1e-4,11.0983 -0.26185,20.85725 -0.5801,21.68656 -0.47876,1.24763 -2.37575,1.50785 -10.99235,1.50785 -7.47881,0 -10.54324,-0.33747 -10.87323,-1.19743 z m 153.02892,-1.2154 c -1.0155,-2.67079 -1.35429,-76.31412 -0.37368,-81.21706 0.47835,-2.392 1.42083,-3.17619 5.95785,-4.95713 2.96424,-1.16359 7.38287,-2.99392 9.81929,-4.06739 2.43633,-1.07347 4.90288,-1.65934 5.48122,-1.30193 0.68529,0.42352 1.05144,5.28853 1.05144,13.96907 0,14.88923 0.45794,15.86736 6.08234,12.99188 4.17631,-2.13516 10.17886,-2.88359 16.88472,-2.1053 5.19267,0.60267 6.169,1.09549 10.24445,5.1709 3.93151,3.93153 4.66551,5.31373 5.76843,10.86251 0.69502,3.49677 1.64608,6.35777 2.11346,6.35777 0.4731,0 0.84983,9.77858 0.84983,22.0581 0,19.88979 -0.16396,22.18258 -1.6682,23.32443 -1.13818,0.864 -4.89172,1.27598 -11.81369,1.29667 -8.39065,0.0251 -10.24559,-0.2305 -10.72412,-1.47754 -0.31829,-0.82931 -0.57863,-11.14397 -0.57863,-22.92145 v -21.41361 l -2.33976,-2.33981 c -2.33776,-2.33775 -8.29828,-3.24931 -10.52918,-1.61027 -3.58062,2.63064 -3.80711,4.04681 -4.28965,26.82069 l -0.47663,22.49568 -10.25874,0.27067 -10.25884,0.27068 z m -856.96522,-103.39851 v -26.69115 h 52.42904 52.42904 v 26.69115 26.69115 h -52.42904 -52.42904 z"
        />
  </g>
</svg>
