<svg 
 xmlns="http://www.w3.org/2000/svg"
 xmlns:xlink="http://www.w3.org/1999/xlink"
 width="35px" height="46px">
<path fill-rule="evenodd" 
 d="M27.367,31.467 C27.382,31.455 27.400,31.444 27.420,31.438 C27.656,31.309 27.887,31.175 28.114,31.032 C34.078,27.333 36.660,19.753 33.887,13.054 C31.116,6.354 23.933,2.822 17.103,4.427 C16.848,4.488 16.593,4.554 16.341,4.629 C16.311,4.642 16.280,4.649 16.251,4.655 C16.247,4.656 16.246,4.656 16.242,4.656 C15.971,4.708 15.689,4.565 15.579,4.299 L15.224,3.441 C15.026,2.983 15.258,2.772 15.506,2.668 C16.119,2.407 16.454,1.762 16.334,1.130 C16.315,1.041 16.288,0.952 16.253,0.862 C15.987,0.224 15.300,-0.109 14.652,0.050 C14.650,0.050 14.650,0.050 14.650,0.050 C14.590,0.070 14.528,0.089 14.467,0.110 C13.967,0.270 13.471,0.451 12.980,0.656 C11.985,1.067 11.044,1.555 10.159,2.103 C2.201,7.036 -1.242,17.149 2.455,26.084 C5.205,32.731 11.212,37.043 17.857,37.932 L17.857,37.935 C18.531,38.005 19.061,38.557 19.096,39.239 C19.097,39.263 19.097,39.286 19.097,39.310 C19.097,39.350 19.096,39.389 19.092,39.427 C19.092,40.837 17.746,41.136 15.405,42.058 C14.592,42.377 13.786,42.692 13.033,43.105 C12.890,43.182 12.747,43.262 12.608,43.345 C12.597,43.351 12.588,43.358 12.577,43.363 C12.493,43.413 12.408,43.464 12.324,43.517 C12.324,43.517 12.324,43.517 12.322,43.519 C12.075,43.699 11.941,43.887 11.941,44.086 C11.941,44.546 12.674,44.969 13.896,45.299 C14.711,45.519 15.746,45.699 16.923,45.818 C17.828,45.910 18.815,45.966 19.856,45.981 C20.042,45.985 20.231,45.986 20.420,45.986 C20.610,45.986 20.799,45.985 20.986,45.981 C22.026,45.966 23.013,45.910 23.918,45.818 C25.096,45.697 26.131,45.519 26.947,45.299 C28.167,44.969 28.900,44.546 28.900,44.086 C28.900,43.887 28.766,43.699 28.519,43.519 C28.515,43.515 28.512,43.512 28.508,43.512 C28.427,43.460 28.347,43.411 28.265,43.363 C28.255,43.358 28.244,43.351 28.235,43.345 C28.094,43.262 27.951,43.182 27.808,43.105 C27.056,42.692 26.250,42.377 25.438,42.060 C23.649,41.356 21.751,40.920 21.751,39.457 C21.751,39.455 21.751,39.453 21.750,39.452 C21.746,39.406 21.744,39.358 21.744,39.310 C21.744,39.281 21.744,39.252 21.746,39.223 C21.786,38.572 22.277,38.042 22.911,37.943 C22.935,37.943 22.958,37.937 22.982,37.935 C23.605,37.853 24.226,37.737 24.847,37.593 C25.860,37.354 26.869,37.030 27.862,36.619 C28.354,36.414 28.834,36.192 29.301,35.952 C29.360,35.922 29.416,35.895 29.471,35.864 C29.473,35.864 29.475,35.864 29.475,35.864 C30.047,35.516 30.294,34.793 30.030,34.155 C29.994,34.067 29.949,33.987 29.898,33.910 C29.539,33.378 28.843,33.154 28.228,33.409 C28.206,33.418 28.186,33.428 28.165,33.437 C28.197,33.418 28.230,33.404 28.263,33.386 C27.959,33.510 27.609,33.367 27.482,33.061 L27.129,32.203 C27.014,31.926 27.122,31.615 27.367,31.467 ZM10.954,16.810 C11.500,18.443 12.663,20.014 15.619,21.321 C17.152,22.000 17.224,24.047 19.337,26.511 C20.649,28.038 21.705,28.777 22.739,29.272 C22.806,29.301 22.870,29.334 22.925,29.371 C23.094,29.479 23.211,29.609 23.266,29.741 C23.339,29.917 23.299,30.097 23.125,30.219 C23.041,30.280 22.922,30.326 22.770,30.354 C22.762,30.354 22.755,30.357 22.750,30.359 C22.704,30.367 22.667,30.372 22.643,30.379 C17.202,31.417 11.595,28.535 9.392,23.210 C7.536,18.729 8.608,13.767 11.723,10.449 C12.075,10.090 12.667,9.934 12.681,10.594 C12.482,12.708 9.961,13.841 10.954,16.810 ZM25.294,34.614 C25.281,34.619 25.268,34.625 25.255,34.628 C25.244,34.632 25.235,34.636 25.224,34.640 C24.891,34.739 24.555,34.830 24.220,34.907 C16.398,36.747 8.174,32.700 5.000,25.030 C1.824,17.360 4.782,8.678 11.612,4.444 C11.908,4.259 12.214,4.084 12.526,3.916 C12.542,3.908 12.560,3.899 12.579,3.892 C12.885,3.766 13.234,3.910 13.359,4.217 L13.714,5.071 C13.824,5.339 13.727,5.639 13.498,5.795 C13.495,5.797 13.493,5.799 13.489,5.799 C13.465,5.817 13.436,5.832 13.407,5.844 C13.176,5.971 12.949,6.105 12.727,6.240 C6.762,9.939 4.179,17.521 6.952,24.222 C9.723,30.920 16.909,34.452 23.739,32.846 C23.999,32.788 24.257,32.718 24.515,32.641 C24.533,32.634 24.554,32.627 24.572,32.624 C24.852,32.557 25.149,32.700 25.262,32.977 L25.618,33.833 C25.742,34.137 25.600,34.489 25.294,34.614 ZM27.191,28.480 C27.160,28.489 27.109,28.522 27.037,28.584 C26.962,28.634 26.885,28.683 26.810,28.733 C26.777,28.748 26.743,28.759 26.710,28.768 C26.109,28.937 25.543,28.231 25.384,27.738 C25.262,27.316 25.169,26.816 25.131,26.225 C25.114,25.987 25.109,25.734 25.114,25.466 C25.175,22.836 27.849,20.029 24.770,19.079 C23.493,18.685 22.207,19.105 21.033,19.622 C20.916,19.674 20.801,19.727 20.687,19.780 C19.178,20.473 17.876,21.215 17.041,20.407 C15.028,18.458 16.971,16.458 18.156,16.894 C18.845,17.146 19.330,17.375 19.687,17.453 C19.868,17.496 20.017,17.496 20.143,17.444 C20.193,17.422 20.238,17.393 20.282,17.357 C20.691,16.990 20.229,16.634 19.828,16.099 C19.740,15.982 19.660,15.859 19.588,15.725 C19.185,14.966 19.083,14.500 19.313,13.892 C19.482,13.441 19.835,12.915 20.383,12.136 C21.337,10.777 20.607,9.545 19.727,9.071 C19.303,8.840 18.742,8.873 18.189,9.078 C17.696,9.257 17.209,9.576 16.830,9.963 C16.334,10.471 15.868,10.660 15.458,10.640 C14.971,10.618 14.560,10.305 14.267,9.881 C14.260,9.864 14.246,9.841 14.222,9.811 C14.170,9.734 14.125,9.653 14.083,9.571 C13.962,9.269 13.991,8.895 14.187,8.591 C14.282,8.438 14.421,8.304 14.601,8.205 C15.002,7.982 15.420,7.778 15.852,7.599 C16.464,7.346 17.083,7.146 17.705,7.001 C21.803,6.037 26.056,7.335 28.929,10.251 C29.715,11.296 29.673,12.962 27.915,14.077 C26.151,15.189 27.325,16.544 29.312,16.719 C31.301,16.891 32.343,17.976 32.356,19.013 C32.298,20.887 31.796,22.709 30.915,24.335 C30.034,25.963 28.770,27.393 27.191,28.480 Z"/>
</svg>