<svg 
 xmlns="http://www.w3.org/2000/svg"
 xmlns:xlink="http://www.w3.org/1999/xlink"
 width="35px" height="46px">
<path fill-rule="evenodd"  
 d="M32.149,45.987 L2.871,45.987 C1.288,45.987 0.006,44.689 0.006,43.089 L0.006,2.929 C0.006,1.331 1.288,0.031 2.871,0.031 L18.841,0.031 C19.275,0.031 19.686,0.124 20.056,0.298 C20.378,0.444 20.667,0.650 20.913,0.899 L23.963,3.982 L31.108,11.212 L34.007,14.144 L34.295,14.436 C34.482,14.651 34.638,14.898 34.756,15.163 C34.923,15.534 35.014,15.945 35.014,16.379 L35.014,43.089 C35.014,44.689 33.732,45.987 32.149,45.987 ZM31.108,41.302 L31.108,19.175 L31.108,17.141 C31.108,16.135 30.365,15.305 29.405,15.182 C29.406,15.177 29.409,15.168 29.413,15.163 L29.153,15.163 L21.358,15.163 C20.640,15.163 20.056,14.574 20.056,13.847 L20.056,5.959 L20.056,5.692 C20.051,5.696 20.046,5.699 20.039,5.701 C19.913,4.732 19.094,3.982 18.103,3.982 L16.078,3.982 L4.584,3.982 C4.576,3.982 4.571,3.982 4.563,3.982 C4.555,3.982 4.548,3.982 4.540,3.982 C4.198,3.994 3.923,4.270 3.912,4.618 C3.911,4.627 3.911,4.631 3.911,4.641 C3.911,4.649 3.911,4.654 3.912,4.663 L3.912,41.356 C3.911,41.365 3.911,41.370 3.911,41.379 C3.911,41.388 3.911,41.393 3.912,41.402 C3.923,41.740 4.185,42.015 4.518,42.033 C4.532,42.038 4.548,42.038 4.563,42.038 C4.576,42.038 4.592,42.038 4.607,42.033 L30.417,42.033 C30.431,42.038 30.446,42.038 30.462,42.038 C30.477,42.038 30.491,42.038 30.506,42.033 C30.820,42.015 31.073,41.768 31.108,41.457 C31.111,41.430 31.112,41.406 31.112,41.379 C31.112,41.352 31.111,41.329 31.108,41.302 ZM25.291,25.101 L24.799,25.101 L10.768,25.101 L10.277,25.101 C9.437,24.982 8.791,24.251 8.791,23.369 L8.791,23.174 C8.791,22.290 9.440,21.559 10.284,21.440 L10.762,21.440 L24.806,21.440 L25.284,21.440 C26.128,21.559 26.776,22.290 26.776,23.174 L26.776,23.369 C26.776,24.251 26.130,24.982 25.291,25.101 ZM14.926,15.616 L14.434,15.616 L10.768,15.616 L10.277,15.616 C9.437,15.497 8.791,14.766 8.791,13.883 L8.791,13.691 C8.791,12.805 9.440,12.073 10.284,11.957 L10.762,11.957 L14.440,11.957 L14.919,11.957 C15.762,12.073 16.411,12.805 16.411,13.691 L16.411,13.883 C16.411,14.766 15.765,15.497 14.926,15.616 ZM10.284,30.847 L10.762,30.847 L20.363,30.847 L20.841,30.847 C21.685,30.966 22.333,31.697 22.333,32.582 L22.333,32.776 C22.333,33.658 21.687,34.390 20.848,34.508 L20.356,34.508 L10.768,34.508 L10.277,34.508 C9.437,34.390 8.791,33.658 8.791,32.776 L8.791,32.582 C8.791,31.697 9.440,30.966 10.284,30.847 Z"/>
</svg>