<?xml version="1.0" encoding="UTF-8" standalone="no"?>
<svg
   xmlns:dc="http://purl.org/dc/elements/1.1/"
   xmlns:cc="http://creativecommons.org/ns#"
   xmlns:rdf="http://www.w3.org/1999/02/22-rdf-syntax-ns#"
   xmlns:svg="http://www.w3.org/2000/svg"
   xmlns="http://www.w3.org/2000/svg"
   id="svg8"
   version="1.1"
   viewBox="0 0 970.37201 206.13805"
>
  <defs
     id="defs2" />
  <metadata
     id="metadata5">
    <rdf:RDF>
      <cc:Work
         rdf:about="">
        <dc:format>image/svg+xml</dc:format>
        <dc:type
           rdf:resource="http://purl.org/dc/dcmitype/StillImage" />
        <dc:title></dc:title>
      </cc:Work>
    </rdf:RDF>
  </metadata>
  <g
     transform="translate(496.78923,314.71472)"
     id="layer1">
    <path
       id="path63"
       d="m -495.94547,-108.79955 c -0.004,-0.11521 -0.0195,-21.89032 -0.0341,-48.38913 l -0.0264,-48.17966 48.63269,-0.21623 48.63269,-0.21623 v 48.60536 48.60537 h -48.59861 c -26.72923,0 -48.60204,-0.0943 -48.60625,-0.20948 z m 108.30037,-48.59191 0.21623,-48.81479 48.79043,-0.21622 48.79043,-0.21622 0.45883,1.89204 c 0.25235,1.04062 0.35456,23.00729 0.22713,48.81483 l -0.2317,46.9228 -49.23379,0.21618 -49.23379,0.21617 z m 382.3018251,8.1058 c -15.6634061,-4.84212 -24.2789341,-13.20658 -29.7166821,-28.8507 -1.446135,-4.16044 -2.047292,-18.07862 -0.995249,-23.04244 0.488357,-2.30425 1.218266,-5.71706 1.622012,-7.58403 2.151611,-9.94934 11.719973,-20.83049 23.206253,-26.39017 7.0984391,-3.43584 7.4888111,-3.5216 17.8820091,-3.92834 10.6590479,-0.41715 18.3023269,0.42502 22.6239909,2.49282 2.204634,1.05486 2.249906,1.23849 2.483397,10.07249 0.130806,4.94892 -0.01148,8.99804 -0.316125,8.99804 -0.30468,0 -3.042809,-1.22544 -6.084738,-2.7232 -5.124732,-2.52326 -6.147305,-2.7232 -13.928293,-2.7232 -7.2107769,0 -8.9530619,0.28397 -12.32872086,2.00942 -11.23355214,5.74198 -17.28678514,19.35619 -14.87507014,33.45523 1.100465,6.43338 1.382379,7.17886 4.866857,12.86938 3.4673511,5.66258 13.7424711,10.70957 21.843758,10.72935 3.861595,0.009 11.838955,-2.45941 16.61526,-5.1421 1.519854,-0.85365 3.142143,-1.55209 3.605095,-1.55209 0.524404,0 0.751711,3.23049 0.602941,8.56895 l -0.238787,8.56895 -6.284302,2.46015 c -5.470527,2.14159 -7.586343,2.49554 -16.3391859,2.73339 -7.354025,0.19983 -11.180244,-0.0747 -14.24442,-1.0219 z m 137.8357049,-0.27075 c -13.71139,-3.73571 -23.89293,-13.48473 -28.97285,-27.74204 -2.0192,-5.66711 -2.47561,-20.04594 -0.8749,-27.56311 1.99908,-9.38797 6.32465,-17.50839 12.24703,-22.99147 9.83011,-9.10094 19.44559,-11.99258 37.35023,-11.23221 9.31008,0.39538 10.6141,0.66075 16.41346,3.34022 11.65369,5.38433 19.47954,15.85416 22.10423,29.57217 6.30732,32.96539 -13.27514,58.35069 -44.85802,58.15073 -4.85778,-0.0308 -10.08655,-0.62904 -13.40918,-1.53429 z m 27.18701,-18.03546 c 2.03114,-1.19033 4.4593,-3.13844 5.3959,-4.32914 6.59906,-8.38934 7.91082,-29.10924 2.4932,-39.38141 -3.89223,-7.37994 -9.38572,-11.01968 -17.82101,-11.80738 -7.87348,-0.73524 -13.05023,0.79809 -18.1379,5.37235 -5.4741,4.92168 -7.37303,8.79297 -8.52076,17.37101 -1.05227,7.86456 0.0165,18.68821 2.27694,23.05945 2.08757,4.03693 6.29564,8.35707 9.96229,10.22767 6.92465,3.53269 17.84072,3.30293 24.35134,-0.51255 z m 53.67102,18.05491 c -3.22594,-0.85369 -6.90226,-1.97259 -8.1696,-2.48644 l -2.30424,-0.93427 v -9.23772 c 0,-5.08074 0.28953,-9.23771 0.6434,-9.23771 0.35387,0 1.95637,0.87279 3.56111,1.93953 5.46513,3.63291 12.56268,5.60189 20.18082,5.5985 8.1011,-0.003 11.50433,-1.47763 13.27365,-5.74915 1.29257,-3.12054 0.59761,-7.74325 -1.43589,-9.55119 -2.23151,-1.98399 -11.69793,-6.9431 -18.1166,-9.49062 -8.0313,-3.18757 -14.67647,-9.74226 -16.79627,-16.56757 -3.88054,-12.49451 2.16445,-24.84456 15.32384,-31.30693 4.58145,-2.24988 5.14729,-2.3217 17.72013,-2.2491 10.21242,0.059 13.65896,0.3747 16.12971,1.47759 l 3.14215,1.40258 v 8.78678 c 0,4.83273 -0.14104,8.78678 -0.31342,8.78678 -0.17237,0 -1.9634,-0.91479 -3.98006,-2.03286 -7.9455,-4.40516 -21.09132,-4.79322 -25.87982,-0.76395 -2.18879,1.84174 -2.50507,2.65679 -2.50507,6.45544 0,2.39116 0.52817,5.09132 1.17372,6.00034 1.26066,1.77519 2.0588,2.21563 15.80691,8.72284 14.86648,7.03656 20.17864,13.54227 20.22596,24.7704 0.0481,11.41852 -6.59787,20.1635 -18.85475,24.80959 -6.62176,2.51005 -20.96774,2.93663 -28.82568,0.85714 z m 89.22514,-0.009 c -8.69069,-2.34676 -16.03568,-6.93913 -21.36244,-13.3566 -7.52559,-9.06652 -10.24039,-19.07508 -9.34988,-34.46982 1.06751,-18.45471 8.45003,-30.22469 23.71333,-37.80623 l 7.4299,-3.69059 13.82546,-0.007 c 17.60087,-0.01 22.90178,1.65683 31.70624,9.96688 9.06883,8.55957 13.17298,19.51836 13.05291,34.85368 -0.17948,22.91876 -12.01106,39.16681 -32.42317,44.52582 -7.5914,1.99306 -19.17874,1.98622 -26.59235,-0.0157 z m 24.12869,-16.48115 c 9.87574,-4.11412 15.2442,-16.07232 14.12443,-31.46219 -1.26985,-17.45296 -11.12611,-27.02476 -26.3628,-25.60194 -7.42286,0.69316 -12.12206,3.16133 -15.9816,8.39406 -4.97704,6.74782 -5.5327,8.86292 -5.5327,21.06005 0,9.59576 0.2296,11.39166 1.92821,15.08233 4.26867,9.27478 11.54181,13.80391 22.18853,13.81728 4.00568,0.005 7.72224,-0.49236 9.63593,-1.28959 z m 120.48247,16.41269 c -4.79685,-1.92806 -9.90423,-6.5668 -12.49035,-11.34433 -1.74301,-3.21994 -1.82487,-4.4793 -2.08261,-32.04995 l -0.26822,-28.69831 h -16.2714 -16.2714 l -0.21852,35.82052 -0.21845,35.82053 h -9.63593 -9.63593 l -0.41895,-35.61105 -0.41896,-35.61105 -7.1222,-0.41895 -7.12221,-0.41896 v -7.54116 -7.54117 l 7.12221,-0.41895 7.1222,-0.41895 0.51063,-10.52552 c 0.62625,-12.90858 2.7769,-18.64727 9.2613,-24.7127 6.31212,-5.90425 10.33005,-7.36515 21.33261,-7.75654 12.90963,-0.45922 12.88558,-0.47714 12.88558,9.5976 0,7.3089 -0.13004,7.96694 -1.46633,7.41881 -0.80649,-0.33082 -3.91722,-0.7719 -6.91274,-0.9802 -7.09556,-0.49338 -10.57254,1.19784 -13.21899,6.42982 -1.66911,3.29965 -1.87842,4.81712 -1.67581,12.14966 l 0.23143,8.37907 h 15.92023 15.92024 l 0.23528,-9.75444 c 0.27039,-11.21104 -1.09473,-9.61335 11.76338,-13.7676 4.13875,-1.33718 7.27806,-1.94544 7.72651,-1.49707 0.41535,0.41539 0.86036,6.21461 0.98881,12.88717 l 0.23369,12.1319 10.29545,0.23551 10.29545,0.23552 -0.24057,7.7246 -0.24056,7.7246 -10.26436,0.23527 -10.26436,0.23526 v 24.90195 c 0,23.27887 0.11052,25.078 1.65017,27.60316 2.87008,4.70725 9.55038,6.44389 15.39462,4.00204 1.65444,-0.69127 3.20868,-1.25686 3.45393,-1.25686 0.24517,0 0.44585,3.38846 0.44585,7.52992 v 7.52992 l -3.14215,1.39033 c -5.01948,2.22099 -18.03771,2.41215 -23.19167,0.34056 z m -672.89957,-0.50353 c -0.633,-0.27725 -0.92726,-84.34763 -0.42729,-122.07301 0.004,-0.34563 6.37215,-0.62843 14.15016,-0.62843 10.36382,0 14.3763,0.28253 15.01952,1.05756 0.48273,0.58166 1.69502,3.31533 2.69398,6.07483 0.99896,2.7595 3.45086,8.97638 5.44868,13.81529 1.99782,4.83891 6.1618,15.20801 9.2533,23.04244 3.09149,7.83443 6.4577,16.12971 7.48046,18.43396 1.02274,2.30424 2.33798,5.69777 2.92272,7.54116 0.58475,1.8434 1.94496,5.31164 3.02268,7.7072 1.64647,3.65978 2.89159,7.21232 5.00773,14.28786 0.45866,1.53359 2.02144,1.27763 2.55795,-0.41895 0.25503,-0.80649 0.9719,-2.78604 1.59304,-4.39901 0.62115,-1.61297 2.32332,-6.13767 3.78261,-10.05489 1.45928,-3.91721 3.3958,-8.76068 4.30337,-10.76327 0.90757,-2.00259 2.76845,-6.52729 4.13527,-10.05489 1.36682,-3.5276 2.84924,-7.06855 3.29426,-7.86878 0.44501,-0.80024 0.80912,-1.81717 0.80912,-2.25986 0,-0.4427 1.28261,-3.55854 2.85023,-6.92411 1.56763,-3.36556 5.00732,-11.58655 7.64375,-18.26886 5.30884,-13.45584 6.92568,-17.40429 7.89155,-19.27186 0.53768,-1.03965 3.02354,-1.25686 14.38416,-1.25686 h 13.734137 v 61.16721 61.16722 h -9.635917 -9.63593 l -0.17106,-46.50385 c -0.14637,-39.79742 -0.34581,-46.54059 -1.38292,-46.75869 -0.8341,-0.17541 -1.79503,1.52236 -3.08263,5.4464 -1.02892,3.13568 -2.1307,6.0783 -2.44841,6.53915 -0.31771,0.46085 -2.00488,4.41996 -3.74926,8.79803 -1.7444,4.37806 -4.82779,11.93428 -6.85199,16.79159 -2.0242,4.85732 -3.68036,9.08892 -3.68036,9.40355 0,0.31464 -0.89941,2.56194 -1.9987,4.99399 -1.09927,2.43205 -3.14362,7.24985 -4.543,10.70622 -4.4309,10.944 -8.68136,21.28014 -9.82017,23.88035 -0.60552,1.38255 -1.34457,3.36122 -1.64236,4.39707 -0.66013,2.29624 -2.79217,2.89801 -9.07958,2.56269 l -4.80946,-0.2565 -2.96128,-6.70326 c -1.6287,-3.68679 -4.39518,-10.28531 -6.14774,-14.66337 -1.75256,-4.37807 -4.55574,-11.03767 -6.2293,-14.79912 -1.67356,-3.76145 -3.04283,-7.25435 -3.04283,-7.76201 0,-0.50765 -0.3428,-1.57774 -0.76178,-2.37798 -1.93411,-3.6941 -6.22224,-13.53509 -7.36682,-16.90639 -0.69756,-2.05459 -2.20947,-5.82852 -3.3598,-8.38652 -3.03409,-6.74684 -6.13625,-14.56668 -8.07755,-20.36165 -0.27018,-0.80649 -1.06549,-1.46634 -1.76735,-1.46634 -1.12504,0 -1.30176,5.53036 -1.49263,46.71332 l -0.21652,46.71332 -8.37907,0.15753 c -4.60849,0.0866 -8.75612,-0.008 -9.21697,-0.20948 z m 154.803312,-0.0702 c -0.818853,-0.34122 -1.047384,-9.92808 -1.047384,-43.93779 v -43.50134 h 10.062358 10.062358 l -0.21695,43.78064 -0.216951,43.78065 -8.798024,0.15712 c -4.838913,0.0864 -9.269346,-0.0393 -9.845407,-0.2793 z m 120.169832,-0.0175 c -0.307235,-0.30721 -0.558607,-20.11473 -0.558607,-44.01669 v -43.45811 l 9.845407,0.23606 9.845408,0.23607 0.24776,5.65588 c 0.300256,6.85431 1.293435,7.19789 5.17654,1.79077 5.07837,-7.07152 13.377406,-10.54675 21.791436,-9.1252 l 3.36787,0.56899 v 9.66001 c 0,9.64002 -0.004,9.65875 -1.88529,9.04966 -1.03691,-0.33569 -4.55913,-0.79492 -7.82714,-1.0205 -6.96413,-0.48072 -11.437265,1.27146 -14.874896,5.82667 -5.018309,6.64977 -5.088299,7.12494 -5.398677,36.64992 -0.208169,19.80301 -0.556739,27.38782 -1.279752,27.84758 -1.228338,0.78107 -17.679704,0.86927 -18.450059,0.0989 z M -496.573,-265.48768 l 0.21622,-48.80809 h 49.01756 49.01756 l 0.21623,48.80809 0.21623,48.80809 h -49.45002 -49.45001 z m 109.28379,48.24948 c -0.79812,-0.79813 -0.66884,-95.16773 0.1321,-96.42914 0.51948,-0.81811 11.24629,-1.04738 49.00473,-1.04738 h 48.33968 v 49.01756 49.01757 h -48.45895 c -26.65243,0 -48.71033,-0.25138 -49.01756,-0.55861 z m 321.197677,-35.69736 c -4.978123,-2.69682 -6.506867,-4.18124 -7.544741,-7.32604 -1.681235,-5.09418 0.076,-9.5955 4.95343,-12.68867 4.836743,-3.06737 8.686674,-3.10279 13.283423,-0.1222 7.326307,4.75047 7.395678,13.51919 0.148905,18.82146 -2.824149,2.06635 -8.241503,2.7237 -10.841017,1.31545 z"
        />
  </g>
</svg>
