<?xml version="1.0" encoding="UTF-8" standalone="no"?>
<svg
   xmlns:dc="http://purl.org/dc/elements/1.1/"
   xmlns:cc="http://creativecommons.org/ns#"
   xmlns:rdf="http://www.w3.org/1999/02/22-rdf-syntax-ns#"
   xmlns:svg="http://www.w3.org/2000/svg"
   xmlns="http://www.w3.org/2000/svg"
   id="svg8"
   version="1.1"
   viewBox="0 0 1137.6627 177.56601"
>
  <defs
     id="defs2" />
  <metadata
     id="metadata5">
    <rdf:RDF>
      <cc:Work
         rdf:about="">
        <dc:format>image/svg+xml</dc:format>
        <dc:type
           rdf:resource="http://purl.org/dc/dcmitype/StillImage" />
        <dc:title></dc:title>
      </cc:Work>
    </rdf:RDF>
  </metadata>
  <g
     transform="translate(631.64734,210.44364)"
     id="layer1">
    <path
       id="path102"
       d="m 341.1824,-35.633683 c -13.42448,-2.79561 -22.9334,-6.13944 -34.62756,-12.17688 l -6.90148,-3.56307 11.45629,-0.65883 c 12.79113,-0.73558 23.62468,-3.21981 32.8341,-7.5292 7.9477,-3.71901 17.28715,-9.41078 17.28715,-10.53541 0,-0.48707 -1.30238,-0.88557 -2.89414,-0.88557 -8.4493,0 -22.44707,-7.59136 -28.78698,-15.6119 -3.36891,-4.26202 -7.46119,-11.12532 -7.46119,-12.51344 0,-0.28346 2.89987,-0.52124 6.44416,-0.52841 3.54429,-0.008 7.41079,-0.27209 8.59222,-0.588697 2.27531,-0.60976 2.97223,-2.26183 0.95469,-2.2631 -2.7076,-0.002 -13.33178,-5.87684 -17.38736,-9.61512 -5.3018,-4.88704 -10.30445,-12.95172 -12.35303,-19.91414 -1.37673,-4.67899 -2.07143,-11.52168 -1.16975,-11.52168 0.1958,0 2.23645,0.82372 4.53478,1.83048 3.88588,1.70218 13.24836,3.65593 13.24836,2.76466 0,-0.21731 -2.33798,-2.80895 -5.19552,-5.75919 -12.04239,-12.43308 -15.86588,-29.45388 -10.08639,-44.90095 1.12939,-3.01856 2.29225,-5.48829 2.58414,-5.48829 0.29189,0 4.71486,4.01604 9.82881,8.92454 19.00123,18.23785 39.63419,28.78784 64.78007,33.12317 15.54905,2.68077 14.15883,3.36779 14.08942,-6.96283 -0.0926,-13.83182 3.83815,-23.17528 13.71404,-32.59529 5.84309,-5.57341 11.18506,-8.50203 19.59254,-10.7412 11.8353,-3.15211 25.83899,0.24626 36.44388,8.84407 2.18873,1.77447 4.90902,3.2263 6.04511,3.2263 2.51293,0 15.32211,-4.31915 20.37939,-6.87172 2.01994,-1.01953 3.90545,-1.62085 4.19005,-1.33626 1.0197,1.01967 -6.04883,11.31941 -10.96539,15.97794 -2.75667,2.61201 -5.01212,4.98838 -5.01212,5.28081 0,0.91665 8.82325,-0.73345 14.62204,-2.7346 3.05386,-1.05387 5.7606,-1.70804 6.01493,-1.45372 0.7437,0.7437 -9.70892,12.60234 -14.16761,16.07332 -2.24543,1.74805 -4.39826,3.61898 -4.78405,4.15763 -0.38579,0.53864 -0.708,4.9058 -0.71602,9.70478 -0.0439,26.15175 -12.65662,57.847657 -31.41409,78.943287 -11.11117,12.49618 -21.1907,20.23994 -35.9062,27.58557 -11.12539,5.55351 -18.39603,7.89855 -33.46029,10.79209 -16.49314,3.168 -27.39933,3.05016 -44.347,-0.47915 z m -918.41237,1.22849 c -18.60164,-3.08209 -37.59216,-17.40869 -46.58676,-35.14542 -7.23209,-14.26118 -7.83061,-19.99244 -7.83061,-74.983557 0,-50.18173 0.1859,-51.84912 6.5275,-58.54825 7.12779,-7.52966 16.67233,-9.33381 25.66682,-4.85167 9.77707,4.87213 12.67614,11.5483 12.67614,29.19144 v 12.29095 l 4.05743,0.0285 c 2.23159,0.0156 18.01979,0.12305 35.08488,0.23867 29.18362,0.19773 31.28275,0.32841 35.32356,2.19904 5.55023,2.5694 9.87114,7.55397 11.93526,13.7685 3.33344,10.03604 -1.31548,20.62492 -11.45792,26.09783 -3.68717,1.98962 -5.04411,2.07034 -39.38099,2.34274 l -35.56222,0.28212 v 13.35289 c 0,14.903707 0.85259,18.253857 6.0152,23.635927 6.08877,6.34759 5.90945,6.31482 37.42322,6.84005 31.75124,0.52919 31.51605,0.48445 38.08176,7.24495 3.66554,3.77428 6.31643,10.33585 6.30203,15.59902 -0.0128,4.69111 -3.83108,12.47832 -7.73045,15.76601 -6.18546,5.21519 -6.94496,5.31658 -38.77073,5.17578 -16.16307,-0.0715 -30.46143,-0.30796 -31.77412,-0.52547 z m 132.70199,-1.09878 c -16.97982,-4.78345 -32.6853,-17.88941 -39.75821,-33.17755 -5.2253,-11.29454 -6.06694,-17.64996 -6.06694,-45.813107 0,-29.74686 0.39269,-31.69127 7.65604,-37.90842 10.44937,-8.94427 26.36241,-5.2499 32.01185,7.43189 0.46783,1.05016 1.07796,13.93848 1.35587,28.64071 l 0.50528,26.731337 2.67814,4.5561 c 6.40532,10.89686 20.78545,13.44413 30.51728,5.40579 6.77656,-5.59734 6.84677,-5.9374 7.37894,-35.738537 0.42314,-23.69647 0.6797,-27.11069 2.25972,-30.07275 4.1862,-7.84784 10.28368,-11.63058 18.87805,-11.71154 7.20421,-0.0679 13.35729,3.52746 17.50195,10.22659 l 2.88932,4.67007 0.47734,26.80948 c 0.52853,29.684047 0.58727,29.979887 7.08532,35.685247 5.76131,5.0585 14.23873,6.32681 21.07806,3.15349 4.46429,-2.07136 9.47955,-7.07634 10.92039,-10.89804 0.61486,-1.63087 1.01324,-11.979 1.01324,-26.319377 0,-18.5986 0.3162,-24.69663 1.48464,-28.63118 2.04538,-6.88754 7.25431,-11.96589 14.40609,-14.04497 5.13762,-1.49355 5.78182,-1.48844 10.77446,0.0853 7.00488,2.20809 11.78545,6.98547 13.80911,13.79987 2.35388,7.92639 2.17159,47.895047 -0.27246,59.736657 -2.68327,13.00072 -7.21089,21.18427 -17.19668,31.08252 -12.92224,12.80896 -25.43125,18.05464 -43.05366,18.05464 -13.99886,0 -26.38277,-4.00076 -36.55385,-11.8091 l -4.57172,-3.50971 -6.22489,4.44199 c -3.4237,2.4431 -9.52904,5.74904 -13.56742,7.34655 -6.54479,2.58899 -8.63901,2.93821 -19.27614,3.21437 -9.38532,0.24366 -13.25875,-0.0635 -18.13912,-1.43836 z m 186.64827,0.25238 c -5.48026,-2.85751 -8.83494,-6.06875 -11.09557,-10.62115 l -2.27635,-4.58406 v -40.57435 c 0,-44.039397 -0.0378,-43.686537 5.44188,-50.762127 3.77951,-4.88025 10.17906,-7.79216 16.98407,-7.72806 8.16021,0.0769 15.37001,4.56601 19.38363,12.06912 2.06086,3.8526 2.11237,4.79702 2.39362,43.879887 0.24581,34.15946 0.072,40.59129 -1.20086,44.42336 -3.23025,9.72535 -11.01654,15.40385 -21.1072,15.39338 -3.26592,-0.004 -6.87579,-0.637 -8.52322,-1.496 z m 96.4175,0.52618 c -19.12688,-3.83916 -34.93295,-16.97216 -41.47367,-34.45984 -8.41506,-22.499 -12.69679,-65.571007 -10.55523,-106.180217 1.08018,-20.48291 1.7438,-23.09217 7.30114,-28.70699 8.76287,-8.85351 24.95491,-7.91691 32.42396,1.87551 4.42596,5.80274 5.14362,10.39534 5.14362,32.91601 0,15.67219 0.29808,20.98195 1.22088,21.7478 0.77989,0.64726 9.19029,1.02839 23.28459,1.05517 13.45557,0.0256 23.12744,0.44637 24.7902,1.07855 10.19967,3.87791 16.54864,16.08022 13.68617,26.30395 -1.42145,5.07694 -7.17223,11.88104 -12.11947,14.33929 -3.11838,1.54951 -6.63459,1.85585 -26.04041,2.26875 l -22.43523,0.47734 0.22408,5.192267 c 0.31257,7.24246 1.75284,10.95721 5.53625,14.27909 4.61964,4.05609 8.6129,4.85908 24.31242,4.8889 11.34998,0.0216 14.5374,0.3417 17.69873,1.77771 5.1288,2.32972 11.34719,9.54135 12.84737,14.89946 2.8513,10.18386 -2.95597,21.68791 -13.09233,25.93559 -3.44348,1.44299 -35.93658,1.67986 -42.75307,0.31166 z m 117.426936,0.0266 c -13.868007,-2.88025 -26.824419,-10.86273 -34.454555,-21.22754 -6.994779,-9.50173 -12.604074,-27.35808 -15.676106,-49.902507 -2.589951,-19.00664 -2.676303,-82.32993 -0.123155,-90.31687 0.604806,-1.89201 2.673182,-5.06023 4.596387,-7.04049 9.046018,-9.3144 22.620525,-9.54545 31.62763,-0.53834 5.898833,5.89884 6.262122,7.69646 6.662815,32.96871 0.254835,16.07284 0.695778,23.11614 1.478338,23.61397 0.61336,0.39019 11.16399,0.71601 23.445856,0.72405 21.1533002,0.0138 22.5547852,0.12656 26.58168024,2.13768 5.21512196,2.60456 9.55691096,7.9106 11.36982976,13.89491 2.93786,9.69766 -1.8083078,20.08 -11.59295076,25.35983 -3.51585804,1.89718 -5.59831504,2.09848 -26.25399224,2.53797 l -22.43523,0.47734 -0.336757,2.386727 c -0.573177,4.06235 1.786684,12.28574 4.42564,15.42196 4.600482,5.46737 8.478942,6.49144 24.673922,6.51496 10.980508,0.0159 15.3285512,0.38501 18.1391222,1.5397 12.5720818,5.16511 18.0533608,20.55891 11.242809,31.57472 -1.549816,2.50677 -4.669086,5.85988 -6.931703,7.45136 l -4.113848,2.89358 -19.2534852,0.1607 c -10.589418,0.0884 -20.971927,-0.19622 -23.072247,-0.63244 z m 111.816917,-0.87843 c -17.114605,-4.76029 -33.355744,-17.76962 -40.936007,-32.79018 -6.315698,-12.51477 -8.133878,-29.85533 -4.569512,-43.580807 7.509997,-28.91906 30.141129,-44.59335 64.003871,-44.329 31.408335,0.2452 54.713565,13.79593 64.597665,37.56003 2.20532,5.30222 2.59025,7.61877 2.64453,15.9148 0.0712,10.885987 -0.97323,13.356407 -7.19647,17.022017 -3.06993,1.80825 -5.23648,1.92426 -40.90495,2.19027 -24.638121,0.18376 -38.083592,0.62967 -38.878516,1.2894 -0.978777,0.81232 -0.944284,1.53233 0.177325,3.70128 2.926461,5.65915 10.861715,9.16183 22.928606,10.12082 9.5684,0.76044 15.053075,-0.37742 26.993635,-5.60016 7.75867,-3.3936 10.26274,-4.05014 15.46334,-4.05434 4.97111,-0.004 6.82554,0.43678 9.32264,2.21595 11.53951,8.22185 5.18726,25.28937 -12.78197,34.34312 -11.65877,5.87424 -17.34979,7.03054 -36.637685,7.44406 -15.240381,0.32673 -18.561797,0.12832 -24.226502,-1.44728 z M 109.6526,-112.00631 c 1.00585,-1.6275 -2.30383,-6.64039 -5.99849,-9.0854 -6.970225,-4.61267 -21.92268,-4.7808 -29.948946,-0.33675 -4.120702,2.28158 -8.10369,7.60236 -7.012536,9.36788 0.798255,1.2916 42.162952,1.34386 42.959972,0.0542 z m 64.93629,76.672877 c -4.44181,-2.33753 -8.18656,-6.16597 -10.12367,-10.34994 -1.5873,-3.42841 -1.76873,-6.55121 -1.77489,-30.5501 -0.008,-29.915007 0.59135,-34.356697 6.17809,-45.810667 7.41917,-15.21079 21.51082,-27.01118 38.46477,-32.2105 5.27915,-1.61897 9.81803,-2.04005 25.95478,-2.40787 23.08249,-0.52613 27.51451,0.16776 33.43387,5.23451 11.588,9.91889 9.58048,26.75474 -4.02471,33.75292 -3.13202,1.61104 -5.71631,1.82195 -22.32446,1.82195 -20.55467,0 -24.15326,0.61045 -29.47953,5.00082 -6.83284,5.6322 -7.18338,7.27889 -7.20897,33.864787 -0.0125,13.01664 -0.41397,25.35341 -0.89211,27.41502 -1.27994,5.51888 -5.66515,11.22031 -10.51778,13.67471 -5.0792,2.56898 -13.37325,2.83366 -17.68539,0.56436 z M -256.22587,-167.66833 c -8.61936,-3.28597 -14.74565,-11.80595 -14.75399,-20.51874 -0.0196,-20.48678 24.50971,-29.97816 38.18402,-14.77493 9.16893,10.19411 6.39933,25.98527 -5.88962,33.58026 -3.97468,2.45648 -13.22187,3.35978 -17.54041,1.71341 z"
        />
  </g>
</svg>
