<svg xmlns="http://www.w3.org/2000/svg" xmlns:xlink="http://www.w3.org/1999/xlink" xmlns:dc="http://purl.org/dc/elements/1.1/" xmlns:cc="http://creativecommons.org/ns#" xmlns:rdf="http://www.w3.org/1999/02/22-rdf-syntax-ns#" xmlns:svg="http://www.w3.org/2000/svg"><symbol id="icon-circul">
<path fill-rule="evenodd" d="M23.000,46.000 C10.297,46.000 -0.000,35.702 -0.000,22.999 C-0.000,10.297 10.297,-0.001 23.000,-0.001 C35.702,-0.001 46.000,10.297 46.000,22.999 C46.000,35.702 35.702,46.000 23.000,46.000 ZM32.332,40.811 C35.945,38.911 38.908,35.943 40.806,32.328 L33.921,26.589 C32.783,30.050 30.050,32.784 26.592,33.922 L32.332,40.811 ZM31.625,22.999 C31.625,18.236 27.763,14.375 23.000,14.375 C18.236,14.375 14.375,18.236 14.375,22.999 C14.375,27.763 18.236,31.624 23.000,31.624 C27.763,31.624 31.625,27.763 31.625,22.999 ZM13.668,40.811 L19.408,33.922 C15.950,32.784 13.217,30.050 12.079,26.589 L5.194,32.328 C7.092,35.943 10.055,38.911 13.668,40.811 ZM5.194,13.671 L12.079,19.409 C13.217,15.949 15.950,13.215 19.408,12.077 L13.668,5.188 C10.056,7.088 7.092,10.056 5.194,13.671 ZM32.332,5.188 L26.592,12.077 C30.050,13.215 32.783,15.949 33.921,19.409 L40.806,13.671 C38.908,10.056 35.945,7.088 32.332,5.188 Z"/>
</symbol><symbol id="icon-crunch" viewBox="0 0 1135.327 159.23053">
  
  <metadata id="metadata5">
    <rdf:RDF>
      <cc:Work rdf:about="">
        <dc:format>image/svg+xml</dc:format>
        <dc:type rdf:resource="http://purl.org/dc/dcmitype/StillImage"/>
        <dc:title/>
      </cc:Work>
    </rdf:RDF>
  </metadata>
  <g transform="translate(645.29226,135.72583)" id="layer1">
    <path id="path89" d="m -589.34292,22.27624 c -1.47177,-1.08901 -1.63103,-5.62191 -1.8504,-52.66735 l -0.24002,-51.47579 -26.69115,-0.51458 c -14.68013,-0.28301 -26.79838,-0.60474 -26.92946,-0.71494 -0.13107,-0.1102 -0.23831,-11.9969 -0.23831,-26.41489 v -26.21452 h 79.55362 79.55361 l 0.55889,3.09808 c 0.30737,1.70394 0.43405,13.60772 0.2815,26.45284 l -0.27737,23.35475 -26.21452,0.51519 c -14.41798,0.28336 -26.32176,0.60508 -26.45283,0.71495 -0.13107,0.10986 -0.23831,23.37447 -0.23831,51.69913 v 51.49938 l -2.4452,0.92966 c -3.78048,1.43734 -46.38535,1.20665 -48.37005,-0.26191 z m 105.79882,0 c -1.49876,-1.10042 -1.60383,-5.09219 -1.37376,-52.19073 l 0.24911,-50.99916 26.45283,-0.25339 26.45284,-0.25339 0.0146,25.03803 c 0.008,13.77092 0.36845,25.59589 0.80093,26.2777 0.6302,0.99352 10.87092,1.22554 51.57404,1.16851 36.88067,-0.0517 51.14834,0.22813 52.10474,1.02187 1.05819,0.87823 1.31703,5.92105 1.31703,25.65898 0,21.52154 -0.18687,24.63762 -1.50785,25.14454 -0.8293,0.31824 -35.92243,0.57861 -77.98473,0.57861 -59.68047,0 -76.83331,-0.26169 -78.09976,-1.19157 z m 241.2405,-25.57593 c -1.53907,-0.89642 -1.6682,-3.58489 -1.6682,-34.7313 0,-32.40157 -0.0742,-33.79935 -1.84384,-34.74645 -1.01412,-0.54273 -6.75925,-0.98679 -12.76696,-0.98679 -9.08108,0 -11.02069,-0.25428 -11.50173,-1.50785 -1.07136,-2.7919 -0.62906,-17.12551 0.56529,-18.31986 1.64237,-1.64238 74.23674,-1.64238 75.87912,0 1.61056,1.61056 1.51709,16.09319 -0.1183,18.32972 -1.08689,1.48641 -2.58778,1.70534 -10.80603,1.5762 -5.2491,-0.0825 -10.68661,0.28453 -12.08337,0.81558 l -2.53954,0.96553 v 33.83063 c 0,32.47171 -0.0741,33.87024 -1.84385,34.81741 -2.36838,1.26751 -19.08064,1.23387 -21.27259,-0.0428 z m 66.42721,-1.23746 c -7.11695,-3.314 -11.4033,-7.56885 -14.82743,-14.71846 -2.72244,-5.68447 -3.09749,-7.50533 -3.4885,-16.93659 -0.38483,-9.28224 -0.1924,-11.12282 1.58235,-15.13494 1.11126,-2.51218 2.02046,-4.98974 2.02046,-5.50569 0,-1.99214 7.91797,-10.26299 12.1926,-12.73599 4.15373,-2.40306 5.31927,-2.60353 15.58967,-2.68138 9.31189,-0.0706 11.39735,0.18462 12.94401,1.58405 1.01403,0.91751 2.288,1.66819 2.83103,1.66819 1.99826,0 6.8775,5.39272 9.62325,10.63596 2.1106,4.03039 3.13806,7.85591 4.06639,15.14037 1.17446,9.21597 1.14503,9.81835 -0.54018,11.0506 -1.36167,0.99568 -6.1267,1.30329 -20.18864,1.30329 h -18.40628 v 2.4458 c 0,3.88426 1.50474,5.72598 6.39643,7.82888 4.98855,2.14454 8.61372,1.89457 17.79754,-1.22722 5.42669,-1.84465 5.41375,-1.85288 10.00896,6.36143 l 3.02067,5.39969 -2.64478,1.81583 c -5.98742,4.11079 -13.31632,5.97369 -23.46289,5.96394 -8.16433,-0.008 -10.44464,-0.36256 -14.51466,-2.25776 z m 22.27409,-43.57469 c 0.1956,-1.68312 -0.60858,-3.42725 -2.52728,-5.48122 -2.33605,-2.50077 -3.52863,-3.01258 -7.01964,-3.01258 -3.36332,0 -4.71841,0.5354 -6.76695,2.67362 -2.58099,2.69397 -3.05737,4.45751 -1.96973,7.29185 0.4965,1.29386 1.9926,1.49822 9.29424,1.26953 8.57248,-0.26849 8.70677,-0.30944 8.98936,-2.7412 z m 51.7705,43.2875 c -5.00278,-2.41927 -12.49729,-9.05755 -12.49729,-11.06951 0,-0.55086 -0.57534,-1.67879 -1.27854,-2.50651 -1.54884,-1.82308 -4.45651,-14.95908 -4.40096,-19.8822 0.0532,-4.71686 3.06722,-17.04536 4.52308,-18.50121 0.63603,-0.63603 1.15642,-1.68021 1.15642,-2.3204 0,-1.44432 8.34467,-9.89379 9.77107,-9.89379 0.57269,0 1.8661,-0.74648 2.87425,-1.65884 1.53006,-1.38468 3.759582,-1.66039 13.489612,-1.6682 11.170107,-0.009 11.824488,0.10172 15.678623,2.65187 4.102086,2.7142 11.568744,9.8887 11.568744,11.11607 0,0.75509 -13.92622,11.48398 -14.906348,11.48398 -0.34118,0 -2.002427,-1.59887 -3.691681,-3.55305 -2.609578,-3.01883 -3.655778,-3.55304 -6.958378,-3.55304 -5.58807,0 -8.10992,2.73151 -9.64308,10.44478 -1.70722,8.58904 0.0259,17.69616 4.00498,21.04427 4.17107,3.50973 8.68399,2.82126 14.550642,-2.21978 1.983009,-1.70394 3.923045,-3.09808 4.311182,-3.09808 1.254484,0 12.332683,9.79728 12.332683,10.90672 0,1.48797 -9.265584,10.28675 -13.458086,12.78008 -2.920422,1.7368 -4.892402,2.04576 -12.868951,2.01629 -8.15846,-0.0301 -10.10813,-0.36757 -14.557972,-2.51945 z m 58.15032,1.25296 c -0.777065,-0.93631 -1.010336,-13.13981 -0.831667,-43.50776 0.214129,-36.39541 0.445189,-42.30472 1.678206,-42.92015 0.786435,-0.39253 2.931259,-1.36018 4.766276,-2.15032 1.835016,-0.79015 5.556267,-2.39699 8.269441,-3.57076 7.817342,-3.38192 7.935898,-3.18964 7.935898,12.87029 0,13.58082 0.04054,13.85212 2.069765,13.85212 1.138368,0 2.899269,-0.75068 3.913103,-1.66819 1.505124,-1.36212 3.649938,-1.6682 11.6898359,-1.6682 9.636295,0 9.910766,0.0611 12.855972,2.85977 8.1968231,7.78909 9.3870761,13.20893 9.4578941,43.06671 0.04271,17.99431 -0.172864,21.36486 -1.447824,22.63982 -1.88918,1.88919 -19.3624151,2.18115 -21.1895011,0.35406 -0.824765,-0.82476 -1.143906,-7.38996 -1.143906,-23.53163 0,-21.67403 -0.06606,-22.45806 -2.072672,-24.59399 -3.0678619,-3.26558 -9.4746229,-3.10462 -12.1569689,0.30543 -1.86962,2.37684 -1.975698,3.69734 -1.975698,24.59399 0,15.90412 -0.320046,22.40234 -1.143906,23.2262 -1.686871,1.68687 -19.254641,1.55313 -20.674248,-0.15739 z M 64.882902,-2.90741 C 52.244901,-7.21011 44.903777,-13.14816 40.061012,-22.98523 27.878048,-47.73235 35.447342,-80.99122 55.64582,-91.4636 c 4.508316,-2.33744 15.778967,-5.14537 20.676145,-5.15117 6.184929,-0.007 18.07778,3.13824 22.557832,5.96638 5.701333,3.59909 13.665863,14.48429 13.665863,18.67726 0,2.03031 -0.8447,2.54903 -11.44288,7.02693 -1.837115,0.77621 -4.721951,1.71477 -6.410738,2.08569 -2.886848,0.63406 -3.242041,0.40395 -5.937703,-3.84667 -3.715589,-5.85888 -7.040486,-7.99905 -12.432374,-8.00246 -5.639068,-0.004 -9.51507,2.46436 -12.915818,8.22378 -2.634712,4.46208 -2.737206,5.09846 -2.742534,17.02764 -0.0048,11.62079 0.153369,12.68906 2.546821,17.1586 3.635725,6.78936 6.389051,8.46014 13.941701,8.46014 h 6.193795 l 5.007784,-5.51046 c 4.560211,-5.01795 5.267717,-5.45336 7.916146,-4.87167 1.599601,0.35133 3.132397,1.00127 3.40621,1.44431 0.273813,0.44303 3.28149,2.16162 6.68372,3.81908 7.37772,3.59419 7.6495,4.75682 2.6709,11.42546 -5.28186,7.07485 -11.35536,11.08688 -21.739999,14.36102 -2.943766,0.92812 -19.870148,1.12629 -22.407789,0.26233 z M 201.58438,-5.36816 c -3.08731,-2.08121 -5.39107,-4.65339 -7.01883,-7.83665 -2.37514,-4.64481 -2.4325,-5.2465 -2.8997,-30.41334 -0.30809,-16.59554 -0.13513,-26.14049 0.48909,-26.99172 0.7426,-1.01266 3.38559,-1.25389 11.43907,-1.04408 l 10.47334,0.27286 0.47662,23.0186 c 0.54846,26.48749 0.71155,27.0273 8.16567,27.0273 3.36021,0 4.48112,-0.50383 6.52505,-2.93291 l 2.46788,-2.9329 v -22.32836 -22.32836 h 10.29515 c 6.73634,0 10.69058,0.39542 11.43907,1.14391 1.49493,1.49493 1.64182,62.87242 0.15711,65.64663 -0.87993,1.64416 -2.0764,1.84384 -11.04795,1.84384 -8.8382,0 -10.25354,-0.22821 -11.64384,-1.87754 -1.56871,-1.86095 -1.62478,-1.85681 -6.34896,0.46792 -3.70508,1.82324 -6.281,2.34739 -11.56965,2.35417 -6.10479,0.008 -7.27525,-0.3094 -11.39912,-3.08937 z m 169.95883,1.72164 c -14.8807,-5.30783 -22.75859,-22.02099 -19.61781,-41.61986 1.87525,-11.70214 5.94927,-18.2513 14.63609,-23.5283 5.63098,-3.42058 5.8385,-3.46543 16.21087,-3.50231 9.69251,-0.0345 10.83947,0.15876 14.79662,2.49267 5.28723,3.11837 11.4526,9.18254 11.39989,11.21274 -0.0315,1.20558 -10.57447,10.06412 -13.51259,11.35345 -0.39055,0.17137 -2.21393,-1.33001 -4.052,-3.3364 -2.94737,-3.21725 -3.86068,-3.64797 -7.7349,-3.64797 -5.96443,0 -8.53135,3.14108 -9.43084,11.54018 -1.52121,14.20524 2.09153,22.30039 9.95246,22.30039 3.21113,0 4.60822,-0.66387 8.02469,-3.81302 2.27513,-2.09717 4.35876,-3.81303 4.63025,-3.81303 0.93276,0 11.66193,8.67269 12.43245,10.04947 1.15792,2.06902 -7.14008,10.42592 -13.19811,13.29181 -4.18193,1.97838 -6.44877,2.38932 -12.98944,2.35478 -4.3578,-0.023 -9.55428,-0.62358 -11.54763,-1.3346 z M 130.13818,-4.42077 c -0.25273,-0.65858 -0.3465,-15.99408 -0.20839,-34.07888 l 0.25109,-32.88144 9.53256,-0.298 c 7.65057,-0.23917 10.15388,0.0309 12.6797,1.36811 2.99799,1.58713 3.28184,1.58654 5.98858,-0.0124 3.80407,-2.24711 12.09547,-3.02171 16.56288,-1.54734 3.34983,1.10555 3.53232,1.36439 2.94045,4.17054 -0.34707,1.64552 -0.99927,5.13667 -1.44931,7.75812 -0.96823,5.63977 -2.38631,9.59047 -3.7435,10.42926 -0.53865,0.33291 -2.69285,-0.26887 -4.78711,-1.33728 -4.59262,-2.34298 -5.97032,-2.39889 -10.15704,-0.41216 -4.54232,2.15547 -5.15415,5.32719 -5.16039,26.75098 -0.003,10.04971 -0.26569,18.95073 -0.58393,19.78004 -0.47877,1.24763 -2.37575,1.50785 -10.99235,1.50785 -7.47881,0 -10.54324,-0.33747 -10.87324,-1.19743 z m 142.98829,0 c -0.25273,-0.65858 -0.3465,-15.99408 -0.2084,-34.07888 l 0.2511,-32.88144 9.53255,-0.298 c 7.66436,-0.2396 10.15185,0.0299 12.69253,1.37501 3.04043,1.60972 3.29015,1.60296 6.60094,-0.17863 5.14515,-2.76868 18.51311,-2.63081 23.14041,0.23866 4.22034,2.61706 6.81949,6.13898 9.00978,12.20853 1.41358,3.91702 1.80137,8.79623 2.17667,27.38349 0.25118,12.43947 0.18493,23.6998 -0.14719,25.02295 -0.59883,2.38605 -0.68796,2.40574 -10.88083,2.40574 -6.72217,0 -10.67265,-0.39567 -11.42086,-1.1439 -0.81885,-0.81884 -1.14429,-6.98169 -1.14543,-21.68656 0,-17.64787 -0.23631,-21.01281 -1.6682,-23.87905 -1.60185,-3.20658 -1.87067,-3.33639 -6.90957,-3.33639 -5.03892,0 -5.30776,0.12981 -6.90963,3.33639 -1.42905,2.86065 -1.66692,6.21373 -1.66819,23.5151 -8.1e-4,11.0983 -0.26185,20.85725 -0.5801,21.68656 -0.47876,1.24763 -2.37575,1.50785 -10.99235,1.50785 -7.47881,0 -10.54324,-0.33747 -10.87323,-1.19743 z m 153.02892,-1.2154 c -1.0155,-2.67079 -1.35429,-76.31412 -0.37368,-81.21706 0.47835,-2.392 1.42083,-3.17619 5.95785,-4.95713 2.96424,-1.16359 7.38287,-2.99392 9.81929,-4.06739 2.43633,-1.07347 4.90288,-1.65934 5.48122,-1.30193 0.68529,0.42352 1.05144,5.28853 1.05144,13.96907 0,14.88923 0.45794,15.86736 6.08234,12.99188 4.17631,-2.13516 10.17886,-2.88359 16.88472,-2.1053 5.19267,0.60267 6.169,1.09549 10.24445,5.1709 3.93151,3.93153 4.66551,5.31373 5.76843,10.86251 0.69502,3.49677 1.64608,6.35777 2.11346,6.35777 0.4731,0 0.84983,9.77858 0.84983,22.0581 0,19.88979 -0.16396,22.18258 -1.6682,23.32443 -1.13818,0.864 -4.89172,1.27598 -11.81369,1.29667 -8.39065,0.0251 -10.24559,-0.2305 -10.72412,-1.47754 -0.31829,-0.82931 -0.57863,-11.14397 -0.57863,-22.92145 v -21.41361 l -2.33976,-2.33981 c -2.33776,-2.33775 -8.29828,-3.24931 -10.52918,-1.61027 -3.58062,2.63064 -3.80711,4.04681 -4.28965,26.82069 l -0.47663,22.49568 -10.25874,0.27067 -10.25884,0.27068 z m -856.96522,-103.39851 v -26.69115 h 52.42904 52.42904 v 26.69115 26.69115 h -52.42904 -52.42904 z"/>
  </g>
</symbol><symbol id="icon-globe">
<path fill-rule="evenodd" d="M27.367,31.467 C27.382,31.455 27.400,31.444 27.420,31.438 C27.656,31.309 27.887,31.175 28.114,31.032 C34.078,27.333 36.660,19.753 33.887,13.054 C31.116,6.354 23.933,2.822 17.103,4.427 C16.848,4.488 16.593,4.554 16.341,4.629 C16.311,4.642 16.280,4.649 16.251,4.655 C16.247,4.656 16.246,4.656 16.242,4.656 C15.971,4.708 15.689,4.565 15.579,4.299 L15.224,3.441 C15.026,2.983 15.258,2.772 15.506,2.668 C16.119,2.407 16.454,1.762 16.334,1.130 C16.315,1.041 16.288,0.952 16.253,0.862 C15.987,0.224 15.300,-0.109 14.652,0.050 C14.650,0.050 14.650,0.050 14.650,0.050 C14.590,0.070 14.528,0.089 14.467,0.110 C13.967,0.270 13.471,0.451 12.980,0.656 C11.985,1.067 11.044,1.555 10.159,2.103 C2.201,7.036 -1.242,17.149 2.455,26.084 C5.205,32.731 11.212,37.043 17.857,37.932 L17.857,37.935 C18.531,38.005 19.061,38.557 19.096,39.239 C19.097,39.263 19.097,39.286 19.097,39.310 C19.097,39.350 19.096,39.389 19.092,39.427 C19.092,40.837 17.746,41.136 15.405,42.058 C14.592,42.377 13.786,42.692 13.033,43.105 C12.890,43.182 12.747,43.262 12.608,43.345 C12.597,43.351 12.588,43.358 12.577,43.363 C12.493,43.413 12.408,43.464 12.324,43.517 C12.324,43.517 12.324,43.517 12.322,43.519 C12.075,43.699 11.941,43.887 11.941,44.086 C11.941,44.546 12.674,44.969 13.896,45.299 C14.711,45.519 15.746,45.699 16.923,45.818 C17.828,45.910 18.815,45.966 19.856,45.981 C20.042,45.985 20.231,45.986 20.420,45.986 C20.610,45.986 20.799,45.985 20.986,45.981 C22.026,45.966 23.013,45.910 23.918,45.818 C25.096,45.697 26.131,45.519 26.947,45.299 C28.167,44.969 28.900,44.546 28.900,44.086 C28.900,43.887 28.766,43.699 28.519,43.519 C28.515,43.515 28.512,43.512 28.508,43.512 C28.427,43.460 28.347,43.411 28.265,43.363 C28.255,43.358 28.244,43.351 28.235,43.345 C28.094,43.262 27.951,43.182 27.808,43.105 C27.056,42.692 26.250,42.377 25.438,42.060 C23.649,41.356 21.751,40.920 21.751,39.457 C21.751,39.455 21.751,39.453 21.750,39.452 C21.746,39.406 21.744,39.358 21.744,39.310 C21.744,39.281 21.744,39.252 21.746,39.223 C21.786,38.572 22.277,38.042 22.911,37.943 C22.935,37.943 22.958,37.937 22.982,37.935 C23.605,37.853 24.226,37.737 24.847,37.593 C25.860,37.354 26.869,37.030 27.862,36.619 C28.354,36.414 28.834,36.192 29.301,35.952 C29.360,35.922 29.416,35.895 29.471,35.864 C29.473,35.864 29.475,35.864 29.475,35.864 C30.047,35.516 30.294,34.793 30.030,34.155 C29.994,34.067 29.949,33.987 29.898,33.910 C29.539,33.378 28.843,33.154 28.228,33.409 C28.206,33.418 28.186,33.428 28.165,33.437 C28.197,33.418 28.230,33.404 28.263,33.386 C27.959,33.510 27.609,33.367 27.482,33.061 L27.129,32.203 C27.014,31.926 27.122,31.615 27.367,31.467 ZM10.954,16.810 C11.500,18.443 12.663,20.014 15.619,21.321 C17.152,22.000 17.224,24.047 19.337,26.511 C20.649,28.038 21.705,28.777 22.739,29.272 C22.806,29.301 22.870,29.334 22.925,29.371 C23.094,29.479 23.211,29.609 23.266,29.741 C23.339,29.917 23.299,30.097 23.125,30.219 C23.041,30.280 22.922,30.326 22.770,30.354 C22.762,30.354 22.755,30.357 22.750,30.359 C22.704,30.367 22.667,30.372 22.643,30.379 C17.202,31.417 11.595,28.535 9.392,23.210 C7.536,18.729 8.608,13.767 11.723,10.449 C12.075,10.090 12.667,9.934 12.681,10.594 C12.482,12.708 9.961,13.841 10.954,16.810 ZM25.294,34.614 C25.281,34.619 25.268,34.625 25.255,34.628 C25.244,34.632 25.235,34.636 25.224,34.640 C24.891,34.739 24.555,34.830 24.220,34.907 C16.398,36.747 8.174,32.700 5.000,25.030 C1.824,17.360 4.782,8.678 11.612,4.444 C11.908,4.259 12.214,4.084 12.526,3.916 C12.542,3.908 12.560,3.899 12.579,3.892 C12.885,3.766 13.234,3.910 13.359,4.217 L13.714,5.071 C13.824,5.339 13.727,5.639 13.498,5.795 C13.495,5.797 13.493,5.799 13.489,5.799 C13.465,5.817 13.436,5.832 13.407,5.844 C13.176,5.971 12.949,6.105 12.727,6.240 C6.762,9.939 4.179,17.521 6.952,24.222 C9.723,30.920 16.909,34.452 23.739,32.846 C23.999,32.788 24.257,32.718 24.515,32.641 C24.533,32.634 24.554,32.627 24.572,32.624 C24.852,32.557 25.149,32.700 25.262,32.977 L25.618,33.833 C25.742,34.137 25.600,34.489 25.294,34.614 ZM27.191,28.480 C27.160,28.489 27.109,28.522 27.037,28.584 C26.962,28.634 26.885,28.683 26.810,28.733 C26.777,28.748 26.743,28.759 26.710,28.768 C26.109,28.937 25.543,28.231 25.384,27.738 C25.262,27.316 25.169,26.816 25.131,26.225 C25.114,25.987 25.109,25.734 25.114,25.466 C25.175,22.836 27.849,20.029 24.770,19.079 C23.493,18.685 22.207,19.105 21.033,19.622 C20.916,19.674 20.801,19.727 20.687,19.780 C19.178,20.473 17.876,21.215 17.041,20.407 C15.028,18.458 16.971,16.458 18.156,16.894 C18.845,17.146 19.330,17.375 19.687,17.453 C19.868,17.496 20.017,17.496 20.143,17.444 C20.193,17.422 20.238,17.393 20.282,17.357 C20.691,16.990 20.229,16.634 19.828,16.099 C19.740,15.982 19.660,15.859 19.588,15.725 C19.185,14.966 19.083,14.500 19.313,13.892 C19.482,13.441 19.835,12.915 20.383,12.136 C21.337,10.777 20.607,9.545 19.727,9.071 C19.303,8.840 18.742,8.873 18.189,9.078 C17.696,9.257 17.209,9.576 16.830,9.963 C16.334,10.471 15.868,10.660 15.458,10.640 C14.971,10.618 14.560,10.305 14.267,9.881 C14.260,9.864 14.246,9.841 14.222,9.811 C14.170,9.734 14.125,9.653 14.083,9.571 C13.962,9.269 13.991,8.895 14.187,8.591 C14.282,8.438 14.421,8.304 14.601,8.205 C15.002,7.982 15.420,7.778 15.852,7.599 C16.464,7.346 17.083,7.146 17.705,7.001 C21.803,6.037 26.056,7.335 28.929,10.251 C29.715,11.296 29.673,12.962 27.915,14.077 C26.151,15.189 27.325,16.544 29.312,16.719 C31.301,16.891 32.343,17.976 32.356,19.013 C32.298,20.887 31.796,22.709 30.915,24.335 C30.034,25.963 28.770,27.393 27.191,28.480 Z"/>
</symbol><symbol id="icon-list">
<path fill-rule="evenodd" d="M32.149,45.987 L2.871,45.987 C1.288,45.987 0.006,44.689 0.006,43.089 L0.006,2.929 C0.006,1.331 1.288,0.031 2.871,0.031 L18.841,0.031 C19.275,0.031 19.686,0.124 20.056,0.298 C20.378,0.444 20.667,0.650 20.913,0.899 L23.963,3.982 L31.108,11.212 L34.007,14.144 L34.295,14.436 C34.482,14.651 34.638,14.898 34.756,15.163 C34.923,15.534 35.014,15.945 35.014,16.379 L35.014,43.089 C35.014,44.689 33.732,45.987 32.149,45.987 ZM31.108,41.302 L31.108,19.175 L31.108,17.141 C31.108,16.135 30.365,15.305 29.405,15.182 C29.406,15.177 29.409,15.168 29.413,15.163 L29.153,15.163 L21.358,15.163 C20.640,15.163 20.056,14.574 20.056,13.847 L20.056,5.959 L20.056,5.692 C20.051,5.696 20.046,5.699 20.039,5.701 C19.913,4.732 19.094,3.982 18.103,3.982 L16.078,3.982 L4.584,3.982 C4.576,3.982 4.571,3.982 4.563,3.982 C4.555,3.982 4.548,3.982 4.540,3.982 C4.198,3.994 3.923,4.270 3.912,4.618 C3.911,4.627 3.911,4.631 3.911,4.641 C3.911,4.649 3.911,4.654 3.912,4.663 L3.912,41.356 C3.911,41.365 3.911,41.370 3.911,41.379 C3.911,41.388 3.911,41.393 3.912,41.402 C3.923,41.740 4.185,42.015 4.518,42.033 C4.532,42.038 4.548,42.038 4.563,42.038 C4.576,42.038 4.592,42.038 4.607,42.033 L30.417,42.033 C30.431,42.038 30.446,42.038 30.462,42.038 C30.477,42.038 30.491,42.038 30.506,42.033 C30.820,42.015 31.073,41.768 31.108,41.457 C31.111,41.430 31.112,41.406 31.112,41.379 C31.112,41.352 31.111,41.329 31.108,41.302 ZM25.291,25.101 L24.799,25.101 L10.768,25.101 L10.277,25.101 C9.437,24.982 8.791,24.251 8.791,23.369 L8.791,23.174 C8.791,22.290 9.440,21.559 10.284,21.440 L10.762,21.440 L24.806,21.440 L25.284,21.440 C26.128,21.559 26.776,22.290 26.776,23.174 L26.776,23.369 C26.776,24.251 26.130,24.982 25.291,25.101 ZM14.926,15.616 L14.434,15.616 L10.768,15.616 L10.277,15.616 C9.437,15.497 8.791,14.766 8.791,13.883 L8.791,13.691 C8.791,12.805 9.440,12.073 10.284,11.957 L10.762,11.957 L14.440,11.957 L14.919,11.957 C15.762,12.073 16.411,12.805 16.411,13.691 L16.411,13.883 C16.411,14.766 15.765,15.497 14.926,15.616 ZM10.284,30.847 L10.762,30.847 L20.363,30.847 L20.841,30.847 C21.685,30.966 22.333,31.697 22.333,32.582 L22.333,32.776 C22.333,33.658 21.687,34.390 20.848,34.508 L20.356,34.508 L10.768,34.508 L10.277,34.508 C9.437,34.390 8.791,33.658 8.791,32.776 L8.791,32.582 C8.791,31.697 9.440,30.966 10.284,30.847 Z"/>
</symbol><symbol id="icon-spotify" viewBox="0 0 964.62689 299.85685">
  
  <metadata id="metadata5">
    <rdf:RDF>
      <cc:Work rdf:about="">
        <dc:format>image/svg+xml</dc:format>
        <dc:type rdf:resource="http://purl.org/dc/dcmitype/StillImage"/>
        <dc:title/>
      </cc:Work>
    </rdf:RDF>
  </metadata>
  <g transform="translate(537.62574,360.17645)" id="layer1">
    <path id="path76" d="m -401.07655,-60.834976 c -20.65599,-1.887 -43.33703,-9.12368 -61.59988,-19.65425 -20.10661,-11.5937 -37.77703,-28.234564 -50.34392,-47.410664 -5.86737,-8.95314 -14.60241,-25.73919 -14.60241,-28.06131 0,-0.57925 -0.64205,-2.29477 -1.42678,-3.81227 -1.80746,-3.49525 -3.92825,-11.19224 -6.42324,-23.31198 -2.70756,-13.15236 -2.89251,-38.75652 -0.378,-52.33114 3.65852,-19.75053 7.96705,-31.69974 18.01138,-49.95245 2.66153,-4.83658 9.08742,-14.22675 12.37117,-18.07803 9.87871,-11.58606 13.45166,-15.23235 20.8635,-21.2918 11.2946,-9.23376 12.57455,-10.15423 20.58773,-14.80562 14.93387,-8.66861 30.13859,-14.43063 48.19258,-18.26318 13.8571,-2.94162 40.23098,-3.18717 52.80688,-0.49166 10.75995,2.30629 24.9924,6.32988 26.11799,7.38371 0.49715,0.46545 1.56756,0.84803 2.37869,0.85019 2.21924,0.006 22.94308,10.64074 29.75382,15.26876 24.97141,16.96851 44.28556,41.04809 56.05402,69.88435 5.99698,14.69442 10.29892,37.54712 10.29892,54.70983 0,8.24886 -2.15326,26.42879 -4.11333,34.72884 -9.45003,40.01676 -36.56259,75.580234 -73.39209,96.268224 -24.74733,13.90113 -57.27311,20.91774 -85.15703,18.37045 z m 80.14677,-80.783254 c 2.63739,-2.3565 3.10731,-3.4241 3.10731,-7.05941 0,-5.84085 -2.12363,-7.85277 -15.05791,-14.26569 -27.04518,-13.40923 -53.12849,-18.64066 -86.74994,-17.3991 -19.84682,0.73289 -48.2588,5.05247 -52.38629,7.96449 -2.04284,1.44126 -4.22639,5.48478 -4.22293,7.8201 0.005,3.50721 3.1411,8.08468 6.48852,9.47122 2.47092,1.02348 4.17887,0.91356 11.29237,-0.72681 22.15303,-5.10849 53.44087,-6.42844 73.55718,-3.10317 20.06379,3.31658 36.99564,9.26836 51.46963,18.09228 4.63185,2.82376 8.74555,2.56253 12.50206,-0.79391 z m 16.24249,-38.9579 c 7.78915,-5.13577 8.01552,-14.67959 0.48442,-20.42384 -4.46641,-3.4067 -25.15722,-13.1619 -35.47733,-16.72668 -34.76235,-12.00762 -77.69536,-15.24399 -113.25175,-8.53712 -23.69435,4.46938 -29.02,7.4415 -29.02,16.19538 0,5.3485 1.85203,8.81342 5.8029,10.85649 3.68093,1.90349 6.71316,1.74132 17.60437,-0.94149 34.66167,-8.53816 74.47583,-6.44849 111.70222,5.86275 6.71808,2.22175 20.30573,8.45327 28.52954,13.08411 5.04313,2.8398 9.93173,3.06597 13.62563,0.6304 z m 21.52003,-47.50126 c 1.34878,-1.00439 3.25911,-3.7634 4.24517,-6.13116 3.68472,-8.8478 -0.15607,-15.10915 -13.47401,-21.96564 -29.7806,-15.33196 -66.2024,-23.79647 -107.72898,-25.03645 -32.53878,-0.97161 -68.76777,3.24607 -83.85954,9.7627 -12.10902,5.22868 -10.57684,23.59695 2.25658,27.05263 2.96387,0.79809 5.43008,0.54635 13.36101,-1.36381 22.18795,-5.34396 31.86277,-6.41063 58.25146,-6.42231 29.29361,-0.0129 48.53417,2.61414 77.0695,10.52305 6.36663,1.76459 21.36293,8.01037 28.06852,11.69021 3.92483,2.15384 8.42055,4.19161 9.99049,4.52836 3.69147,0.79183 8.7219,-0.33071 11.8198,-2.63758 z m 208.678105,117.94293 c -0.94542,-0.60022 -1.14465,-14.79258 -0.95148,-67.77803 l 0.24435,-67.01885 h 12.369181 12.369178 l 0.283273,5.94672 c 0.16001,3.35915 0.720191,5.94672 1.287413,5.94672 0.552274,0 3.083988,-1.86996 5.626016,-4.15546 12.812899,-11.5199 30.662536,-13.22925 48.4645995,-4.64116 6.9619735,3.35861 16.9329495,13.4149 20.3850535,20.55949 8.673088,17.95007 8.386418,41.66417 -0.700086,57.91234 -4.030963,7.20804 -12.707123,15.75178 -19.4824365,19.1851 -17.1986475,8.71521 -38.3983145,6.53946 -50.3750955,-5.17007 -1.671409,-1.63411 -3.483094,-2.6966 -4.025958,-2.36109 -0.631827,0.3905 -0.987041,7.91507 -0.987041,20.90879 0,17.6321 -0.197717,20.37464 -1.505035,20.8763 -2.220258,0.85199 -21.607762,0.67432 -23.001932,-0.2108 z m 61.931628,-53.46812 c 6.4512305,-2.41372 11.59812152,-7.35034 14.7906255,-14.18641 3.493513,-7.48061 4.000088,-20.10296 1.115548,-27.79608 -7.215532,-19.24401 -29.9273795,-24.70156 -44.2055305,-10.62239 -11.944183,11.77772 -12.196971,34.01805 -0.522922,46.00607 7.704581,7.91179 18.628478,10.4128 28.822279,6.59881 z m 355.534627,53.65479 c -3.50683,-0.67847 -15.13627,-5.14759 -15.67868,-6.02521 -0.85579,-1.38471 7.68978,-19.54956 9.10879,-19.36203 0.73522,0.0972 3.04943,0.82765 5.14267,1.62331 2.09325,0.79567 5.89005,1.46546 8.43735,1.48843 4.13688,0.0373 5.02591,-0.35269 8.32541,-3.6522 2.23735,-2.23734 3.69396,-4.5938 3.69396,-5.97593 0,-1.7953 -14.29247,-37.43412 -22.45079,-55.9819 -0.80563,-1.83159 -1.81619,-4.18649 -2.24569,-5.23311 -0.4295,-1.04662 -1.92148,-4.68602 -3.31551,-8.08754 -4.80392,-11.72189 -3.7021,-10.94197 -15.45804,-10.94197 h -10.28832 l -0.24818,40.1843 -0.24819,40.18429 -2.1305,0.52953 c -1.17178,0.29125 -7.05439,0.40528 -13.07247,0.25341 l -10.94197,-0.27613 -0.47573,-40.4377 -0.47574,-40.4377 -6.18459,-0.47573 -6.18459,-0.47574 -0.27169,-10.38917 c -0.20061,-7.67122 0.0483,-10.59221 0.95147,-11.16526 0.67274,-0.42686 3.68511,-0.78266 6.69415,-0.79067 l 5.47099,-0.0146 v -6.5601 c 0,-13.0147 6.11858,-24.97462 15.10161,-29.51893 6.39344,-3.23429 16.34059,-4.37438 26.14213,-2.99627 12.63601,1.77663 12.03887,1.10957 12.03887,13.44881 0,11.21579 -0.62751,12.61313 -4.68829,10.43986 -1.0904,-0.58357 -4.65622,-1.28947 -7.92402,-1.56867 -10.01671,-0.85583 -14.77872,3.35124 -14.92677,13.18727 -0.0336,2.23045 0.39216,3.58171 1.13564,3.60454 0.65414,0.0201 9.53854,0.0178 19.74311,-0.005 10.20458,-0.0228 18.99489,0.28187 19.53405,0.6771 0.53915,0.39523 2.2028,3.92983 3.69698,7.85467 1.4942,3.92483 3.23821,8.42055 3.87557,9.99049 0.63737,1.56993 2.11702,5.42341 3.28811,8.56327 3.27344,8.7766 4.85983,12.93643 6.71283,17.6023 0.93522,2.3549 2.34909,5.99429 3.14192,8.08753 5.38773,14.22476 7.07598,18.02155 7.82687,17.6023 0.76548,-0.4274 3.70268,-8.3091 10.46005,-28.06852 1.25274,-3.66318 4.25162,-12.22646 6.66418,-19.02951 2.41256,-6.80305 4.9637,-14.20877 5.6692,-16.45715 2.13879,-6.81614 2.22622,-6.85569 15.11735,-6.83942 6.34653,0.008 12.0883,0.36303 12.75947,0.78893 1.34215,0.85161 0.76356,2.55573 -11.6785,34.40108 -3.78248,9.68126 -8.48155,21.88393 -10.44236,27.11705 -1.96081,5.23311 -4.37576,11.32978 -5.36657,13.54815 -0.9908,2.21813 -1.80145,4.45146 -1.80145,4.96272 0,0.90507 -0.57096,2.33094 -4.68011,11.68786 -1.08913,2.48003 -1.98169,4.83493 -1.98348,5.23311 -0.006,1.17196 -5.21578,13.61779 -8.00706,19.12571 -3.45851,6.82455 -9.43271,13.11783 -15.26262,16.0778 -3.90012,1.98016 -6.39457,2.48405 -13.35886,2.69854 -4.7098,0.14506 -9.63368,0.0566 -10.94196,-0.19647 z M 88.933199,-138.49144 c -14.583271,-2.79446 -23.741163,-7.10907 -32.373384,-15.25227 -10.998845,-10.37574 -16.475698,-23.31192 -16.450884,-38.85649 0.04253,-26.63291 17.299676,-47.82175 43.326682,-53.19777 19.633017,-4.05531 37.870337,1.27287 51.702927,15.10546 29.61175,29.61175 15.28565,79.91752 -25.74862,90.41563 -6.23166,1.59429 -16.690468,2.50712 -20.456721,1.78544 z M 107.9627,-164.2695 c 11.74042,-5.55181 18.82504,-20.40621 16.18773,-33.94101 -3.52327,-18.08162 -18.76886,-28.50105 -36.337384,-24.83442 -7.559404,1.57769 -15.435127,8.27459 -19.019381,16.1726 -3.132038,6.90153 -3.149079,20.81407 -0.03378,27.59278 3.608261,7.85141 9.565657,13.1126 19.221856,16.97553 3.205367,1.2823 15.715169,0.0518 19.980979,-1.96548 z m -254.04388,24.78375 c -9.04462,-1.46298 -16.88094,-3.8394 -24.42629,-7.40747 -9.71834,-4.59563 -21.19523,-12.58974 -21.22498,-14.78404 -0.022,-1.62351 12.75369,-16.97621 14.7708,-17.75025 0.72678,-0.27889 3.15535,0.94647 5.39684,2.72302 12.43947,9.85923 22.3419,13.55107 36.42559,13.58028 8.27006,0.0171 10.13692,-0.29143 14.27075,-2.35895 6.67204,-3.33698 9.32776,-7.5705 8.80839,-14.04158 -0.77181,-9.61631 -3.90215,-11.37515 -35.87921,-20.15933 -20.39816,-5.60343 -31.88828,-13.3618 -36.32819,-24.52955 -3.1237,-7.85707 -3.12195,-22.1648 0.004,-30.02751 4.3199,-10.86702 16.12644,-20.56132 29.18316,-23.96216 12.13904,-3.16182 34.40582,-1.30648 46.10701,3.8418 9.03924,3.97706 19.02951,10.48384 19.02951,12.39413 -1.4e-4,1.8182 -12.35764,19.41471 -13.6345,19.41471 -0.53002,0 -1.63963,-0.60783 -2.4658,-1.35073 -3.19894,-2.87651 -13.88433,-8.25771 -20.21619,-10.18095 -8.56988,-2.60302 -21.47631,-2.2685 -26.53826,0.68784 -7.15061,4.17618 -9.60294,12.538 -5.58415,19.04053 2.68124,4.33836 10.67588,7.98784 26.57384,12.13077 28.56225,7.44317 39.60456,14.75861 44.7199,29.62661 4.96189,14.42199 -0.14616,32.90343 -11.73412,42.45521 -5.20978,4.29433 -13.74149,8.1292 -21.77934,9.78946 -6.68456,1.38073 -19.59082,1.82051 -25.47856,0.86816 z m 332.14228,-0.80356 c -9.122,-2.56565 -13.75421,-6.36394 -17.39536,-14.26374 -2.10577,-4.56862 -2.20504,-5.91594 -2.66304,-36.1442 l -0.47574,-31.39869 -5.97652,-0.28404 -5.97651,-0.28404 0.26766,-11.13366 0.26767,-11.13366 5.92087,-0.2826 5.92087,-0.2826 0.26372,-13.51379 0.26372,-13.51379 12.2947,-0.26752 c 9.19697,-0.20011 12.48959,0.0396 13.06821,0.95148 0.42543,0.67044 0.78008,6.88008 0.78809,13.79918 l 0.0146,12.5802 13.08278,0.26472 13.08279,0.26472 0.26783,11.15279 0.26783,11.15279 -13.11275,0.26491 -13.11274,0.26491 -0.25256,26.80904 -0.25257,26.80902 2.31317,2.68671 c 2.12066,2.46313 2.85427,2.68572 8.81583,2.6749 3.57648,-0.007 7.88653,-0.59046 9.57789,-1.2977 5.37003,-2.24548 5.96381,-1.32752 5.96381,9.21971 0,7.76554 -0.2891,9.64773 -1.66508,10.84039 -5.06677,4.39171 -22.44037,6.62929 -31.55913,4.06456 z m 45.30328,-1.06277 c -0.36375,-0.36374 -0.66136,-23.70269 -0.66136,-51.86431 v -51.20296 l 2.14082,-0.53275 c 1.17745,-0.29302 6.85062,-0.40821 12.60704,-0.256 l 10.46623,0.27676 v 51.8554 51.8554 l -11.94569,0.26491 c -6.57013,0.1457 -12.2433,-0.0327 -12.60704,-0.39645 z m 5.2184,-118.9758 c -1.73759,-0.85625 -4.30657,-3.06103 -5.70885,-4.89951 -2.18359,-2.86283 -2.5496,-4.26532 -2.5496,-9.76945 0,-6.94981 1.35222,-9.76457 6.5544,-13.64357 2.05039,-1.52887 4.04902,-1.96118 9.05762,-1.9592 5.50856,0.002 6.90627,0.36832 9.78344,2.56285 9.55105,7.28494 8.21031,22.70717 -2.41227,27.74791 -4.17931,1.98322 -10.65584,1.96605 -14.72474,-0.039 z"/>
  </g>
</symbol><symbol id="icon-tech" viewBox="0 0 970.37201 206.13805">
  
  <metadata id="metadata5">
    <rdf:RDF>
      <cc:Work rdf:about="">
        <dc:format>image/svg+xml</dc:format>
        <dc:type rdf:resource="http://purl.org/dc/dcmitype/StillImage"/>
        <dc:title/>
      </cc:Work>
    </rdf:RDF>
  </metadata>
  <g transform="translate(496.78923,314.71472)" id="layer1">
    <path id="path63" d="m -495.94547,-108.79955 c -0.004,-0.11521 -0.0195,-21.89032 -0.0341,-48.38913 l -0.0264,-48.17966 48.63269,-0.21623 48.63269,-0.21623 v 48.60536 48.60537 h -48.59861 c -26.72923,0 -48.60204,-0.0943 -48.60625,-0.20948 z m 108.30037,-48.59191 0.21623,-48.81479 48.79043,-0.21622 48.79043,-0.21622 0.45883,1.89204 c 0.25235,1.04062 0.35456,23.00729 0.22713,48.81483 l -0.2317,46.9228 -49.23379,0.21618 -49.23379,0.21617 z m 382.3018251,8.1058 c -15.6634061,-4.84212 -24.2789341,-13.20658 -29.7166821,-28.8507 -1.446135,-4.16044 -2.047292,-18.07862 -0.995249,-23.04244 0.488357,-2.30425 1.218266,-5.71706 1.622012,-7.58403 2.151611,-9.94934 11.719973,-20.83049 23.206253,-26.39017 7.0984391,-3.43584 7.4888111,-3.5216 17.8820091,-3.92834 10.6590479,-0.41715 18.3023269,0.42502 22.6239909,2.49282 2.204634,1.05486 2.249906,1.23849 2.483397,10.07249 0.130806,4.94892 -0.01148,8.99804 -0.316125,8.99804 -0.30468,0 -3.042809,-1.22544 -6.084738,-2.7232 -5.124732,-2.52326 -6.147305,-2.7232 -13.928293,-2.7232 -7.2107769,0 -8.9530619,0.28397 -12.32872086,2.00942 -11.23355214,5.74198 -17.28678514,19.35619 -14.87507014,33.45523 1.100465,6.43338 1.382379,7.17886 4.866857,12.86938 3.4673511,5.66258 13.7424711,10.70957 21.843758,10.72935 3.861595,0.009 11.838955,-2.45941 16.61526,-5.1421 1.519854,-0.85365 3.142143,-1.55209 3.605095,-1.55209 0.524404,0 0.751711,3.23049 0.602941,8.56895 l -0.238787,8.56895 -6.284302,2.46015 c -5.470527,2.14159 -7.586343,2.49554 -16.3391859,2.73339 -7.354025,0.19983 -11.180244,-0.0747 -14.24442,-1.0219 z m 137.8357049,-0.27075 c -13.71139,-3.73571 -23.89293,-13.48473 -28.97285,-27.74204 -2.0192,-5.66711 -2.47561,-20.04594 -0.8749,-27.56311 1.99908,-9.38797 6.32465,-17.50839 12.24703,-22.99147 9.83011,-9.10094 19.44559,-11.99258 37.35023,-11.23221 9.31008,0.39538 10.6141,0.66075 16.41346,3.34022 11.65369,5.38433 19.47954,15.85416 22.10423,29.57217 6.30732,32.96539 -13.27514,58.35069 -44.85802,58.15073 -4.85778,-0.0308 -10.08655,-0.62904 -13.40918,-1.53429 z m 27.18701,-18.03546 c 2.03114,-1.19033 4.4593,-3.13844 5.3959,-4.32914 6.59906,-8.38934 7.91082,-29.10924 2.4932,-39.38141 -3.89223,-7.37994 -9.38572,-11.01968 -17.82101,-11.80738 -7.87348,-0.73524 -13.05023,0.79809 -18.1379,5.37235 -5.4741,4.92168 -7.37303,8.79297 -8.52076,17.37101 -1.05227,7.86456 0.0165,18.68821 2.27694,23.05945 2.08757,4.03693 6.29564,8.35707 9.96229,10.22767 6.92465,3.53269 17.84072,3.30293 24.35134,-0.51255 z m 53.67102,18.05491 c -3.22594,-0.85369 -6.90226,-1.97259 -8.1696,-2.48644 l -2.30424,-0.93427 v -9.23772 c 0,-5.08074 0.28953,-9.23771 0.6434,-9.23771 0.35387,0 1.95637,0.87279 3.56111,1.93953 5.46513,3.63291 12.56268,5.60189 20.18082,5.5985 8.1011,-0.003 11.50433,-1.47763 13.27365,-5.74915 1.29257,-3.12054 0.59761,-7.74325 -1.43589,-9.55119 -2.23151,-1.98399 -11.69793,-6.9431 -18.1166,-9.49062 -8.0313,-3.18757 -14.67647,-9.74226 -16.79627,-16.56757 -3.88054,-12.49451 2.16445,-24.84456 15.32384,-31.30693 4.58145,-2.24988 5.14729,-2.3217 17.72013,-2.2491 10.21242,0.059 13.65896,0.3747 16.12971,1.47759 l 3.14215,1.40258 v 8.78678 c 0,4.83273 -0.14104,8.78678 -0.31342,8.78678 -0.17237,0 -1.9634,-0.91479 -3.98006,-2.03286 -7.9455,-4.40516 -21.09132,-4.79322 -25.87982,-0.76395 -2.18879,1.84174 -2.50507,2.65679 -2.50507,6.45544 0,2.39116 0.52817,5.09132 1.17372,6.00034 1.26066,1.77519 2.0588,2.21563 15.80691,8.72284 14.86648,7.03656 20.17864,13.54227 20.22596,24.7704 0.0481,11.41852 -6.59787,20.1635 -18.85475,24.80959 -6.62176,2.51005 -20.96774,2.93663 -28.82568,0.85714 z m 89.22514,-0.009 c -8.69069,-2.34676 -16.03568,-6.93913 -21.36244,-13.3566 -7.52559,-9.06652 -10.24039,-19.07508 -9.34988,-34.46982 1.06751,-18.45471 8.45003,-30.22469 23.71333,-37.80623 l 7.4299,-3.69059 13.82546,-0.007 c 17.60087,-0.01 22.90178,1.65683 31.70624,9.96688 9.06883,8.55957 13.17298,19.51836 13.05291,34.85368 -0.17948,22.91876 -12.01106,39.16681 -32.42317,44.52582 -7.5914,1.99306 -19.17874,1.98622 -26.59235,-0.0157 z m 24.12869,-16.48115 c 9.87574,-4.11412 15.2442,-16.07232 14.12443,-31.46219 -1.26985,-17.45296 -11.12611,-27.02476 -26.3628,-25.60194 -7.42286,0.69316 -12.12206,3.16133 -15.9816,8.39406 -4.97704,6.74782 -5.5327,8.86292 -5.5327,21.06005 0,9.59576 0.2296,11.39166 1.92821,15.08233 4.26867,9.27478 11.54181,13.80391 22.18853,13.81728 4.00568,0.005 7.72224,-0.49236 9.63593,-1.28959 z m 120.48247,16.41269 c -4.79685,-1.92806 -9.90423,-6.5668 -12.49035,-11.34433 -1.74301,-3.21994 -1.82487,-4.4793 -2.08261,-32.04995 l -0.26822,-28.69831 h -16.2714 -16.2714 l -0.21852,35.82052 -0.21845,35.82053 h -9.63593 -9.63593 l -0.41895,-35.61105 -0.41896,-35.61105 -7.1222,-0.41895 -7.12221,-0.41896 v -7.54116 -7.54117 l 7.12221,-0.41895 7.1222,-0.41895 0.51063,-10.52552 c 0.62625,-12.90858 2.7769,-18.64727 9.2613,-24.7127 6.31212,-5.90425 10.33005,-7.36515 21.33261,-7.75654 12.90963,-0.45922 12.88558,-0.47714 12.88558,9.5976 0,7.3089 -0.13004,7.96694 -1.46633,7.41881 -0.80649,-0.33082 -3.91722,-0.7719 -6.91274,-0.9802 -7.09556,-0.49338 -10.57254,1.19784 -13.21899,6.42982 -1.66911,3.29965 -1.87842,4.81712 -1.67581,12.14966 l 0.23143,8.37907 h 15.92023 15.92024 l 0.23528,-9.75444 c 0.27039,-11.21104 -1.09473,-9.61335 11.76338,-13.7676 4.13875,-1.33718 7.27806,-1.94544 7.72651,-1.49707 0.41535,0.41539 0.86036,6.21461 0.98881,12.88717 l 0.23369,12.1319 10.29545,0.23551 10.29545,0.23552 -0.24057,7.7246 -0.24056,7.7246 -10.26436,0.23527 -10.26436,0.23526 v 24.90195 c 0,23.27887 0.11052,25.078 1.65017,27.60316 2.87008,4.70725 9.55038,6.44389 15.39462,4.00204 1.65444,-0.69127 3.20868,-1.25686 3.45393,-1.25686 0.24517,0 0.44585,3.38846 0.44585,7.52992 v 7.52992 l -3.14215,1.39033 c -5.01948,2.22099 -18.03771,2.41215 -23.19167,0.34056 z m -672.89957,-0.50353 c -0.633,-0.27725 -0.92726,-84.34763 -0.42729,-122.07301 0.004,-0.34563 6.37215,-0.62843 14.15016,-0.62843 10.36382,0 14.3763,0.28253 15.01952,1.05756 0.48273,0.58166 1.69502,3.31533 2.69398,6.07483 0.99896,2.7595 3.45086,8.97638 5.44868,13.81529 1.99782,4.83891 6.1618,15.20801 9.2533,23.04244 3.09149,7.83443 6.4577,16.12971 7.48046,18.43396 1.02274,2.30424 2.33798,5.69777 2.92272,7.54116 0.58475,1.8434 1.94496,5.31164 3.02268,7.7072 1.64647,3.65978 2.89159,7.21232 5.00773,14.28786 0.45866,1.53359 2.02144,1.27763 2.55795,-0.41895 0.25503,-0.80649 0.9719,-2.78604 1.59304,-4.39901 0.62115,-1.61297 2.32332,-6.13767 3.78261,-10.05489 1.45928,-3.91721 3.3958,-8.76068 4.30337,-10.76327 0.90757,-2.00259 2.76845,-6.52729 4.13527,-10.05489 1.36682,-3.5276 2.84924,-7.06855 3.29426,-7.86878 0.44501,-0.80024 0.80912,-1.81717 0.80912,-2.25986 0,-0.4427 1.28261,-3.55854 2.85023,-6.92411 1.56763,-3.36556 5.00732,-11.58655 7.64375,-18.26886 5.30884,-13.45584 6.92568,-17.40429 7.89155,-19.27186 0.53768,-1.03965 3.02354,-1.25686 14.38416,-1.25686 h 13.734137 v 61.16721 61.16722 h -9.635917 -9.63593 l -0.17106,-46.50385 c -0.14637,-39.79742 -0.34581,-46.54059 -1.38292,-46.75869 -0.8341,-0.17541 -1.79503,1.52236 -3.08263,5.4464 -1.02892,3.13568 -2.1307,6.0783 -2.44841,6.53915 -0.31771,0.46085 -2.00488,4.41996 -3.74926,8.79803 -1.7444,4.37806 -4.82779,11.93428 -6.85199,16.79159 -2.0242,4.85732 -3.68036,9.08892 -3.68036,9.40355 0,0.31464 -0.89941,2.56194 -1.9987,4.99399 -1.09927,2.43205 -3.14362,7.24985 -4.543,10.70622 -4.4309,10.944 -8.68136,21.28014 -9.82017,23.88035 -0.60552,1.38255 -1.34457,3.36122 -1.64236,4.39707 -0.66013,2.29624 -2.79217,2.89801 -9.07958,2.56269 l -4.80946,-0.2565 -2.96128,-6.70326 c -1.6287,-3.68679 -4.39518,-10.28531 -6.14774,-14.66337 -1.75256,-4.37807 -4.55574,-11.03767 -6.2293,-14.79912 -1.67356,-3.76145 -3.04283,-7.25435 -3.04283,-7.76201 0,-0.50765 -0.3428,-1.57774 -0.76178,-2.37798 -1.93411,-3.6941 -6.22224,-13.53509 -7.36682,-16.90639 -0.69756,-2.05459 -2.20947,-5.82852 -3.3598,-8.38652 -3.03409,-6.74684 -6.13625,-14.56668 -8.07755,-20.36165 -0.27018,-0.80649 -1.06549,-1.46634 -1.76735,-1.46634 -1.12504,0 -1.30176,5.53036 -1.49263,46.71332 l -0.21652,46.71332 -8.37907,0.15753 c -4.60849,0.0866 -8.75612,-0.008 -9.21697,-0.20948 z m 154.803312,-0.0702 c -0.818853,-0.34122 -1.047384,-9.92808 -1.047384,-43.93779 v -43.50134 h 10.062358 10.062358 l -0.21695,43.78064 -0.216951,43.78065 -8.798024,0.15712 c -4.838913,0.0864 -9.269346,-0.0393 -9.845407,-0.2793 z m 120.169832,-0.0175 c -0.307235,-0.30721 -0.558607,-20.11473 -0.558607,-44.01669 v -43.45811 l 9.845407,0.23606 9.845408,0.23607 0.24776,5.65588 c 0.300256,6.85431 1.293435,7.19789 5.17654,1.79077 5.07837,-7.07152 13.377406,-10.54675 21.791436,-9.1252 l 3.36787,0.56899 v 9.66001 c 0,9.64002 -0.004,9.65875 -1.88529,9.04966 -1.03691,-0.33569 -4.55913,-0.79492 -7.82714,-1.0205 -6.96413,-0.48072 -11.437265,1.27146 -14.874896,5.82667 -5.018309,6.64977 -5.088299,7.12494 -5.398677,36.64992 -0.208169,19.80301 -0.556739,27.38782 -1.279752,27.84758 -1.228338,0.78107 -17.679704,0.86927 -18.450059,0.0989 z M -496.573,-265.48768 l 0.21622,-48.80809 h 49.01756 49.01756 l 0.21623,48.80809 0.21623,48.80809 h -49.45002 -49.45001 z m 109.28379,48.24948 c -0.79812,-0.79813 -0.66884,-95.16773 0.1321,-96.42914 0.51948,-0.81811 11.24629,-1.04738 49.00473,-1.04738 h 48.33968 v 49.01756 49.01757 h -48.45895 c -26.65243,0 -48.71033,-0.25138 -49.01756,-0.55861 z m 321.197677,-35.69736 c -4.978123,-2.69682 -6.506867,-4.18124 -7.544741,-7.32604 -1.681235,-5.09418 0.076,-9.5955 4.95343,-12.68867 4.836743,-3.06737 8.686674,-3.10279 13.283423,-0.1222 7.326307,4.75047 7.395678,13.51919 0.148905,18.82146 -2.824149,2.06635 -8.241503,2.7237 -10.841017,1.31545 z"/>
  </g>
</symbol><symbol id="icon-twitter" viewBox="0 0 1137.6627 177.56601">
  
  <metadata id="metadata5">
    <rdf:RDF>
      <cc:Work rdf:about="">
        <dc:format>image/svg+xml</dc:format>
        <dc:type rdf:resource="http://purl.org/dc/dcmitype/StillImage"/>
        <dc:title/>
      </cc:Work>
    </rdf:RDF>
  </metadata>
  <g transform="translate(631.64734,210.44364)" id="layer1">
    <path id="path102" d="m 341.1824,-35.633683 c -13.42448,-2.79561 -22.9334,-6.13944 -34.62756,-12.17688 l -6.90148,-3.56307 11.45629,-0.65883 c 12.79113,-0.73558 23.62468,-3.21981 32.8341,-7.5292 7.9477,-3.71901 17.28715,-9.41078 17.28715,-10.53541 0,-0.48707 -1.30238,-0.88557 -2.89414,-0.88557 -8.4493,0 -22.44707,-7.59136 -28.78698,-15.6119 -3.36891,-4.26202 -7.46119,-11.12532 -7.46119,-12.51344 0,-0.28346 2.89987,-0.52124 6.44416,-0.52841 3.54429,-0.008 7.41079,-0.27209 8.59222,-0.588697 2.27531,-0.60976 2.97223,-2.26183 0.95469,-2.2631 -2.7076,-0.002 -13.33178,-5.87684 -17.38736,-9.61512 -5.3018,-4.88704 -10.30445,-12.95172 -12.35303,-19.91414 -1.37673,-4.67899 -2.07143,-11.52168 -1.16975,-11.52168 0.1958,0 2.23645,0.82372 4.53478,1.83048 3.88588,1.70218 13.24836,3.65593 13.24836,2.76466 0,-0.21731 -2.33798,-2.80895 -5.19552,-5.75919 -12.04239,-12.43308 -15.86588,-29.45388 -10.08639,-44.90095 1.12939,-3.01856 2.29225,-5.48829 2.58414,-5.48829 0.29189,0 4.71486,4.01604 9.82881,8.92454 19.00123,18.23785 39.63419,28.78784 64.78007,33.12317 15.54905,2.68077 14.15883,3.36779 14.08942,-6.96283 -0.0926,-13.83182 3.83815,-23.17528 13.71404,-32.59529 5.84309,-5.57341 11.18506,-8.50203 19.59254,-10.7412 11.8353,-3.15211 25.83899,0.24626 36.44388,8.84407 2.18873,1.77447 4.90902,3.2263 6.04511,3.2263 2.51293,0 15.32211,-4.31915 20.37939,-6.87172 2.01994,-1.01953 3.90545,-1.62085 4.19005,-1.33626 1.0197,1.01967 -6.04883,11.31941 -10.96539,15.97794 -2.75667,2.61201 -5.01212,4.98838 -5.01212,5.28081 0,0.91665 8.82325,-0.73345 14.62204,-2.7346 3.05386,-1.05387 5.7606,-1.70804 6.01493,-1.45372 0.7437,0.7437 -9.70892,12.60234 -14.16761,16.07332 -2.24543,1.74805 -4.39826,3.61898 -4.78405,4.15763 -0.38579,0.53864 -0.708,4.9058 -0.71602,9.70478 -0.0439,26.15175 -12.65662,57.847657 -31.41409,78.943287 -11.11117,12.49618 -21.1907,20.23994 -35.9062,27.58557 -11.12539,5.55351 -18.39603,7.89855 -33.46029,10.79209 -16.49314,3.168 -27.39933,3.05016 -44.347,-0.47915 z m -918.41237,1.22849 c -18.60164,-3.08209 -37.59216,-17.40869 -46.58676,-35.14542 -7.23209,-14.26118 -7.83061,-19.99244 -7.83061,-74.983557 0,-50.18173 0.1859,-51.84912 6.5275,-58.54825 7.12779,-7.52966 16.67233,-9.33381 25.66682,-4.85167 9.77707,4.87213 12.67614,11.5483 12.67614,29.19144 v 12.29095 l 4.05743,0.0285 c 2.23159,0.0156 18.01979,0.12305 35.08488,0.23867 29.18362,0.19773 31.28275,0.32841 35.32356,2.19904 5.55023,2.5694 9.87114,7.55397 11.93526,13.7685 3.33344,10.03604 -1.31548,20.62492 -11.45792,26.09783 -3.68717,1.98962 -5.04411,2.07034 -39.38099,2.34274 l -35.56222,0.28212 v 13.35289 c 0,14.903707 0.85259,18.253857 6.0152,23.635927 6.08877,6.34759 5.90945,6.31482 37.42322,6.84005 31.75124,0.52919 31.51605,0.48445 38.08176,7.24495 3.66554,3.77428 6.31643,10.33585 6.30203,15.59902 -0.0128,4.69111 -3.83108,12.47832 -7.73045,15.76601 -6.18546,5.21519 -6.94496,5.31658 -38.77073,5.17578 -16.16307,-0.0715 -30.46143,-0.30796 -31.77412,-0.52547 z m 132.70199,-1.09878 c -16.97982,-4.78345 -32.6853,-17.88941 -39.75821,-33.17755 -5.2253,-11.29454 -6.06694,-17.64996 -6.06694,-45.813107 0,-29.74686 0.39269,-31.69127 7.65604,-37.90842 10.44937,-8.94427 26.36241,-5.2499 32.01185,7.43189 0.46783,1.05016 1.07796,13.93848 1.35587,28.64071 l 0.50528,26.731337 2.67814,4.5561 c 6.40532,10.89686 20.78545,13.44413 30.51728,5.40579 6.77656,-5.59734 6.84677,-5.9374 7.37894,-35.738537 0.42314,-23.69647 0.6797,-27.11069 2.25972,-30.07275 4.1862,-7.84784 10.28368,-11.63058 18.87805,-11.71154 7.20421,-0.0679 13.35729,3.52746 17.50195,10.22659 l 2.88932,4.67007 0.47734,26.80948 c 0.52853,29.684047 0.58727,29.979887 7.08532,35.685247 5.76131,5.0585 14.23873,6.32681 21.07806,3.15349 4.46429,-2.07136 9.47955,-7.07634 10.92039,-10.89804 0.61486,-1.63087 1.01324,-11.979 1.01324,-26.319377 0,-18.5986 0.3162,-24.69663 1.48464,-28.63118 2.04538,-6.88754 7.25431,-11.96589 14.40609,-14.04497 5.13762,-1.49355 5.78182,-1.48844 10.77446,0.0853 7.00488,2.20809 11.78545,6.98547 13.80911,13.79987 2.35388,7.92639 2.17159,47.895047 -0.27246,59.736657 -2.68327,13.00072 -7.21089,21.18427 -17.19668,31.08252 -12.92224,12.80896 -25.43125,18.05464 -43.05366,18.05464 -13.99886,0 -26.38277,-4.00076 -36.55385,-11.8091 l -4.57172,-3.50971 -6.22489,4.44199 c -3.4237,2.4431 -9.52904,5.74904 -13.56742,7.34655 -6.54479,2.58899 -8.63901,2.93821 -19.27614,3.21437 -9.38532,0.24366 -13.25875,-0.0635 -18.13912,-1.43836 z m 186.64827,0.25238 c -5.48026,-2.85751 -8.83494,-6.06875 -11.09557,-10.62115 l -2.27635,-4.58406 v -40.57435 c 0,-44.039397 -0.0378,-43.686537 5.44188,-50.762127 3.77951,-4.88025 10.17906,-7.79216 16.98407,-7.72806 8.16021,0.0769 15.37001,4.56601 19.38363,12.06912 2.06086,3.8526 2.11237,4.79702 2.39362,43.879887 0.24581,34.15946 0.072,40.59129 -1.20086,44.42336 -3.23025,9.72535 -11.01654,15.40385 -21.1072,15.39338 -3.26592,-0.004 -6.87579,-0.637 -8.52322,-1.496 z m 96.4175,0.52618 c -19.12688,-3.83916 -34.93295,-16.97216 -41.47367,-34.45984 -8.41506,-22.499 -12.69679,-65.571007 -10.55523,-106.180217 1.08018,-20.48291 1.7438,-23.09217 7.30114,-28.70699 8.76287,-8.85351 24.95491,-7.91691 32.42396,1.87551 4.42596,5.80274 5.14362,10.39534 5.14362,32.91601 0,15.67219 0.29808,20.98195 1.22088,21.7478 0.77989,0.64726 9.19029,1.02839 23.28459,1.05517 13.45557,0.0256 23.12744,0.44637 24.7902,1.07855 10.19967,3.87791 16.54864,16.08022 13.68617,26.30395 -1.42145,5.07694 -7.17223,11.88104 -12.11947,14.33929 -3.11838,1.54951 -6.63459,1.85585 -26.04041,2.26875 l -22.43523,0.47734 0.22408,5.192267 c 0.31257,7.24246 1.75284,10.95721 5.53625,14.27909 4.61964,4.05609 8.6129,4.85908 24.31242,4.8889 11.34998,0.0216 14.5374,0.3417 17.69873,1.77771 5.1288,2.32972 11.34719,9.54135 12.84737,14.89946 2.8513,10.18386 -2.95597,21.68791 -13.09233,25.93559 -3.44348,1.44299 -35.93658,1.67986 -42.75307,0.31166 z m 117.426936,0.0266 c -13.868007,-2.88025 -26.824419,-10.86273 -34.454555,-21.22754 -6.994779,-9.50173 -12.604074,-27.35808 -15.676106,-49.902507 -2.589951,-19.00664 -2.676303,-82.32993 -0.123155,-90.31687 0.604806,-1.89201 2.673182,-5.06023 4.596387,-7.04049 9.046018,-9.3144 22.620525,-9.54545 31.62763,-0.53834 5.898833,5.89884 6.262122,7.69646 6.662815,32.96871 0.254835,16.07284 0.695778,23.11614 1.478338,23.61397 0.61336,0.39019 11.16399,0.71601 23.445856,0.72405 21.1533002,0.0138 22.5547852,0.12656 26.58168024,2.13768 5.21512196,2.60456 9.55691096,7.9106 11.36982976,13.89491 2.93786,9.69766 -1.8083078,20.08 -11.59295076,25.35983 -3.51585804,1.89718 -5.59831504,2.09848 -26.25399224,2.53797 l -22.43523,0.47734 -0.336757,2.386727 c -0.573177,4.06235 1.786684,12.28574 4.42564,15.42196 4.600482,5.46737 8.478942,6.49144 24.673922,6.51496 10.980508,0.0159 15.3285512,0.38501 18.1391222,1.5397 12.5720818,5.16511 18.0533608,20.55891 11.242809,31.57472 -1.549816,2.50677 -4.669086,5.85988 -6.931703,7.45136 l -4.113848,2.89358 -19.2534852,0.1607 c -10.589418,0.0884 -20.971927,-0.19622 -23.072247,-0.63244 z m 111.816917,-0.87843 c -17.114605,-4.76029 -33.355744,-17.76962 -40.936007,-32.79018 -6.315698,-12.51477 -8.133878,-29.85533 -4.569512,-43.580807 7.509997,-28.91906 30.141129,-44.59335 64.003871,-44.329 31.408335,0.2452 54.713565,13.79593 64.597665,37.56003 2.20532,5.30222 2.59025,7.61877 2.64453,15.9148 0.0712,10.885987 -0.97323,13.356407 -7.19647,17.022017 -3.06993,1.80825 -5.23648,1.92426 -40.90495,2.19027 -24.638121,0.18376 -38.083592,0.62967 -38.878516,1.2894 -0.978777,0.81232 -0.944284,1.53233 0.177325,3.70128 2.926461,5.65915 10.861715,9.16183 22.928606,10.12082 9.5684,0.76044 15.053075,-0.37742 26.993635,-5.60016 7.75867,-3.3936 10.26274,-4.05014 15.46334,-4.05434 4.97111,-0.004 6.82554,0.43678 9.32264,2.21595 11.53951,8.22185 5.18726,25.28937 -12.78197,34.34312 -11.65877,5.87424 -17.34979,7.03054 -36.637685,7.44406 -15.240381,0.32673 -18.561797,0.12832 -24.226502,-1.44728 z M 109.6526,-112.00631 c 1.00585,-1.6275 -2.30383,-6.64039 -5.99849,-9.0854 -6.970225,-4.61267 -21.92268,-4.7808 -29.948946,-0.33675 -4.120702,2.28158 -8.10369,7.60236 -7.012536,9.36788 0.798255,1.2916 42.162952,1.34386 42.959972,0.0542 z m 64.93629,76.672877 c -4.44181,-2.33753 -8.18656,-6.16597 -10.12367,-10.34994 -1.5873,-3.42841 -1.76873,-6.55121 -1.77489,-30.5501 -0.008,-29.915007 0.59135,-34.356697 6.17809,-45.810667 7.41917,-15.21079 21.51082,-27.01118 38.46477,-32.2105 5.27915,-1.61897 9.81803,-2.04005 25.95478,-2.40787 23.08249,-0.52613 27.51451,0.16776 33.43387,5.23451 11.588,9.91889 9.58048,26.75474 -4.02471,33.75292 -3.13202,1.61104 -5.71631,1.82195 -22.32446,1.82195 -20.55467,0 -24.15326,0.61045 -29.47953,5.00082 -6.83284,5.6322 -7.18338,7.27889 -7.20897,33.864787 -0.0125,13.01664 -0.41397,25.35341 -0.89211,27.41502 -1.27994,5.51888 -5.66515,11.22031 -10.51778,13.67471 -5.0792,2.56898 -13.37325,2.83366 -17.68539,0.56436 z M -256.22587,-167.66833 c -8.61936,-3.28597 -14.74565,-11.80595 -14.75399,-20.51874 -0.0196,-20.48678 24.50971,-29.97816 38.18402,-14.77493 9.16893,10.19411 6.39933,25.98527 -5.88962,33.58026 -3.97468,2.45648 -13.22187,3.35978 -17.54041,1.71341 z"/>
  </g>
</symbol></svg>