<?xml version="1.0" encoding="UTF-8" standalone="no"?>
<svg
   xmlns:dc="http://purl.org/dc/elements/1.1/"
   xmlns:cc="http://creativecommons.org/ns#"
   xmlns:rdf="http://www.w3.org/1999/02/22-rdf-syntax-ns#"
   xmlns:svg="http://www.w3.org/2000/svg"
   xmlns="http://www.w3.org/2000/svg"
   id="svg8"
   version="1.1"
   viewBox="0 0 8.46667 7.6618886"
   height="7.6618886mm"
   width="8.46667mm">
  <defs
     id="defs2" />
  <metadata
     id="metadata5">
    <rdf:RDF>
      <cc:Work
         rdf:about="">
        <dc:format>image/svg+xml</dc:format>
        <dc:type
           rdf:resource="http://purl.org/dc/dcmitype/StillImage" />
        <dc:title></dc:title>
      </cc:Work>
    </rdf:RDF>
  </metadata>
  <g
     transform="translate(-106.89935,-152.7779)"
     id="layer1">
    <path
       id="path4496"
       d="m 108.22986,160.03271 c -0.49078,-0.59136 -0.0863,-2.45893 0.63492,-2.93149 0.52499,-0.34398 0.69148,-0.33887 1.46058,0.0448 0.7692,0.38373 0.96252,0.38964 1.69758,0.0519 0.45625,-0.20961 1.02131,-0.33867 1.25569,-0.28681 0.86675,0.19179 1.38534,2.51799 0.71156,3.19178 -0.48839,0.48839 -5.34587,0.42917 -5.76033,-0.0702 z m -0.86749,-2.96966 c -0.32536,-0.085 -0.46302,-0.38592 -0.46302,-1.01203 0,-1.0665 0.11301,-1.14871 1.36318,-0.99174 1.23426,0.15498 1.564,1.14719 0.59273,1.7836 -0.63249,0.41442 -0.70731,0.42546 -1.49289,0.22017 z m 3.23875,-0.13487 c -0.79237,-0.29312 -1.04663,-0.67019 -1.05188,-1.55997 -0.008,-1.4216 1.8554,-2.08416 2.90636,-1.0332 0.62803,0.62803 0.67223,1.26552 0.14039,2.02482 -0.48169,0.6877 -1.15424,0.87932 -1.99487,0.56835 z m 2.96747,-0.046 c -0.47616,-0.23403 -0.57121,-0.44052 -0.44151,-0.95915 0.19859,-0.79411 0.0513,-0.68734 1.24675,-0.90348 l 0.99219,-0.17938 v 1.04202 c 0,1.34103 -0.51763,1.62901 -1.79743,0.99999 z m -5.8112,-2.32416 c -0.75771,-0.75771 -0.0822,-1.92799 1.01861,-1.7647 0.80332,0.11916 1.25012,0.87393 0.87344,1.47552 -0.35594,0.56845 -1.44615,0.73508 -1.89205,0.28918 z m 5.23946,-0.0762 c -0.1745,-0.21027 -0.27838,-0.65676 -0.23083,-0.99219 0.0715,-0.50414 0.247,-0.60987 1.0125,-0.60987 0.7655,0 0.94103,0.10573 1.0125,0.60987 0.16386,1.15592 -1.08508,1.84659 -1.79417,0.99219 z"
       style="fill:#7a6b62;stroke-width:0.26458335" />
  </g>
</svg>
