<?xml version="1.0" encoding="UTF-8" standalone="no"?>
<!-- Created with Inkscape (http://www.inkscape.org/) -->

<svg
   xmlns:dc="http://purl.org/dc/elements/1.1/"
   xmlns:cc="http://creativecommons.org/ns#"
   xmlns:rdf="http://www.w3.org/1999/02/22-rdf-syntax-ns#"
   xmlns:svg="http://www.w3.org/2000/svg"
   xmlns="http://www.w3.org/2000/svg"
   xmlns:sodipodi="http://sodipodi.sourceforge.net/DTD/sodipodi-0.dtd"
   xmlns:inkscape="http://www.inkscape.org/namespaces/inkscape"
   width="6.3025789mm"
   height="6.6146317mm"
   viewBox="0 0 6.3025789 6.6146317"
   version="1.1"
   id="svg5068"
   inkscape:version="0.92.1 r15371"
   sodipodi:docname="sience-icon.svg">
  <defs
     id="defs5062" />
  <sodipodi:namedview
     id="base"
     pagecolor="#ffffff"
     bordercolor="#666666"
     borderopacity="1.0"
     inkscape:pageopacity="0.0"
     inkscape:pageshadow="2"
     inkscape:zoom="2.8"
     inkscape:cx="7.8730141"
     inkscape:cy="-15.735506"
     inkscape:document-units="mm"
     inkscape:current-layer="layer1"
     showgrid="false"
     fit-margin-top="0"
     fit-margin-left="0"
     fit-margin-right="0"
     fit-margin-bottom="0"
     inkscape:window-width="1816"
     inkscape:window-height="1053"
     inkscape:window-x="95"
     inkscape:window-y="-9"
     inkscape:window-maximized="1" />
  <metadata
     id="metadata5065">
    <rdf:RDF>
      <cc:Work
         rdf:about="">
        <dc:format>image/svg+xml</dc:format>
        <dc:type
           rdf:resource="http://purl.org/dc/dcmitype/StillImage" />
        <dc:title></dc:title>
      </cc:Work>
    </rdf:RDF>
  </metadata>
  <g
     inkscape:label="Layer 1"
     inkscape:groupmode="layer"
     id="layer1"
     transform="translate(-162.18592,-218.63282)">
    <path
       style="fill:#7a6b62;stroke-width:0.26458335"
       d="m 162.18592,224.78156 c 0,-0.25621 0.53578,-1.26451 1.19063,-2.24065 1.12964,-1.6839 1.59419,-3.37892 0.92604,-3.37892 -0.14552,0 -0.26458,-0.11906 -0.26458,-0.26458 0,-0.14552 0.59531,-0.26459 1.32291,-0.26459 0.72761,0 1.32292,0.11907 1.32292,0.26459 0,0.14552 -0.11906,0.26458 -0.26458,0.26458 -0.6132,0 -0.18357,1.54077 0.92604,3.32107 1.75065,2.80881 1.78257,2.76435 -1.98438,2.76435 -2.85475,0 -3.175,-0.047 -3.175,-0.46585 z m 4.49204,-1.98155 c -0.003,-0.1819 -0.23872,-0.62838 -0.52329,-0.99219 -0.2999,-0.3834 -0.51987,-1.07854 -0.52328,-1.65364 -0.003,-0.54571 -0.12495,-0.99219 -0.27047,-0.99219 -0.14552,0 -0.26536,0.44648 -0.26632,0.99219 -9.6e-4,0.5457 -0.2383,1.34937 -0.52743,1.78594 -0.28912,0.43656 -0.52646,0.88304 -0.52742,0.99218 -9.6e-4,0.10914 0.59357,0.19844 1.32117,0.19844 0.88509,0 1.32097,-0.10946 1.31704,-0.33073 z"
       id="path5624"
       inkscape:connector-curvature="0" />
  </g>
</svg>
