<svg xmlns="http://www.w3.org/2000/svg" width="493.576" height="126.473"><path fill="#DC3333" d="M22.48 119.322l5.005-41.65h25.486l-4.201 34.969 22.888-5.816 11.629-95.284H61.3l-5.831 47.974H29.984l5.496-47.974H13.826L0 124.811h.875zm83.926-21.326c-.159-5.967.845-15.262 2.534-29.652 3.997-35.648 4.997-40.313 16.324-40.313 11.824 0 11.992 4.663 7.827 40.313-1.208 10.286-2.161 17.959-3.194 23.683l22.502-5.719c.865-5.306 1.681-11.249 2.514-17.964 5.831-48.638-.166-58.469-26.816-58.469-30.15 0-35.147 9.831-40.979 58.469-1.883 15.169-2.566 26.542-1.803 35.012l21.091-5.36zM91.51 120.243c4.606 4.718 11.804 6.23 22.095 6.23 19.803 0 28.801-4.197 34.333-20.571L91.51 120.243zm86.057-40.334l22.327-5.67 5.326-44.874h20.488l2.334-17.824h-62.134l-2.498 17.824h20.155zm-2.26 19.039l-3.069 25.863h21.656l3.742-31.538z"/><path d="M251.758 61.057l3.769-32.522s5.662-.5 9.828-.5c10.018 0 11.426 4.075 8.982 27.286l22.336-5.676c1.916-30.129-4.637-39.77-30.82-39.77-15.822 0-30.148 1.666-30.148 1.666l-6.667 55.291 22.72-5.775zm20.358 13.29c-3.593 29.127-5.135 33.973-15.924 33.973-4.332 0-7.496-.332-9.828-.664l3.194-27.572-22.82 5.799-4.694 38.931s14.659 1.665 29.485 1.665c32.591 0 37.627-11.292 43.278-57.896l-22.691 5.764zm58.051-33.213c2.294-11.126 5.295-13.104 12.644-13.104 6.102 0 9.095 1.257 9.996 7.351l21.005-5.339c-2.351-16.041-10.938-20.167-28.166-20.167-25.039 0-32.729 6.806-37.959 36.972l22.48-5.713zm22.059 12.855c-.406 4.117-.944 8.867-1.585 14.354-4.165 35.478-5.332 39.976-16.994 39.976-11.324 0-11.324-4.498-7.161-39.976.324-2.886.629-5.552.918-8.047l-22.45 5.707c-.097.775-.191 1.54-.289 2.34-5.995 48.307.166 58.132 26.487 58.132 30.316 0 35.313-9.825 41.311-58.132.905-7.555 1.523-14.17 1.823-19.96l-22.06 5.606zm47.394-12.042l-9.836 82.864h21.655l10.511-88.539zm45.932-30.136l.04-.27h-62.134l-2.334 16.641z" fill="#FFF"/><circle fill="#DC3333" cx="482.037" cy="11.541" r="11.539"/></svg>