<svg xmlns="http://www.w3.org/2000/svg" width="493.576" height="126.473"><path d="M13.825 11.54H35.48l-5.497 47.973h25.486l5.828-47.973h21.988L69.461 124.811H47.307L52.97 77.67H27.484l-5.663 47.141H0L13.825 11.54zm73.293 56.799c5.83-48.642 10.827-58.467 40.979-58.467 26.649 0 32.646 9.825 26.816 58.467-5.997 48.307-10.994 58.134-41.31 58.134-26.319 0-32.481-9.827-26.485-58.134zm45.973 0c4.164-35.646 3.998-40.313-7.827-40.313-11.327 0-12.326 4.665-16.324 40.313-4.165 35.479-4.165 39.979 7.163 39.979 11.658-.001 12.824-4.499 16.988-39.979zm50.476-38.976h-20.156l2.499-17.821h62.132l-2.332 17.821h-20.487l-11.327 95.446H172.24l11.327-95.446zm52.137-17.822s14.324-1.666 30.148-1.666c30.979 0 34.479 13.492 28.981 58.467-5.663 46.807-10.661 58.134-43.308 58.134-14.825 0-29.483-1.666-29.483-1.666l13.662-113.269zm20.487 96.779c11.494 0 12.493-5.497 16.657-39.979 4.164-34.814 4.164-40.313-7.496-40.313-4.164 0-9.827.5-9.827.5l-9.161 79.123c2.331.335 5.497.669 9.827.669zm48.437-39.978c5.834-48.64 10.836-58.467 41.008-58.467 26.67 0 32.672 9.827 26.838 58.467-6.002 48.307-11.002 58.134-41.34 58.134-26.342 0-32.506-9.828-26.506-58.134zm46.007 0c4.168-35.646 4-40.313-7.834-40.313-11.336 0-12.336 4.664-16.338 40.313-4.168 35.479-4.168 39.978 7.168 39.978 11.671-.001 12.837-4.498 17.004-39.978zm50.44-38.979h-20.164l2.499-17.821h62.159l-2.332 17.821h-20.498l-11.332 95.447h-21.664l11.332-95.447z" fill="#231F20"/></svg>