<svg xmlns="http://www.w3.org/2000/svg" viewBox="0 0 210 297" height="297mm" width="210mm"><path d="M93.994 235.633c-.027-.136-.117-.284-.2-.328-.244-.13-1.96-.388-3.79-.568-2.11-.207-2.445-.26-4.086-.655-1.309-.314-1.956-.44-3.548-.694-.468-.075-1.435-.316-2.147-.535-.713-.22-1.616-.458-2.008-.53-1.09-.2-1.622-.348-2.47-.688-.428-.172-1.304-.428-1.948-.569-.85-.186-1.348-.346-1.82-.582-.364-.184-1.12-.452-1.725-.613-.733-.195-1.29-.403-1.74-.649a6.855 6.855 0 0 0-1.351-.535c-.378-.096-1.074-.367-1.545-.604a14.925 14.925 0 0 0-1.634-.687c-.427-.141-1.015-.404-1.308-.584a7.488 7.488 0 0 0-1.282-.577c-.413-.137-.983-.4-1.266-.584a8.928 8.928 0 0 0-1.25-.631 8.107 8.107 0 0 1-1.226-.627 7.51 7.51 0 0 0-1.165-.598c-.371-.148-.812-.38-.98-.514-.169-.134-.674-.429-1.123-.654-.45-.226-.952-.517-1.117-.647-.165-.13-.588-.367-.94-.527a6.516 6.516 0 0 1-1.089-.64 6.462 6.462 0 0 0-.898-.575 6.692 6.692 0 0 1-.9-.569 9.252 9.252 0 0 0-1.046-.665 7.23 7.23 0 0 1-.977-.633 6.498 6.498 0 0 0-.75-.525 6.594 6.594 0 0 1-.78-.555 9.85 9.85 0 0 0-.98-.69 9.784 9.784 0 0 1-.94-.655 9.788 9.788 0 0 0-.82-.593c-.25-.16-.503-.349-.564-.422-.061-.073-.455-.399-.876-.723-3.026-2.332-4.547-3.616-7.092-5.981-2.331-2.168-6.672-6.645-8-8.253l-1.174-1.415a54.256 54.256 0 0 1-1.123-1.4 61.8 61.8 0 0 0-1.655-2.083 15.44 15.44 0 0 1-.572-.723c-.124-.17-.39-.533-.592-.805-.202-.272-.551-.78-.776-1.127a13.938 13.938 0 0 0-.703-.992 10.444 10.444 0 0 1-.604-.851c-.17-.27-.427-.637-.57-.817a7.502 7.502 0 0 1-.568-.895 8.99 8.99 0 0 0-.659-1.021 6.098 6.098 0 0 1-.534-.821 10.3 10.3 0 0 0-.608-.98 9.474 9.474 0 0 1-.683-1.173 5.326 5.326 0 0 0-.504-.87c-.135-.17-.414-.651-.62-1.068-.206-.416-.496-.916-.644-1.11-.148-.195-.39-.657-.539-1.028a8.574 8.574 0 0 0-.623-1.223 7.733 7.733 0 0 1-.594-1.174 7.372 7.372 0 0 0-.576-1.139c-.184-.283-.464-.876-.621-1.318a9.113 9.113 0 0 0-.609-1.341c-.177-.295-.446-.902-.597-1.348-.15-.447-.46-1.18-.686-1.629-.226-.45-.472-1.074-.547-1.389-.074-.314-.335-.976-.579-1.47a7.951 7.951 0 0 1-.65-1.785 10.555 10.555 0 0 0-.571-1.679c-.232-.506-.467-1.222-.647-1.974-.155-.65-.43-1.548-.61-1.997a12.034 12.034 0 0 1-.542-1.906 28.684 28.684 0 0 0-.61-2.37c-.216-.704-.455-1.666-.53-2.138-.255-1.604-.38-2.245-.667-3.431-.4-1.646-.496-2.242-.684-4.208-.167-1.749-.449-3.651-.577-3.89-.039-.073-.182-.155-.318-.182l-.249-.05V121.25l.249-.05c.136-.026.28-.108.318-.181.129-.24.41-2.145.579-3.91.182-1.916.282-2.52.705-4.27.158-.651.395-1.846.527-2.655a22.53 22.53 0 0 1 .647-2.819 30.89 30.89 0 0 0 .617-2.41c.123-.625.343-1.393.533-1.866.178-.442.453-1.343.61-2.002.188-.785.41-1.465.648-1.973.215-.462.45-1.157.58-1.716.16-.68.33-1.148.615-1.693a9.38 9.38 0 0 0 .605-1.5c.115-.41.387-1.101.603-1.534.216-.434.495-1.1.62-1.482a9.222 9.222 0 0 1 .618-1.39 9.47 9.47 0 0 0 .612-1.347c.12-.36.383-.918.583-1.24.2-.324.47-.868.602-1.21a6.7 6.7 0 0 1 .581-1.125c.188-.276.463-.81.61-1.187.149-.377.398-.864.556-1.083.158-.22.458-.74.667-1.158.21-.418.487-.895.618-1.06.131-.167.363-.573.516-.905.153-.331.444-.827.647-1.102a8.11 8.11 0 0 0 .585-.934c.119-.24.375-.639.568-.888.194-.25.49-.709.659-1.021.169-.313.424-.715.568-.895.143-.18.4-.547.57-.817.17-.27.441-.653.604-.85.162-.2.478-.645.703-.992.399-.616.96-1.396 1.489-2.07l.77-.99c.278-.36.638-.803.798-.987.161-.183.467-.569.68-.857.213-.29.682-.875 1.043-1.302.36-.426.878-1.051 1.151-1.388 1.656-2.044 7.363-7.781 9.997-10.05.443-.382 1.016-.878 1.271-1.103.818-.717 1.77-1.493 2.219-1.807.24-.167.582-.44.762-.605.18-.166.603-.51.94-.763.337-.254.764-.58.95-.727a27.811 27.811 0 0 1 2.064-1.49c.35-.225.797-.541.996-.703.198-.162.581-.434.85-.604.27-.17.638-.427.818-.571.18-.144.596-.405.924-.58.33-.176.77-.461.98-.634a5.58 5.58 0 0 1 .872-.563 6.97 6.97 0 0 0 .941-.599 6.51 6.51 0 0 1 1.09-.64c.351-.16.775-.398.941-.53.166-.131.644-.406 1.06-.611.418-.205.937-.502 1.154-.662.217-.16.708-.416 1.09-.57a7.749 7.749 0 0 0 1.225-.643c.292-.2.728-.428.969-.507.55-.18.973-.392 1.486-.745.22-.152.663-.354.984-.45a6.446 6.446 0 0 0 1.685-.774c.162-.107.725-.34 1.25-.516.527-.177 1.17-.45 1.43-.608.267-.162.86-.398 1.367-.543a9.35 9.35 0 0 0 1.571-.623c.483-.262.984-.444 1.757-.639.626-.158 1.367-.411 1.76-.602.427-.207 1.037-.41 1.635-.546.89-.2 1.303-.331 2.617-.827.286-.108 1.003-.292 1.593-.408a28.59 28.59 0 0 0 2.346-.603c.7-.216 1.656-.453 2.124-.528 1.614-.257 2.244-.378 3.18-.612 1.5-.375 2.555-.555 4.086-.696 1.71-.157 3.558-.415 3.977-.554.238-.079.317-.157.37-.366l.07-.265h22.049l.069.265c.054.21.133.287.371.366.402.133 2.286.402 3.61.514 1.608.137 2.645.302 4.084.65 1.307.317 1.946.443 3.549.698.468.075 1.424.312 2.124.527.7.216 1.755.487 2.346.604.59.116 1.307.3 1.593.408 1.314.496 1.726.626 2.617.827.598.135 1.208.339 1.634.546.394.19 1.135.444 1.76.602.78.197 1.27.376 1.757.641.372.202.97.446 1.33.541.878.233 1.064.306 1.612.631.258.153.9.423 1.426.6.526.177 1.088.408 1.249.515.479.317.914.517 1.614.744.365.118.896.366 1.18.55.284.185.853.471 1.264.636.41.166.928.434 1.149.596.22.162.725.425 1.12.584.395.16.896.42 1.113.58.218.16.737.457 1.154.662.417.204.894.48 1.06.611.167.132.59.37.942.53a6.5 6.5 0 0 1 1.09.64c.247.193.67.462.94.599.27.136.663.39.873.563.21.173.65.458.98.633.328.175.744.437.924.58.18.144.587.429.906.633a9.3 9.3 0 0 1 .858.614c.153.134.536.4.85.591.315.192.738.486.94.654a9.8 9.8 0 0 0 .82.593c.25.159.507.354.572.433.066.08.395.346.732.592.337.246.742.569.899.717.157.149.53.447.83.663.762.549 1.899 1.46 2.435 1.95.249.228.56.496.693.596.428.324 3.713 3.442 5.251 4.983 1.81 1.813 4.383 4.55 5.118 5.445.296.36.823.996 1.173 1.415.35.418.856 1.048 1.126 1.4a65.41 65.41 0 0 0 1.653 2.083c.19.227.532.68.758 1.005.227.326.517.712.645.858.127.146.388.523.58.838.191.314.457.697.591.85.134.153.41.539.614.858.204.318.488.726.631.906.144.18.399.582.568.895.169.312.465.772.659 1.021.193.25.449.649.568.888.12.238.382.659.585.934.202.275.493.77.646 1.102.153.331.39.744.527.916.137.173.417.655.623 1.072.206.416.495.916.644 1.11.148.195.39.657.538 1.028.148.371.428.921.623 1.223.195.302.463.83.595 1.174.133.343.392.856.576 1.139.184.283.464.876.62 1.318.158.443.432 1.046.61 1.341.177.295.446.902.597 1.348.15.447.46 1.18.686 1.629.226.449.472 1.074.546 1.389.075.314.335.976.58 1.47a7.95 7.95 0 0 1 .65 1.784c.116.495.368 1.237.571 1.68.23.5.47 1.232.65 1.974.156.649.432 1.55.611 2.003.193.485.416 1.275.543 1.92.119.604.376 1.604.571 2.225.36 1.142.476 1.665.768 3.468.09.551.308 1.599.485 2.329.425 1.754.465 2 .665 4.105.175 1.854.425 3.532.565 3.792.043.082.19.17.327.198l.248.05v22.067l-.248.05c-.136.027-.28.109-.318.181-.13.244-.417 2.16-.581 3.89-.195 2.044-.237 2.3-.66 4.045a38.09 38.09 0 0 0-.486 2.329c-.288 1.778-.406 2.307-.765 3.447-.195.62-.452 1.62-.57 2.222a13.16 13.16 0 0 1-.57 2.002 18.443 18.443 0 0 0-.617 2.035c-.175.744-.386 1.383-.62 1.879a9.276 9.276 0 0 0-.566 1.65 8.179 8.179 0 0 1-.65 1.798c-.241.494-.502 1.166-.58 1.492-.077.327-.325.952-.551 1.39a13.95 13.95 0 0 0-.685 1.606c-.15.446-.42 1.053-.597 1.348a9.113 9.113 0 0 0-.608 1.34c-.157.443-.433 1.031-.613 1.308a7.45 7.45 0 0 0-.574 1.149 7.38 7.38 0 0 1-.604 1.185 8.016 8.016 0 0 0-.625 1.213c-.147.37-.395.842-.552 1.047a6.45 6.45 0 0 0-.571 1 6.989 6.989 0 0 1-.6 1.045c-.17.23-.471.744-.668 1.144-.196.4-.495.907-.665 1.128-.17.22-.401.588-.515.817a6.497 6.497 0 0 1-.553.865c-.19.247-.49.72-.665 1.05-.177.33-.435.734-.575.898-.139.164-.42.56-.624.878-.204.319-.48.705-.614.858a7.88 7.88 0 0 0-.591.85 7.883 7.883 0 0 1-.593.852 7.204 7.204 0 0 0-.531.736c-.158.25-.39.565-.517.7-.237.252-1.021 1.243-1.842 2.328-.254.337-.568.726-.698.864s-.409.474-.621.747c-1.203 1.544-3.583 4.142-6.198 6.764-1.575 1.579-4.867 4.704-5.304 5.036-.133.1-.444.368-.693.596-.473.433-1.44 1.216-2.53 2.048a60.874 60.874 0 0 0-2.063 1.634c-.27.224-.679.533-.91.685-.23.152-.583.414-.785.581a9.803 9.803 0 0 1-.94.654 9.505 9.505 0 0 0-.98.695 4.68 4.68 0 0 1-.668.478c-.142.072-.491.31-.776.527-.284.217-.774.537-1.089.71-.314.174-.774.47-1.021.66-.247.19-.652.445-.899.568a6.461 6.461 0 0 0-.899.575 6.517 6.517 0 0 1-1.089.64c-.352.16-.774.397-.94.527-.164.13-.667.421-1.116.647-.45.225-.955.52-1.123.654-.168.134-.61.365-.98.513a7.51 7.51 0 0 0-1.165.6c-.27.18-.821.463-1.226.626a8.913 8.913 0 0 0-1.248.63c-.283.183-.85.445-1.26.583a7.92 7.92 0 0 0-1.303.587 8.217 8.217 0 0 1-1.356.603c-.438.146-1.164.451-1.614.678-.45.226-1.126.49-1.504.586a6.854 6.854 0 0 0-1.35.535c-.452.246-1.008.453-1.741.649-.606.161-1.361.429-1.726.613-.471.236-.97.396-1.82.582-.643.141-1.52.397-1.947.569-.848.34-1.38.488-2.47.688-.392.072-1.295.31-2.008.53-.712.22-1.679.46-2.147.534-1.592.254-2.24.38-3.549.695-1.64.394-1.975.448-4.085.655-1.83.18-3.546.437-3.791.568-.083.044-.172.192-.2.328l-.049.248H94.044zm16.476-36.608c1.19-.13 3.047-.328 4.126-.44 2.265-.236 2.844-.338 4.411-.778a23.4 23.4 0 0 1 2.172-.485c1.073-.17 1.48-.283 2.771-.765.427-.16 1.207-.387 1.734-.506a7.46 7.46 0 0 0 1.68-.571 8.71 8.71 0 0 1 1.396-.528c.834-.213 1.348-.414 1.86-.726.219-.132.765-.36 1.215-.504.449-.145 1.048-.41 1.33-.592.283-.18.88-.468 1.329-.638.448-.17.995-.44 1.215-.602.22-.162.67-.403 1-.537.707-.287 1.005-.446 1.328-.713.13-.108.556-.356.946-.552.39-.196.823-.452.962-.569.138-.116.558-.38.932-.586.374-.206.83-.497 1.015-.647.184-.15.57-.41.858-.577.287-.167.707-.458.931-.646.225-.188.618-.474.874-.636a7.26 7.26 0 0 0 .776-.57 9.1 9.1 0 0 1 .801-.606c.27-.182.674-.493.899-.691.225-.2.593-.495.818-.658.226-.162.483-.377.572-.477.09-.1.474-.443.856-.763.926-.775 4.564-4.37 5.638-5.57.472-.526 1.08-1.2 1.35-1.497.271-.297.582-.669.69-.826.11-.158.37-.488.579-.736.209-.247.502-.633.65-.857.15-.225.39-.543.536-.707a7.57 7.57 0 0 0 .569-.776c.168-.263.446-.648.62-.855a9.41 9.41 0 0 0 .654-.94c.188-.31.459-.71.603-.89.144-.179.403-.583.575-.898.173-.314.45-.756.616-.98.166-.225.454-.713.64-1.084.185-.372.458-.835.606-1.029.148-.194.375-.607.504-.918.13-.31.41-.835.623-1.166.213-.33.488-.882.61-1.225.122-.343.398-.918.612-1.278.215-.36.472-.93.571-1.266.1-.337.377-1.002.617-1.478.246-.49.528-1.211.648-1.662.116-.438.372-1.125.568-1.528.243-.5.439-1.085.618-1.851.144-.616.4-1.47.569-1.898.386-.978.435-1.164.685-2.613.112-.651.333-1.62.49-2.153.33-1.119.577-2.518.7-3.974.048-.562.14-1.426.207-1.92.447-3.36.55-4.833.55-7.885 0-3.051-.103-4.524-.55-7.884a48.823 48.823 0 0 1-.207-1.92c-.123-1.456-.37-2.856-.7-3.974a23.088 23.088 0 0 1-.49-2.153c-.25-1.45-.299-1.635-.685-2.614-.169-.427-.425-1.28-.57-1.897-.178-.766-.374-1.351-.617-1.852a10.231 10.231 0 0 1-.568-1.528c-.12-.45-.402-1.172-.648-1.661-.24-.476-.518-1.141-.618-1.478-.1-.337-.342-.87-.537-1.186a8.321 8.321 0 0 1-.608-1.266 7.047 7.047 0 0 0-.611-1.233 8.278 8.278 0 0 1-.617-1.16c-.142-.342-.38-.78-.529-.975-.148-.194-.425-.665-.615-1.046a8.98 8.98 0 0 0-.65-1.1 11.372 11.372 0 0 1-.63-.98 15.32 15.32 0 0 0-.687-1.08c-.2-.28-.501-.72-.67-.98-.17-.26-.5-.734-.736-1.052-.63-.854-.952-1.29-1.408-1.912-.927-1.263-2.103-2.655-3.686-4.365-1.274-1.375-4.4-4.442-5.276-5.176-.373-.313-.752-.65-.84-.75-.09-.1-.347-.315-.573-.477a12.823 12.823 0 0 1-.818-.658 10.48 10.48 0 0 0-.899-.692 13.84 13.84 0 0 1-.898-.668 9.56 9.56 0 0 0-.858-.618 6.693 6.693 0 0 1-.777-.575 6.186 6.186 0 0 0-.85-.598 8.003 8.003 0 0 1-.857-.577 6.475 6.475 0 0 0-.902-.57 8.182 8.182 0 0 1-.98-.61 8.216 8.216 0 0 0-1.075-.646c-.364-.182-.768-.419-.899-.527-.322-.266-.62-.426-1.327-.712a5.606 5.606 0 0 1-1-.537c-.22-.161-.767-.433-1.215-.603-.448-.17-1.046-.457-1.329-.637-.282-.181-.881-.447-1.33-.592-.45-.145-.996-.372-1.214-.505-.513-.312-1.027-.512-1.861-.725a8.71 8.71 0 0 1-1.396-.528 7.46 7.46 0 0 0-1.68-.572 16.12 16.12 0 0 1-1.734-.505c-1.298-.485-1.705-.597-2.814-.773a22.501 22.501 0 0 1-2.17-.483c-1.451-.413-2.123-.53-4.37-.768-1.034-.11-2.909-.315-4.167-.456-2.166-.245-2.45-.258-5.352-.258-2.9 0-3.185.013-5.351.258-1.258.141-3.133.347-4.167.456-2.248.237-2.92.355-4.37.768-.607.173-1.6.393-2.207.489-.606.096-1.397.281-1.756.41l-1.226.44c-.314.112-1.003.302-1.53.42a7.552 7.552 0 0 0-1.68.574 8.709 8.709 0 0 1-1.395.528c-.83.212-1.375.424-1.828.71-.192.121-.753.356-1.247.521-.504.17-1.125.448-1.414.635-.284.183-.844.45-1.246.594-.402.144-.956.42-1.233.615a5.842 5.842 0 0 1-1.083.573c-.319.12-.8.373-1.07.563-.27.19-.766.483-1.103.651a7.78 7.78 0 0 0-1.026.622 8.189 8.189 0 0 1-.98.61 6.45 6.45 0 0 0-.894.563c-.18.147-.584.424-.899.614-.314.19-.682.45-.817.575a6.715 6.715 0 0 1-.753.554c-.28.18-.721.494-.98.7-.26.205-.767.596-1.126.87-1.093.83-1.747 1.357-2.2 1.771-.237.217-.85.77-1.362 1.23-.513.46-1.851 1.765-2.975 2.9-1.845 1.865-2.532 2.611-3.616 3.93l-.822.995c-.261.314-.63.792-.819 1.062-.189.27-.462.64-.607.824-.31.393-1.02 1.383-1.506 2.1-.189.28-.511.748-.716 1.043-.205.294-.533.817-.73 1.162a7.953 7.953 0 0 1-.575.887c-.121.143-.387.593-.591 1-.205.407-.493.899-.642 1.094-.149.194-.387.633-.529.975-.142.341-.42.863-.617 1.16a6.862 6.862 0 0 0-.602 1.218 8.26 8.26 0 0 1-.606 1.267c-.199.323-.46.895-.58 1.272-.12.376-.398 1.038-.619 1.47a9.549 9.549 0 0 0-.614 1.59 10.227 10.227 0 0 1-.569 1.535c-.244.5-.439 1.086-.618 1.852a16.79 16.79 0 0 1-.572 1.905c-.374.948-.51 1.466-.69 2.646-.075.495-.28 1.396-.454 2.004-.374 1.304-.599 2.565-.728 4.083-.052.607-.144 1.47-.206 1.92-.77 5.622-.77 9.959 0 15.769.066.494.16 1.376.21 1.96.126 1.481.353 2.75.724 4.043.174.607.379 1.509.454 2.003.18 1.181.316 1.7.69 2.647.17.431.428 1.289.572 1.905.179.766.374 1.35.618 1.851.196.403.452 1.094.57 1.536.118.449.39 1.15.613 1.59.221.432.5 1.093.62 1.47.12.376.376.942.57 1.258.194.315.466.885.605 1.266.14.381.415.936.612 1.233.197.296.475.818.617 1.16.142.342.38.78.529.975.148.194.425.665.615 1.045.19.38.49.885.667 1.122.176.236.457.677.625.98.167.303.461.772.654 1.041.193.27.506.719.694.998a47.33 47.33 0 0 0 1.505 2.1c.145.183.418.554.606.824.393.562 1.13 1.47 2.599 3.204.789.931 5.47 5.612 6.401 6.4 2.21 1.87 2.72 2.286 3.18 2.594.238.158.57.41.74.562.171.152.565.44.876.639.312.2.706.487.876.638.17.152.544.412.832.58.288.166.674.425.858.575.184.15.64.44 1.015.647.374.206.794.47.932.586.139.117.571.373.961.569.39.196.816.443.947.549.376.305.606.43 1.226.665.319.121.806.38 1.083.574.277.195.831.472 1.233.616a7.33 7.33 0 0 1 1.246.594c.29.187.91.466 1.414.634.495.166 1.055.4 1.247.521.453.287.997.499 1.828.71.37.095.998.333 1.395.529a7.46 7.46 0 0 0 1.68.571c.527.119 1.307.346 1.734.506 1.291.482 1.7.595 2.771.765.566.09 1.543.308 2.172.485 1.569.44 2.148.542 4.412.777 1.079.112 2.788.3 3.8.416 3.643.423 7.399.431 11.11.025z" fill="#2429fe"/></svg>