<svg xmlns="http://www.w3.org/2000/svg" viewBox="0 0 210 297" height="297mm" width="210mm"><path d="M30.653 159.204c-.959-.111-1.933-.349-3.765-.916-.59-.183-1.276-.37-1.527-.416-.487-.09-1.416-.487-1.888-.808a12.76 12.76 0 0 1-.914-.754c-.87-.775-3.924-3.888-4.228-4.309a4.646 4.646 0 0 0-.3-.387c-.027-.022-.282-.433-.566-.914-.376-.636-.645-.985-.99-1.286-.931-.809-1.46-1.394-1.88-2.078-.595-.972-1.045-1.44-1.98-2.058-.445-.295-.846-.55-.89-.567-.097-.037-1.125-.854-1.406-1.116-.285-.267-1.112-.72-1.576-.865-.216-.067-.87-.21-1.452-.316-.582-.106-1.179-.254-1.326-.33-.73-.373-1.786-1.45-2.433-2.48-.325-.517-.447-1.399-.277-2.015.33-1.203 1.635-2.826 2.683-3.336.43-.21.595-.24 1.527-.286 1.206-.06 3.486.069 4.417.248 1.386.266 1.99.535 3.058 1.362.957.741 1.48 1.08 1.97 1.279.198.08.429.183.512.226 1.026.54 1.239.714 2.037 1.673.275.331.9.978 1.388 1.436.899.845 1.399 1.505 2.047 2.703.447.826.96 1.52 1.693 2.29a25.232 25.232 0 0 1 1.446 1.728c.832 1.095 1.181 1.465 1.847 1.96 1.235.918 2.295 1.254 3.886 1.231.915-.013 1.911-.159 2.539-.372.955-.324 1.277-.548 2.496-1.734l1.493-1.45c.393-.381 1.094-1.282 1.561-2.006.23-.356.773-.981 1.326-1.527.64-.63 1.126-1.203 1.53-1.8.326-.482.823-1.097 1.106-1.366 1.07-1.022 1.351-1.307 1.624-1.644.334-.412 1.387-1.281 1.682-1.387.505-.182 1.48-.817 2.498-1.625.202-.16 1.335-.683 1.703-.784 1.4-.388 4.176-.556 6.755-.41 1.92.11 2.572.217 3.529.586.914.353 1.232.548 2.48 1.524.154.12.483.326.73.455.878.461 1.415.878 2.62 2.033 1.185 1.134 1.85 1.895 2.456 2.81.378.57.825 1.054 1.214 1.316.17.114.442.362.604.551.324.378.976 1.304.976 1.386 0 .193.78 1.12 1.66 1.972a35.47 35.47 0 0 1 1.583 1.627c.629.719 1.074 1.048 1.83 1.356 1.151.469 3.064.625 4.408.362 1.451-.285 2.791-1.18 3.831-2.56.342-.454 1.05-1.252 1.571-1.773.982-.982 1.294-1.389 1.95-2.549.543-.959.908-1.432 1.928-2.492.49-.509 1.13-1.235 1.425-1.613.295-.379.675-.806.844-.949.42-.355 1.325-.936 1.956-1.256.49-.248.716-.405 2.116-1.472.568-.433.815-.559 1.602-.818 1.49-.49 4.77-.694 7.775-.484 2.76.192 3.395.409 4.998 1.711.617.502 1.217.904 1.757 1.178 1.187.605 1.818 1.113 2.554 2.059.102.131.682.745 1.288 1.364 1.131 1.156 1.086 1.093 2.39 3.33.25.428.671.965 1.147 1.46.413.431 1.06 1.193 1.438 1.694.98 1.296 1.052 1.378 1.61 1.826.972.78 1.792 1.149 2.988 1.343 1.595.259 3.31.031 4.625-.614.378-.185.823-.57 2.057-1.784 1.526-1.502 2.141-2.203 2.592-2.955.301-.503.391-.64.575-.878.22-.281.821-.868 1.262-1.23.203-.167.644-.717.998-1.245.503-.752.915-1.229 2.002-2.314 1.406-1.405 2.04-1.896 3.042-2.358.304-.14.81-.448 1.126-.683 2.237-1.675 3.523-1.973 8.087-1.875 2.193.046 3.211.15 3.955.403.774.264 1.6.702 2.396 1.273.463.331 1.023.692 1.244.801l.844.416c.674.33 1.278.82 2.537 2.054.876.861 1.301 1.353 1.792 2.076.669.986.984 1.352 1.458 1.696.434.314.845.769 1.286 1.421.22.328.402.618.402.645 0 .046.22.354.6.84.087.112.611.656 1.165 1.208.554.553 1.269 1.28 1.588 1.616.598.628 1.198 1.015 1.928 1.242.507.159 1.938.354 2.595.354.54 0 1.649-.163 2.21-.325.862-.248 2.163-1.117 2.717-1.814 1.392-1.753 1.78-2.212 2.226-2.638.666-.634.986-1.073 1.73-2.373.742-1.296.712-1.257 1.794-2.371a45.625 45.625 0 0 0 1.556-1.698c.384-.447.836-.92 1.004-1.052.327-.255 1.28-.827 1.378-.827.193 0 1.259-.658 2.114-1.304 1.248-.943 1.652-1.123 3.302-1.467.859-.18 3.004-.31 4.224-.256 1.007.044 1.096.061 1.567.31.58.305 1.568 1.258 2.067 1.993.48.708.657 1.268.656 2.082-.001.588-.033.737-.246 1.165-.134.27-.326.587-.427.705-.1.117-.322.38-.491.585-.37.447-1.329 1.184-1.826 1.403-.197.087-.611.2-.92.252-1.692.28-2.427.588-3.529 1.473a19.729 19.729 0 0 1-2.262 1.601c-.615.368-1.087.837-1.533 1.526-.194.298-.352.565-.352.59 0 .105-1.045 1.38-1.23 1.5-.519.34-.974.904-1.867 2.31-.664 1.044-.998 1.41-3.334 3.656-2.147 2.064-2.758 2.455-4.58 2.932-.376.098-1.027.287-1.447.419-2.71.853-4.463 1.043-6.524.708-1.188-.194-1.589-.295-3.16-.803a37.55 37.55 0 0 0-1.887-.558c-1.206-.3-1.9-.7-2.922-1.686-.494-.476-1.072-.967-1.285-1.09-.583-.338-1.187-.929-1.664-1.627-.235-.344-.848-1.06-1.362-1.59-.886-.914-1.135-1.242-1.892-2.49-.389-.643-.828-1.25-1.184-1.64-.541-.593-1.64-1.84-1.984-2.251-.305-.365-1.37-1.295-1.483-1.295-.02 0-.276-.16-.567-.354-1.07-.718-1.721-.946-2.832-.994-1.345-.057-2.059.194-3.805 1.337-.702.46-1.499 1.211-2.79 2.632-1.03 1.133-1.286 1.47-1.908 2.524-.815 1.38-.956 1.57-1.892 2.53-.473.487-1.034 1.12-1.246 1.407-.63.854-1.241 1.437-1.808 1.728-.533.273-1.024.66-1.784 1.404-.605.593-2.016 1.273-3.16 1.523-.22.048-.908.233-1.526.41-2.119.61-3.017.751-4.702.743-1.684-.008-1.92-.046-4.38-.702-.885-.235-1.753-.453-1.93-.483-.454-.077-1.293-.421-1.78-.73-.626-.399-2.457-2.067-4.364-3.98-.554-.554-1.001-1.095-1.29-1.557-1.111-1.78-1.324-2.042-2.175-2.69-.29-.221-.938-1.077-1.402-1.854-.39-.65-.951-1.215-1.709-1.717a9.058 9.058 0 0 1-.683-.484 2.7 2.7 0 0 0-.282-.223c-.1-.07-.44-.357-.754-.64-1.25-1.124-2.04-1.476-3.283-1.463-1.209.012-1.988.37-3.211 1.478-.828.75-1.674 1.423-2.013 1.6-.433.225-.908.676-1.274 1.21-.183.267-.333.505-.333.53 0 .025-.198.34-.439.701-.427.639-.64.882-1.483 1.69-.225.216-.689.826-1.032 1.357-.874 1.355-1.364 1.945-2.35 2.831a62.45 62.45 0 0 0-1.358 1.277 36.768 36.768 0 0 1-1.48 1.352c-.69.583-1.822 1.197-2.508 1.359-.22.052-.89.237-1.486.41-2.744.8-3.104.868-4.864.925-1.075.035-1.547.015-2.21-.094-.779-.127-2.273-.48-2.422-.573-.083-.051-1.447-.472-2.32-.715-1.418-.396-1.92-.7-3.134-1.902-.464-.46-1.01-.92-1.211-1.02-.437-.219-1.176-.915-1.533-1.443-.405-.6-1.365-1.775-1.95-2.387-.524-.548-1.356-1.699-1.612-2.23-.524-1.086-3.438-4.211-4.73-5.072-1.46-.972-2.625-1.286-3.969-1.07-.894.144-1.536.434-2.727 1.233-1.19.797-1.55 1.121-2.508 2.266a44.9 44.9 0 0 1-1.044 1.212c-.498.532-1.274 1.569-1.626 2.174-.547.939-1.224 1.788-1.871 2.344-.34.293-.81.815-1.107 1.23-.634.89-1.193 1.466-1.795 1.85-.253.163-.846.682-1.319 1.154-.99.99-1.59 1.34-2.774 1.622-.392.093-1.306.364-2.03.603-1.394.458-1.965.596-3.32.797-.982.146-1.633.146-2.9 0zm47.34-38.374c-2.41-.438-3.742-.718-4.17-.877-.632-.234-1.435-.738-1.94-1.217-.46-.437-.902-.798-2.344-1.914-.868-.672-.891-.699-2.415-2.742-.247-.332-.707-.87-1.022-1.196-.62-.644-1.312-1.583-1.635-2.22-.342-.673-.994-1.534-1.44-1.902-.566-.468-1.53-1.424-2.15-2.134-1.177-1.35-2.22-1.855-3.983-1.929-2.68-.112-4.048.528-5.993 2.809a29.14 29.14 0 0 1-1.263 1.348c-.865.863-1.254 1.353-1.629 2.05-.38.707-1.233 1.972-1.516 2.25-.559.548-1.744 1.92-2.194 2.542-.532.734-1.093 1.201-2.113 1.759-.5.273-.716.442-1.52 1.185a6.408 6.408 0 0 1-3.073 1.58c-2.06.43-4.532.77-5.59.77-.893 0-2.341-.183-4.203-.53-2.592-.484-3.293-.78-4.49-1.902-.139-.13-.451-.384-.694-.565-.244-.18-.636-.474-.873-.651-.236-.177-.814-.758-1.284-1.29-.47-.533-.945-1.039-1.056-1.124-.502-.382-1.156-1.137-1.717-1.982a12.246 12.246 0 0 0-1.48-1.802c-.538-.545-1.075-1.192-1.403-1.687-.819-1.24-1.35-1.809-2.397-2.571a38.217 38.217 0 0 1-.52-.383 23.352 23.352 0 0 1-.684-.568c-.827-.717-1.56-1.06-2.7-1.266-.475-.085-1.107-.155-1.405-.155-.618 0-1.088-.168-1.633-.585-.305-.232-.532-.472-1.174-1.235-.253-.302-.74-1.098-.976-1.596-.313-.66-.325-1.535-.03-2.16.428-.903 1.939-2.352 2.895-2.775.775-.342 2.803-.365 4.501-.05 2.97.552 3.2.611 4.076 1.048.581.289.969.56 1.51 1.055.637.583.796.694 1.508 1.052.777.39 1.491 1.017 2.042 1.79.271.38.796.91 1.54 1.55.49.423.96 1.052 1.498 2.004.353.625.965 1.462 1.759 2.405.237.28.49.583.564.671.074.089.355.45.624.804.974 1.278 2.575 2.682 3.623 3.177 1.111.525 2.866.697 4.1.401 1.146-.275 1.451-.495 3.102-2.236.346-.365.913-.862 1.26-1.105.7-.49.96-.759 1.411-1.454l.654-1.006a6.53 6.53 0 0 1 .798-.964c.247-.236.6-.575.784-.754.184-.178.584-.702.889-1.165 1.194-1.817 1.832-2.471 4.229-4.338.369-.287.962-.768 1.318-1.07 1.262-1.068 2.103-1.323 6.018-1.823.911-.117 3.487-.097 4.515.034 2.147.274 2.924.391 3.375.51.832.22 1.578.637 2.387 1.331a68.76 68.76 0 0 0 1.815 1.486c1.643 1.297 2.696 2.373 3.554 3.63.643.94 1.042 1.425 1.414 1.714.478.372.876.845 1.335 1.586.925 1.493.965 1.541 1.977 2.355.543.437 1.152.999 1.352 1.248 1.399 1.734 2.286 2.18 4.337 2.18 1.182 0 2.043-.14 2.807-.46 1.018-.425 2.141-1.322 3.068-2.451 1.043-1.271 1.636-1.971 1.992-2.353.574-.615 1.167-1.437 1.736-2.409.42-.716.714-1.085 1.568-1.969.578-.598 1.24-1.348 1.47-1.666.386-.53 1.29-1.39 1.465-1.39.288 0 1.27-.606 2.017-1.243 1.394-1.19 2.304-1.58 4.406-1.886 2.192-.32 2.72-.368 4.018-.368 1.403 0 2.44.098 4.34.408 1.387.227 1.7.318 2.538.743.514.26 1.356.87 1.562 1.131.022.028.22.2.442.383.412.34.765.544 1.41.818.441.187 1.264.97 1.829 1.742.227.31.733.858 1.126 1.22.771.71 1.588 1.856 2.314 3.242.12.229.936 1.223 1.468 1.788.193.206.641.746.995 1.2a60 60 0 0 0 .966 1.214c.467.56 1.562 1.385 2.272 1.713 1.184.547 3.185.754 4.482.464 1.048-.234 1.51-.546 2.772-1.864.702-.734 1.337-1.317 1.678-1.54.302-.198.651-.47.777-.603.231-.248.857-1.124.857-1.201 0-.196.906-1.366 1.562-2.017.716-.711 1.146-1.268 2.128-2.759.343-.519 1.62-1.688 2.81-2.572a54.845 54.845 0 0 0 1.728-1.33c1.43-1.185 2.163-1.46 4.873-1.835 2.644-.366 6.584-.188 8.72.394 1.068.292 2.011.74 2.465 1.17.274.26.942.773 1.232.947.692.413 1.886 1.346 2.652 2.071.832.788 1.428 1.51 2.185 2.647.242.363.627.833.856 1.044 1.125 1.039 1.447 1.432 2.126 2.594.338.579.734 1.005 1.424 1.53.572.436 1.205 1.044 1.93 1.851.758.846 1.43 1.268 2.346 1.473 1.248.28 3.207.071 4.32-.46 1.071-.51 2.566-1.813 3.427-2.988.195-.265.644-.836.997-1.27 1.35-1.651 1.584-1.968 2.066-2.788.67-1.143 1.257-1.86 1.91-2.334a3.996 3.996 0 0 0 1.168-1.254c.39-.627 1.3-1.437 1.863-1.658.206-.08.546-.263.754-.404.34-.23.586-.43 1.402-1.135.305-.264 1.353-.813 1.934-1.013.448-.154 1.828-.432 3.45-.694 1.243-.2 3.379-.197 3.937.006.847.309 2.033 1.313 2.672 2.261.353.523.586 1.177.584 1.638-.003.72-.424 1.703-1.182 2.756-.917 1.276-1.598 1.703-2.836 1.78-1.292.08-2.144.288-2.933.713-.38.205-.416.232-.953.713a23.17 23.17 0 0 1-1.257.996c-1.195.887-1.627 1.354-2.532 2.733-.3.456-.817 1.064-1.403 1.647-.607.605-1.066 1.147-1.326 1.568-.577.93-1.122 1.599-1.573 1.93-.217.159-.681.622-1.032 1.028-.748.866-1.285 1.383-2.06 1.983a15.8 15.8 0 0 0-1.05.903c-.562.54-.663.616-1.249.932-.583.315-.96.415-3.448.914l-2.13.427h-1.728c-1.558-.001-1.838-.023-2.853-.223-.619-.122-1.433-.277-1.808-.344-2.173-.39-3.137-.824-4.34-1.96-.537-.505-1.072-.885-1.918-1.361-.636-.358-1.11-.832-1.984-1.987a23.936 23.936 0 0 0-1.37-1.64c-.653-.691-1.085-1.295-1.723-2.41-.578-1.011-.977-1.545-1.556-2.082-.171-.16-.761-.796-1.31-1.415-1.436-1.618-2.193-2.207-3.369-2.617-1.03-.36-3.205-.342-4.234.034-.495.182-1.13.51-1.411.729-.408.32-3.915 3.896-4.087 4.168-.117.186-.424.73-.683 1.21-.57 1.056-1.044 1.699-1.932 2.614a19.94 19.94 0 0 0-1.23 1.417c-.91 1.184-1.433 1.622-2.81 2.36-.266.141-.79.529-1.166.861-1.482 1.31-2.056 1.575-4.156 1.92-.698.114-1.613.27-2.033.346-.596.109-1.196.138-2.733.134-1.8-.005-2.072-.024-3.174-.229a121.97 121.97 0 0 0-1.849-.33c-1.453-.24-2.402-.707-3.477-1.714a9.537 9.537 0 0 0-.97-.767c-.494-.334-1.414-1.186-2.318-2.144a29.787 29.787 0 0 0-.885-.88c-.463-.442-1.546-1.883-1.556-2.07-.007-.13-.709-.91-1.122-1.246-.59-.48-.866-.796-1.397-1.596-1.018-1.537-1.183-1.732-2.19-2.581a34.554 34.554 0 0 1-1.357-1.22c-.816-.782-1.615-1.197-2.641-1.372-.891-.151-1.142-.151-2.01 0-.947.165-1.73.558-2.387 1.197a54.15 54.15 0 0 1-2.17 1.942c-.163.139-.742.773-1.041 1.139-.045.054-.16.235-.256.402-.6 1.038-1.313 1.884-1.877 2.23-.323.197-.749.726-1.424 1.77-.365.564-.792 1.094-1.179 1.464-.73.699-.568.537-1.512 1.515-.8.827-1.15 1.15-1.786 1.643a19.07 19.07 0 0 0-.984.86c-.343.318-.782.672-.976.786-.456.267-1.316.604-1.542.604-.096 0-.985.16-1.975.356-2.273.451-2.908.53-4.206.52-.771-.006-1.375-.068-2.293-.235zM30.772 82.92c-3.375-.288-3.958-.395-4.983-.913-.353-.179-1.004-.614-1.446-.968-.868-.693-1.434-1.05-1.962-1.236-.352-.124-1.142-.695-1.414-1.022a34.36 34.36 0 0 1-.56-.712c-.49-.635-.44-.585-1.135-1.144-.638-.513-1.009-.962-1.908-2.314-.34-.512-.68-1-.758-1.086a24.003 24.003 0 0 1-1.99-2.472c-1.178-1.661-2.4-2.84-3.615-3.49-.554-.295-1.253-.493-2.21-.623-1.46-.2-2.335-.5-2.992-1.028-.292-.235-1.295-1.359-1.944-2.178a6.068 6.068 0 0 1-.541-.846c-.194-.381-.228-.545-.228-1.091 0-.577.027-.69.26-1.103.364-.642 1.05-1.388 1.926-2.091 1.524-1.225 2.37-1.418 4.336-.987.926.203 1.16.272 2.8.83.51.173 1.305.395 1.769.493 1.211.257 1.968.649 2.816 1.456.373.355.86.784 1.08.952.222.168.764.696 1.206 1.173a91.594 91.594 0 0 0 1.768 1.84c.672.677 1.087 1.176 1.367 1.64.776 1.29.7 1.192 2.055 2.638.295.315.692.803.883 1.085.591.877 1.195 1.561 1.75 1.986 3.043 2.32 3.384 2.506 4.715 2.567 1.761.08 2.61-.317 4.42-2.066a23.22 23.22 0 0 1 1.422-1.237c.715-.565 1.33-1.238 1.592-1.742.389-.745.988-1.56 1.683-2.29a12.57 12.57 0 0 0 1.65-2.17c.21-.354.408-.662.437-.684a1.97 1.97 0 0 0 .205-.28c.254-.398.69-.834 1.45-1.452a30.456 30.456 0 0 0 1.608-1.443c1.374-1.33 1.932-1.636 4.026-2.209.66-.18 1.47-.415 1.801-.521.332-.107 1-.294 1.487-.418.817-.207 1.003-.224 2.451-.224 1.715-.001 2.105.065 4.22.713.486.149 1.351.403 1.922.565.57.162 1.203.37 1.406.461.642.29 1.393.827 2.057 1.468.354.342 1.15 1.034 1.768 1.539.9.734 1.227 1.058 1.632 1.62 1.252 1.74 1.48 2.033 2.13 2.74.739.808 1.197 1.449 1.754 2.458.381.69 1.01 1.38 1.838 2.014.288.22.866.732 1.286 1.138.956.923 1.139 1.072 1.693 1.384.817.459 1.315.591 2.245.597 1.168.007 2.097-.318 3.039-1.063.23-.181.824-.622 1.322-.98.497-.357 1.007-.745 1.133-.862.233-.216 1.097-1.31 1.368-1.73.082-.128.626-.727 1.21-1.331.842-.874 1.166-1.278 1.577-1.97.492-.825.902-1.31 1.808-2.135.219-.2.643-.673.942-1.05.3-.378.821-.938 1.16-1.244.339-.307.983-.905 1.431-1.33 1.062-1.004 1.644-1.33 2.808-1.576.887-.187 1.789-.448 3.3-.956 1.042-.35 2.494-.594 3.53-.594 1.173 0 2.41.247 4.264.85.883.288 1.97.605 2.417.706 1.061.239 1.727.612 2.521 1.413.336.339.845.812 1.133 1.052.625.523 1.315 1.205 1.663 1.646.6.758.82.993 1.398 1.5.606.532.892.904 1.603 2.083.435.722.335.594 1.434 1.823.484.542 1.053 1.229 1.263 1.527.885 1.257 1.146 1.497 3.167 2.918 1.128.794 1.532.99 2.406 1.165 1.582.317 3.109-.21 4.663-1.612.849-.765 1.31-1.174 1.812-1.608.526-.454 1.06-.977 1.322-1.292.101-.123.24-.353.934-1.548.263-.452.728-1.052 1.231-1.59.663-.707.93-1.05 1.656-2.12.345-.509.775-1.082.957-1.275.329-.347 1.18-1.015 1.782-1.397.174-.11.671-.53 1.105-.934 1.343-1.25 1.857-1.474 5.24-2.29 2.614-.632 2.676-.642 4.058-.642 1.452 0 1.847.058 4.22.631.972.235 1.895.451 2.05.481.52.1 1.423.438 1.929.724.55.311.738.458 1.55 1.212.302.28.826.714 1.166.966 1.935 1.432 1.92 1.417 3.235 3.416.308.468.88 1.196 1.273 1.617.723.776 1.179 1.407 1.933 2.68.25.424.82.99 1.7 1.691.284.226.872.75 1.308 1.165.958.913 1.684 1.427 2.382 1.686.447.167.66.194 1.486.192.802-.002 1.06-.034 1.528-.194.56-.191 1.222-.55 1.526-.83.088-.08.482-.371.874-.645 1.53-1.067 2.126-1.65 2.92-2.85.168-.254.56-.733.872-1.064 1.356-1.442 1.272-1.334 2.206-2.824.365-.58.943-1.226 1.43-1.597.145-.11.428-.41.63-.665.526-.668 1.612-1.8 2.08-2.17a17.92 17.92 0 0 0 1.009-.898c.989-.948 1.626-1.291 2.849-1.536.767-.153 1.411-.337 2.816-.8 1.085-.357 2.723-.682 3.443-.682.448 0 1.304.218 1.738.442.686.355 2.096 1.675 2.64 2.47.669.981.663 1.812-.02 2.978-.408.695-1.593 2.166-2.068 2.566-.581.49-1.368.766-2.828.991-.88.136-1.446.27-1.83.43-1.317.554-3.093 2.17-4.292 3.907a22.458 22.458 0 0 1-1.327 1.728c-.722.816-.903 1.054-1.606 2.121-.685 1.039-.945 1.333-1.645 1.856-.35.26-.841.758-1.282 1.297-.782.956-1.207 1.32-1.843 1.58-.563.23-.913.46-1.889 1.244-1.363 1.096-2.304 1.45-4.434 1.673-2.128.221-3.934.235-5.827.043-1.636-.165-1.864-.202-2.894-.464-.603-.154-1.537-.607-1.851-.899-.565-.525-2.65-2.022-2.816-2.022-.072 0-.944-.669-1.309-1.004-.192-.177-.706-.792-1.142-1.367a23.536 23.536 0 0 0-1.41-1.687c-.762-.792-1.134-1.283-1.522-2.01-.539-1.008-1.174-1.894-1.597-2.228a11.712 11.712 0 0 1-2.176-2.272 4.729 4.729 0 0 0-2.143-1.632c-.742-.276-2.139-.446-3.178-.388-2.371.133-3.322.62-4.716 2.421a9.257 9.257 0 0 1-1.62 1.569c-.743.55-1.075.975-1.689 2.169-.459.893-.83 1.413-1.52 2.13a33.98 33.98 0 0 0-1.537 1.78c-1.273 1.579-1.708 1.945-3.69 3.107-.354.208-.843.522-1.086.698-1.698 1.231-2.206 1.464-4.019 1.845-.662.138-2.819.324-3.777.324-1.206 0-4.04-.212-4.702-.353-1.14-.241-1.967-.656-3.054-1.533-.858-.692-1.228-.928-1.768-1.13-.704-.261-1.53-.972-2.284-1.966a4.234 4.234 0 0 0-.635-.643 7.904 7.904 0 0 1-1.741-1.888c-.398-.604-1.325-1.825-1.496-1.97-.333-.281-1.411-1.666-1.801-2.313-.267-.444-1.335-1.688-1.948-2.27-.93-.881-1.105-1.03-1.585-1.347-1.378-.907-4.442-.952-6.179-.09-.529.262-1.01.664-2.313 1.934-.893.871-1.264 1.333-2.007 2.502-.248.39-.808 1.091-1.246 1.56-.833.892-1.029 1.137-1.876 2.352-.285.408-.68.874-.879 1.036-.367.3-.874.8-2.11 2.089-.584.608-.801.774-1.367 1.045a7.702 7.702 0 0 0-1.791 1.197c-.75.67-1.639 1.13-2.674 1.387-.798.197-2.653.386-4.446.45-1.05.04-1.675.013-3.003-.123-2.653-.273-3.886-.642-4.816-1.443a32.39 32.39 0 0 0-1.536-1.174c-1.902-1.357-2.943-2.315-3.786-3.484-.74-1.027-1.292-1.697-1.798-2.184-.558-.538-.958-1.074-1.569-2.1-.488-.821-1.002-1.405-1.534-1.74-.484-.306-1.2-1.013-1.857-1.834-.925-1.157-1.583-1.578-2.949-1.887-.638-.144-.92-.162-2.027-.129-2.505.076-3.58.586-5.003 2.375a14.226 14.226 0 0 1-2.026 2.095c-.346.288-1.29 1.558-1.29 1.735 0 .023-.196.358-.435.745-.264.428-.793 1.082-1.347 1.667-.502.53-1.091 1.199-1.31 1.486-.545.72-1.081 1.356-1.368 1.623-.252.235-1.601 1.19-1.681 1.19-.08 0-1.348.931-2.017 1.48-1.227 1.009-2.063 1.274-4.942 1.573-1.393.144-2.963.187-3.899.107z" fill="#1e26fe"/></svg>