<svg xmlns="http://www.w3.org/2000/svg" viewBox="0 0 210 297" height="297mm" width="210mm"><path d="M9.972 30.184c0-.18-.064-.287-.174-.287-.095 0-.727-.179-1.404-.398-1.375-.445-1.917-.813-2.394-1.628-.263-.447-.303-.641-.293-1.403.012-.938.287-2.353.516-2.657.352-.467.886-.6 2.455-.61 1.398-.009 1.534.01 1.76.234.268.268.309.645.177 1.664-.112.87.112 1.418.676 1.653.582.244 1.159.058 2.002-.643.628-.523.707-.641.934-1.4.137-.457.39-1.19.561-1.632.172-.441.425-1.332.563-1.978.137-.647.403-1.537.59-1.977.188-.441.444-1.3.57-1.91.267-1.3.881-2.665 1.34-2.975.267-.182.584-.222 2.003-.255 1.677-.039 1.687-.038 1.977.253.38.379.376.831-.01 1.594-.355.7-.43.936-.738 2.346-.128.583-.38 1.418-.562 1.857-.18.438-.437 1.329-.57 1.978-.132.65-.389 1.498-.57 1.886-.181.387-.411.98-.51 1.318-.1.338-.274.75-.385.916-.742 1.105-1.244 1.62-2.21 2.266-.982.657-1.137.719-2.755 1.113-1.612.392-1.715.433-1.715.69 0 .263-.028.272-.917.272-.901 0-.917-.005-.917-.287zm37.714.014c0-.204-.079-.289-.315-.34l-1.645-.354c-1.737-.375-1.782-.394-2.7-1.187-.668-.577-.845-.812-1.186-1.583-.387-.874-.401-.955-.398-2.282.003-1.29.033-1.47.486-2.92.27-.862.626-1.748.807-2.006.178-.254.464-.705.635-1.004.171-.298.818-1.047 1.437-1.663.962-.957 1.32-1.225 2.467-1.843 1.425-.768 1.829-.887 4.195-1.232 1.477-.215 2.405-.18 4.413.17 1.653.288 1.828.363 2.62 1.134.845.82 1.1 1.349 1.103 2.291.002.615-.039.763-.279 1.003-.315.316-.256.308-2.298.303-1.926-.004-2-.035-3.068-1.305-.658-.782-1.079-.952-2.113-.856-1.512.141-3.275 1.426-3.82 2.784-.148.37-.437.983-.642 1.362-.433.8-.96 2.77-.96 3.589 0 1.015.645 2.035 1.547 2.444.512.233 1.808.288 2.45.104.436-.125 1.416-.83 2.226-1.602l.548-.523 1.838-.037c1.532-.03 1.885-.006 2.117.146.312.205.373.742.131 1.169-.288.509-1.652 1.844-2.203 2.156-.315.178-.763.444-.997.592-.505.32-1.184.5-3.444.912-1.614.295-1.691.321-1.691.58 0 .252-.044.27-.63.27-.588 0-.631-.018-.631-.272zm67.288-.005c0-.221-.075-.293-.372-.353-1.126-.228-2.619-.798-2.956-1.128-.83-.81-1.12-2.038-.85-3.59.282-1.614.435-1.724 2.663-1.904 1.456-.118 1.536-.113 1.834.11.306.23.312.257.314 1.49.002 1.447.14 1.788.8 1.97.625.172 1.123-.032 1.94-.796.682-.638.744-.74.933-1.513.112-.456.343-1.17.514-1.585.171-.416.447-1.334.612-2.04.166-.706.433-1.596.594-1.978.16-.382.416-1.255.567-1.939.415-1.873.877-2.617 1.78-2.86.287-.077 1.076-.116 1.914-.094 1.338.036 1.44.055 1.645.309.304.375.275.714-.128 1.512-.19.378-.45 1.19-.574 1.802a14.793 14.793 0 0 1-.561 1.975c-.4 1.03-.523 1.442-.7 2.35a9.981 9.981 0 0 1-.456 1.49 24.391 24.391 0 0 0-.574 1.622c-.356 1.16-1.371 2.477-2.52 3.264-1.08.742-1.216.798-3.066 1.25-1.416.346-1.518.39-1.518.642 0 .263-.03.272-.917.272-.894 0-.918-.007-.918-.278zm18.112.01c0-.24-.112-.297-1.175-.584a89.22 89.22 0 0 1-1.548-.43c-.498-.15-1.62-1.004-2.116-1.611-.768-.94-.827-1.135-.872-2.915-.023-.893.013-1.976.08-2.407.164-1.06 1.26-3.254 2.166-4.338.863-1.032 2.317-2.29 3.121-2.698l1.319-.67c.933-.475 3.08-.816 5.132-.816 1.62 0 4.097.333 4.648.624.479.253 1.826 1.68 2.015 2.136.323.78.45 2.308.306 3.701-.073.702-.186 1.477-.25 1.722-.196.736-1.381 2.823-2.11 3.713-.764.934-2.226 2.148-3.093 2.568-.315.153-.805.414-1.089.58-.446.26-1.479.548-3.697 1.031-.463.101-.544.16-.544.39 0 .268-.017.272-1.146.272-1.124 0-1.147-.006-1.147-.267zm4.258-3.826c.621-.314 1.075-.665 1.722-1.334.762-.788.951-1.07 1.418-2.125.626-1.415.85-2.294.853-3.352.004-1.133-.091-1.428-.67-2.07-.685-.763-1.226-1.005-2.25-1.007-1.244-.002-1.604.099-2.673.746-1.489.9-1.997 1.577-3.011 4.008-.398.953-.488 1.313-.536 2.136-.085 1.453 0 1.747.696 2.421.852.824 1.295.997 2.56 1 .985.002 1.1-.024 1.891-.423zm51.797 3.822c0-.253-.102-.296-1.519-.642-1.67-.407-2.036-.583-2.667-1.282-.982-1.087-1.174-2.392-.466-3.165l.393-.428h1.72c2.046 0 2.233.08 2.576 1.098.115.342.286.706.38.81.241.268 1.036.442 2.012.441 1.22 0 1.665-.158 2.304-.817.754-.778.836-1.035.532-1.664-.31-.64-.93-1.005-1.998-1.176-.441-.071-1.318-.304-1.949-.517a32.772 32.772 0 0 0-1.937-.588c-.857-.218-1.291-.558-1.96-1.537-.293-.427-.343-.607-.338-1.2.009-1.052.65-2.422 1.577-3.37.39-.399.864-.804 1.053-.9.19-.097.606-.354.925-.57.508-.344.842-.446 2.665-.81 1.988-.396 2.085-.428 2.085-.683 0-.229.057-.267.4-.267.346 0 .402.038.402.272 0 .248.061.278.716.351.394.044 1.31.206 2.035.36 1.48.316 2.011.605 2.57 1.401.642.913.506 2.338-.277 2.91-.24.175-.546.214-1.86.238-1.808.032-1.834.02-2.371-1.083-.385-.789-.804-1.01-1.914-1.01-.922 0-1.427.138-1.966.538-.68.504-.899 1.298-.546 1.98.247.478 1.176.883 2.511 1.096.624.099 1.604.353 2.178.564.575.212 1.277.467 1.562.567.695.245 1.302.766 1.593 1.366.288.595.323 1.762.074 2.467-.242.687-1.21 2.064-1.867 2.656-.77.694-2.143 1.456-2.905 1.612-.342.07-1.202.259-1.912.42-1.196.271-1.29.312-1.29.563 0 .268-.012.27-1.26.27-1.25 0-1.261-.002-1.261-.27zm-96.863-.45c-.032-.033-1.966-.116-4.3-.185-2.332-.069-4.546-.157-4.918-.196-1.283-.134-1.499-.775-.863-2.566.483-1.363.732-2.204.966-3.267.112-.504.35-1.293.532-1.752.182-.46.438-1.333.57-1.941.131-.609.367-1.393.522-1.744.156-.351.385-1.073.51-1.605.333-1.426.868-2.145 1.797-2.415.619-.18 7.332-.453 11.204-.456 3.012-.002 9.674.25 10.554.4.407.069.788.44.888.865.046.192-.088.745-.389 1.605a21.877 21.877 0 0 0-.674 2.4c-.12.6-.38 1.528-.579 2.064-.198.536-.464 1.49-.59 2.12-.126.631-.405 1.537-.62 2.014-.214.476-.448 1.147-.52 1.49-.163.778-.694 1.8-1.179 2.27-.266.259-.544.39-.995.47-.344.062-2.689.165-5.21.23-2.522.065-5.05.15-5.618.188-.567.038-1.057.043-1.088.01zm-.874-6.433l.673-.327.588.24c.523.212.913.247 3.567.311 1.64.04 3.96.08 5.159.09 2.003.015 2.22-.003 2.712-.229.626-.287.744-.469.847-1.307.046-.368.235-.916.465-1.342.45-.835.484-1.165.148-1.469-.232-.21-.558-.22-8.168-.25-5.285-.02-8.117.01-8.5.09-.896.192-2.072.946-2.363 1.517-.134.262-.42.742-.635 1.066-.548.826-.613 1.323-.221 1.715l.303.303 2.375-.041c2.338-.04 2.387-.046 3.05-.367zm6.233-.593c-.039-.038-1.05-.064-2.25-.058-1.198.005-2.31-.04-2.469-.1-.594-.226-.486-.978.194-1.35.324-.177.713-.201 3.182-.201 2.5 0 2.848.022 3.124.203.378.247.396.538.053.852-.475.434-1.64.85-1.834.654zM20.518 29.48c-.75-.31-.772-.955-.062-1.755.281-.316.572-.692.647-.835.074-.143.358-.543.63-.89 1.147-1.459 1.327-1.697 1.828-2.407.55-.78.83-1.158 2.51-3.394 1.597-2.128 1.853-2.473 2.262-3.045.942-1.323 1.222-1.68 1.802-2.3.402-.428.764-.7 1.032-.774.227-.063 1.33-.115 2.452-.116 2.292 0 2.697.092 3.002.682.259.5.6 2.445.866 4.95.125 1.174.38 2.89.568 3.813.35 1.728.69 4.177.69 4.968 0 .32-.076.52-.266.698-.25.235-.371.25-2.183.25-2.523 0-2.619-.05-2.938-1.527-.295-1.363-.536-1.454-3.833-1.454-1.927 0-2.69.04-2.964.155-.361.153-.853.642-1.948 1.94-.446.528-.66.682-1.142.826-.63.187-2.663.335-2.953.215zm12.079-6.24l.302-.237v-2.21c0-1.311-.052-2.357-.127-2.572-.14-.405-.573-.588-.848-.36-.246.204-1.256 1.597-1.485 2.047-.107.21-.58.907-1.05 1.547-1.321 1.796-1.173 2.019 1.345 2.021 1.407.002 1.59-.021 1.863-.236zm114.736 6.03c-.479-.209-.578-.603-.342-1.365.1-.323.26-.927.355-1.343.095-.417.327-1.146.516-1.622.19-.476.43-1.296.535-1.823.104-.526.366-1.416.58-1.977.215-.561.497-1.533.627-2.158.13-.626.379-1.457.553-1.846.175-.39.408-1.115.519-1.612.221-.997.497-1.366 1.111-1.489.196-.04 1.484-.071 2.862-.071h2.506l.34.315c.274.254.42.599.755 1.784.228.807.515 2.119.637 2.915.263 1.712.933 4.383 1.228 4.888.264.454.637.52.875.157.098-.15.256-.719.352-1.265.095-.546.33-1.42.522-1.942s.45-1.426.57-2.01c.122-.583.368-1.408.547-1.834.18-.425.392-1.083.474-1.46.3-1.384.366-1.425 2.278-1.43 1.467-.004 1.534.007 1.805.278.352.352.352.522 0 1.269-.157.329-.391 1.094-.523 1.7-.131.607-.394 1.477-.584 1.935a12.65 12.65 0 0 0-.56 1.877c-.12.574-.355 1.387-.522 1.807-.168.419-.476 1.419-.685 2.222-.581 2.237-1.12 3.696-1.479 4.005-.301.259-.355.264-2.948.264-3.478 0-3.515-.017-3.717-1.72-.084-.705-.231-1.372-.663-3.005a23.936 23.936 0 0 1-.472-2.478c-.343-2.628-.833-3.476-1.644-2.847-.283.22-.468.73-.714 1.973-.136.682-.4 1.622-.586 2.088-.187.466-.46 1.424-.609 2.128-.148.705-.37 1.514-.492 1.798a24.42 24.42 0 0 0-.424 1.07c-.303.829-.646.993-2.067.988-.721-.003-1.283-.064-1.515-.164zm20.512.028c-.689-.185-.771-.785-.25-1.819.193-.38.473-1.243.623-1.917.15-.673.453-1.69.674-2.26.222-.571.464-1.396.539-1.835.075-.439.33-1.313.565-1.944.236-.63.517-1.61.625-2.178.129-.673.363-1.37.675-2.006.727-1.48.171-1.378 7.062-1.308 5.79.058 5.797.059 6.009.31.32.377.208 1.247-.216 1.69-.586.61-.946.67-4.723.767l-3.465.089-.276.286c-.351.365-.76 1.478-.76 2.07 0 .391.052.488.372.683.346.21.584.227 3.382.227 2.856 0 3.02.012 3.238.23.166.166.229.38.227.774a1.958 1.958 0 0 1-1.033 1.744c-.511.282-.517.283-3.427.254l-2.914-.028-.605.296c-.794.388-1.09.865-1.162 1.878-.049.688-.026.802.219 1.086l.273.318 3.512-.012 3.512-.012.24.305c.484.615.186 1.745-.561 2.126-.367.187-.9.207-6.222.237-3.201.018-5.96-.005-6.133-.051zm-107.742-.106c-.476-.238-.55-.68-.267-1.612.139-.46.372-1.119.517-1.465.145-.347.377-1.173.515-1.835.138-.662.395-1.542.57-1.955.175-.414.434-1.265.576-1.892.141-.626.425-1.577.63-2.113a14.33 14.33 0 0 0 .572-2.006c.24-1.25.505-1.757 1.125-2.16.452-.292.535-.305 2.037-.305 1.411 0 1.597.024 1.869.238.378.297.401.837.065 1.496-.13.254-.339.936-.464 1.514-.126.578-.43 1.555-.677 2.17-.247.616-.525 1.523-.618 2.015a14.227 14.227 0 0 1-.513 1.834A15.65 15.65 0 0 0 65.507 25 12.368 12.368 0 0 1 65 26.745c-.174.441-.4 1.09-.502 1.441-.3 1.038-.384 1.077-2.409 1.106-1.075.016-1.831-.023-1.986-.1zm11.569-.092c-.536-.333-1.106-1.295-1.466-2.477-.172-.563-.457-1.282-.633-1.597a6.386 6.386 0 0 1-.499-1.273c-.098-.384-.312-1-.474-1.368-.163-.368-.325-.914-.36-1.213-.065-.539-.058-.553.609-1.252.37-.39 1.418-1.36 2.327-2.157.909-.797 2.147-1.893 2.75-2.436.605-.542 1.277-1.077 1.494-1.189.295-.152.852-.228 2.217-.305 1.941-.108 2.386-.036 2.47.399.09.469-.125.753-1.169 1.548a51.55 51.55 0 0 0-2.224 1.824 161.28 161.28 0 0 1-2.073 1.78c-.74.62-.952.869-1.049 1.23-.162.603.082 1.543.605 2.333.215.324.481.872.592 1.219.11.347.37.914.576 1.26.207.348.462.897.568 1.222.106.324.351.83.545 1.123.394.594.447 1.02.163 1.306-.162.161-.521.195-2.393.222-2.041.03-2.23.015-2.576-.2z" fill="#cbcbcb"/></svg>