<svg xmlns="http://www.w3.org/2000/svg" viewBox="0 0 210 297" height="297mm" width="210mm"><path d="M73.786 37.985c-1.203-.026-1.365-.045-1.565-.187-.488-.348-.456.449-.456-11.519 0-5.999.023-11.125.051-11.39l.052-.483h13.415v.307c0 .281.027.321.309.465.17.087.67.276 1.113.42.442.146.924.345 1.07.444.74.497 1.845 1.429 2.073 1.749.142.198.385.5.539.67.407.447.626.837.914 1.621.14.382.334.834.43 1.004.342.6.574 1.443.694 2.51.215 1.91.118 5.159-.19 6.424-.08.326-.316.969-.525 1.428-.209.46-.472 1.08-.585 1.376-.43 1.133-2.328 3.187-3.426 3.708a8.26 8.26 0 0 0-.917.506c-.688.474-1.457.664-3.39.841-.908.083-7.377.155-9.606.106zm8.679-4.225c.916-.123 1.1-.195 2.134-.834.899-.556 1.231-.855 1.466-1.32.09-.18.282-.487.426-.685.696-.956.896-1.908.906-4.313.006-1.654-.09-2.757-.304-3.466-.056-.188-.374-.794-.705-1.345-.873-1.45-1.588-2.073-2.765-2.405a14.26 14.26 0 0 1-.852-.273c-.603-.22-1.867-.375-3.473-.425-1.776-.056-1.874-.025-2.238.696l-.23.456-.046 2.512a279.494 279.494 0 0 0 0 6.528c.042 3.804.053 4.032.198 4.324.085.169.272.386.416.482.256.17.312.175 2.279.173 1.239 0 2.313-.041 2.788-.105zm41.509 4.202c-2.38-.044-2.407-.049-2.717-.485-.174-.243-.181-.317-.23-2.374-.114-4.847-.023-18.811.133-20.253l.048-.444h17.207v.26c0 .144.072.424.16.624.13.295.163.537.173 1.303.014 1.018-.067 1.336-.421 1.67-.473.444-.255.428-6.055.436-6.027.009-5.587-.039-5.92.637-.169.343-.178.442-.178 2.059 0 1.89.047 2.109.528 2.45l.238.17 4.68-.023c3.218-.017 4.777.002 4.993.06.65.175.904.526 1.038 1.428.161 1.081-.132 1.92-.76 2.183-.228.095-1.024.11-5.094.097-5.492-.017-5.057-.07-5.43.667-.192.38-.193.39-.193 2.547 0 2.373.006 2.407.48 2.718.193.126.635.14 5.98.175l5.77.039.239.228c.333.319.408.688.377 1.853-.03 1.141-.129 1.419-.608 1.7-.257.15-.468.16-5.364.247-5.299.095-5.467.095-9.074.028zm-94.64-.104c-.409-.16-.562-.276-.734-.555l-.169-.272.01-10.783c.01-9.25.027-10.82.123-11.051.062-.148.113-.387.113-.53v-.26H43.89v.67l.899.456c.797.405.97.53 1.525 1.113.646.676.6.599 1.486 2.548.213.47.366 1.62.316 2.386-.05.784-.273 1.421-.947 2.71-.389.744-.7 1.1-1.525 1.743-.22.172-.433.401-.47.51-.152.43-.037.616 1.165 1.881.501.528.576.649.756 1.219.465 1.473.704 2.746.902 4.803.04.425.144 1.137.23 1.583.144.748.147.838.038 1.152-.234.677-.185.663-2.325.663-2.738 0-2.581.19-2.894-3.514-.168-1.996-.23-2.298-.683-3.296-.389-.858-.908-1.41-1.719-1.827-.768-.396-1.15-.441-3.781-.453-2.432-.011-2.61.015-3.063.462-.406.399-.43.672-.402 4.38.025 3.196.02 3.333-.129 3.618-.19.366-.447.56-.891.67-.449.113-2.74.093-3.045-.026zm9.051-12.719c3.217-.183 3.488-.305 4.252-1.906.28-.587.288-.625.288-1.49 0-.786-.022-.933-.188-1.272-.272-.55-1.233-1.53-1.7-1.731-.508-.219-1.684-.31-4.329-.336-2.064-.02-2.133-.016-2.47.152-.192.095-.435.3-.541.458l-.193.285v4.889l.21.304c.24.346.529.54.959.64.414.097 2.079.1 3.712.007zm13.902 12.718c-.471-.146-.791-.454-.909-.874-.085-.303-.105-2.317-.108-10.876-.004-9.844.004-10.523.13-10.803.075-.164.136-.434.136-.598v-.3h17.221v.267c0 .146.052.466.116.71.152.585.151 1.887-.001 2.401-.135.455-.433.747-.887.87-.198.053-2.037.079-5.345.075-5.372-.007-5.385-.006-5.794.373-.406.377-.484.752-.484 2.332 0 1.673.069 1.905.659 2.234.315.176.442.191 2.04.251.937.035 3.037.05 4.668.034 1.801-.018 3.072 0 3.239.046.625.173.9.79.9 2.03 0 .65-.027.829-.176 1.132-.33.669.03.626-5.3.635-4.363.008-4.74.02-5.025.148-.419.189-.648.414-.84.826-.147.316-.164.515-.19 2.174-.025 1.708-.017 1.85.131 2.185.13.292.226.39.529.529.368.17.394.17 5.968.209 4.35.03 5.638.06 5.772.137.377.216.445.498.443 1.832-.002 1.127-.017 1.265-.175 1.562-.318.603.307.563-8.526.556-5.813-.004-7.978-.03-8.192-.097zm48.248 0c-.388-.151-.56-.273-.731-.512l-.164-.23-.005-10.937c-.003-7.921.019-10.96.081-11.022.047-.047.086-.235.086-.418v-.332h13.669v.337c0 .337 0 .337.454.54.25.113.604.258.789.323.576.203.936.463 1.62 1.168.57.588.74.83 1.223 1.752.717 1.365.809 1.832.757 3.873-.034 1.37-.134 2.003-.394 2.51-.9 1.75-1.064 1.992-1.816 2.688-.858.794-1.074.917-2.414 1.373-1.692.577-1.712.58-5.007.647-1.898.04-3.08.094-3.267.153a1.68 1.68 0 0 0-.525.298c-.42.378-.434.509-.394 3.763.043 3.46.035 3.51-.588 3.905l-.353.224-1.395-.006c-.87-.004-1.48-.04-1.626-.096zm7.993-12.175c1.755-.078 2.18-.161 3.031-.59 1.178-.591 1.49-.935 1.714-1.883.14-.591.155-1.526.035-2.1-.16-.764-.41-1.104-1.256-1.704-.934-.662-1.313-.813-2.277-.907-1.03-.1-3.549-.094-4.032.01-.49.105-.937.482-1.06.896-.053.182-.09 1.136-.099 2.532-.01 1.913.006 2.29.116 2.586.236.64.792 1.038 1.623 1.16.542.08.45.08 2.205 0zm33.749 12.16c-.34-.154-.614-.405-.71-.654-.104-.272-.093-21.81.012-22.007.044-.08.08-.288.08-.46v-.315h15.058v.671l.887.41c.755.348.972.492 1.45.958.563.55 1.322 1.672 1.723 2.549.364.794.397 2.965.061 3.967-.142.423-1.131 2.214-1.363 2.468-.087.095-.376.315-.643.489-.266.173-.538.398-.605.5-.28.428-.04.956.801 1.756.632.601.803.88 1.164 1.902.473 1.337.559 1.818.735 4.138.026.34.1.964.165 1.387.066.423.106 1.009.089 1.302-.029.503-.047.55-.322.8l-.291.268-1.636-.025c-1.597-.024-1.646-.03-2.023-.229-.431-.227-.687-.6-.762-1.109-.025-.17-.1-1.108-.167-2.085-.067-.977-.174-2.036-.238-2.355-.29-1.448-1.273-2.728-2.445-3.186-.36-.14-.66-.164-2.836-.218-1.338-.033-2.559-.042-2.712-.02-.419.063-.848.34-1.007.648-.282.547-.316 1.07-.28 4.335.038 3.448.038 3.452-.414 3.788-.451.335-.727.389-2.151.419-1.108.024-1.4.007-1.621-.093zm9.266-12.702c1.47-.074 2.464-.22 2.85-.42.329-.17 1.063-1.017 1.298-1.497.158-.323.213-.572.24-1.068.06-1.144-.211-1.999-.774-2.443-.14-.11-.411-.342-.602-.515-.83-.748-1.597-.879-4.943-.839-2.088.025-2.128.028-2.423.211a1.228 1.228 0 0 0-.461.54c-.15.331-.163.506-.179 2.556-.019 2.419.024 2.731.42 3.111.396.378.652.436 1.948.436.659 0 1.84-.032 2.626-.072zm13.336 12.71a1.662 1.662 0 0 1-.452-.25c-.4-.36-.38.243-.377-11.422 0-7.17.028-10.901.08-10.998.043-.08.078-.287.078-.46v-.314h15.368v.662l.938.46c.91.447.96.484 1.631 1.233.381.425.774.946.874 1.159.099.212.293.838.43 1.39.412 1.648.318 2.987-.33 4.72-.184.49-.863 1.26-1.708 1.935-.795.636-.795.899.003 1.755.654.702 1.283 1.506 1.471 1.88.267.53.4 1.385.553 3.533.096 1.348.235 2.21.458 2.85.32.917.149 1.545-.5 1.832-.317.14-.488.152-1.91.13-2.356-.036-2.171.238-2.914-4.31-.43-2.634-.476-2.84-.74-3.294-.183-.32-.969-.955-1.559-1.262-.458-.239-1.242-.306-3.712-.32-2.301-.012-2.316-.011-2.684.173-.726.364-.682.097-.726 4.42-.043 4.176-.026 4.038-.528 4.415-.188.141-.342.156-1.827.172-1.229.014-1.694-.007-1.917-.089zm9.06-12.714c2.805-.123 3.525-.302 3.975-.984.262-.4.736-1.858.734-2.265 0-.466-.193-1.234-.416-1.671-.278-.543-.94-1.115-1.787-1.545-.538-.273-1.37-.34-3.859-.313-2.163.024-2.339.036-2.663.188-.733.343-.762.465-.782 3.274-.018 2.55 0 2.666.499 3.046.475.362 1.186.407 4.299.27zm19.885 12.681c-.361-.17-.612-.423-.731-.739-.059-.154-.084-1.365-.079-3.823.004-2.083-.023-3.694-.066-3.829-.131-.412-.642-1.69-.804-2.007-.086-.17-.303-.5-.483-.734a7.455 7.455 0 0 1-.614-1.004 7.318 7.318 0 0 0-.627-1.014 8.417 8.417 0 0 1-.684-1.122 8.493 8.493 0 0 0-.693-1.134 6.208 6.208 0 0 1-.591-.963 7.387 7.387 0 0 0-.619-1.025 8.467 8.467 0 0 1-.656-1.081 8.642 8.642 0 0 0-.697-1.13 8.372 8.372 0 0 1-.684-1.106c-.147-.303-.388-.684-.535-.847-.508-.562-.536-.642-.52-1.447l.01-.406h5.483v.314c0 .231.06.387.228.598.126.157.348.528.494.826.145.297.443.782.662 1.077.22.295.53.816.692 1.158.161.342.435.8.609 1.018.173.218.462.687.64 1.043.179.355.455.837.613 1.07.158.234.383.617.5.85.307.616.55.85.885.85a.762.762 0 0 0 .48-.174c.282-.24 1.058-1.429 1.478-2.265.192-.382.495-.88.673-1.105a5.82 5.82 0 0 0 .592-.997 7.69 7.69 0 0 1 .646-1.107 8.62 8.62 0 0 0 .661-1.11c.156-.324.453-.774.66-1 .322-.352.375-.457.375-.729v-.317h5.329v.505c0 .614-.125.931-.565 1.434-.185.212-.468.65-.628.975-.16.324-.475.835-.698 1.135-.224.3-.536.806-.693 1.124a8.031 8.031 0 0 1-.637 1.042 7.985 7.985 0 0 0-.636 1.046 8.693 8.693 0 0 1-.656 1.08 8.87 8.87 0 0 0-.661 1.092 6.835 6.835 0 0 1-.617 1 7.23 7.23 0 0 0-.634 1.032 8.16 8.16 0 0 1-.6 1.01c-.408.545-.555.859-.94 2.005l-.337 1.004-.009 3.565c-.009 3.47-.013 3.573-.17 3.826a1.63 1.63 0 0 1-.493.45c-.317.182-.398.191-1.837.211-1.342.018-1.54.005-1.815-.125zm-183.932.009l-.367-.029V14.406h16.372l.001.251c0 .138.052.397.114.575.141.405.173 2.093.048 2.546a1.24 1.24 0 0 1-.855.875c-.24.064-1.639.084-4.997.07-5.315-.023-4.902-.075-5.277.668-.189.374-.193.42-.193 2.12 0 1.996.06 2.338.476 2.704.145.127.34.233.434.237.094.003 1.909.012 4.032.02l3.862.012.367.181c.553.272.782.707.776 1.472-.008 1.193-.256 1.79-.863 2.076-.253.12-.68.133-4.341.141-4.57.01-4.324-.021-4.645.602-.16.31-.163.381-.144 4.153.025 5.195.25 4.781-2.595 4.76a62.39 62.39 0 0 1-2.205-.043z" fill="#cacaca"/></svg>