<svg xmlns="http://www.w3.org/2000/svg" viewBox="0 0 210 297" height="297mm" width="210mm"><path d="M75.594 44.82a66.49 66.49 0 0 0-1.298-.172c-.999-.125-2.126-.336-2.456-.46-.116-.044-.51-.25-.877-.458a14.232 14.232 0 0 0-1.454-.692c-.802-.319-1.056-.463-1.493-.848-.135-.119-.577-.435-.982-.702-.89-.587-2.675-2.342-3.158-3.105a69.383 69.383 0 0 0-1.142-1.74c-.313-.46-.413-.732-.745-2.013-.153-.59-.327-1.19-.387-1.332-.473-1.122-.65-2.637-.533-4.576.057-.937.115-1.322.308-2.054 1.02-3.853 1.001-3.802 1.632-4.692.19-.269.512-.79.715-1.158.31-.563.519-.821 1.296-1.608.51-.515 1.274-1.2 1.698-1.521.425-.321.93-.714 1.123-.872.392-.322 1.087-.669 1.824-.91.27-.088.687-.28.926-.427.997-.61 1.555-.791 3.003-.976a68.37 68.37 0 0 0 1.72-.255 15.417 15.417 0 0 1 4.56-.029c.598.085 1.514.2 2.035.256 2.39.258 3.21.49 4.17 1.179.905.65 1.042 1.465.437 2.603a9.03 9.03 0 0 0-.497 1.142c-.376 1.131-.776 1.5-1.785 1.647-.516.075-.72.064-2.167-.124-1.406-.182-1.797-.205-3.28-.2-2.771.013-3.735.21-4.997 1.027-.433.28-1.02.655-1.306.833-.434.27-.59.424-.96.947-.243.343-.576.777-.74.965-.547.628-.722 1.13-1.092 3.132-.292 1.581-.2 3.08.32 5.197.2.815.405 1.231.882 1.785.199.231.483.594.63.806.147.213.405.516.573.675.438.416 2.73 1.758 3.286 1.924.571.17 2.268.348 3.322.348.846 0 2.361-.14 3.506-.326.969-.157 2.288-.108 2.688.1.626.325.828.6 1.192 1.63.103.29.322.779.487 1.087.346.649.425 1.018.31 1.448-.15.57-.461.859-1.462 1.358-.989.493-1.915.702-4.394.991-1.59.186-4.703.283-5.438.17zm27.342-.219c-1.028-.059-2.233-.26-2.861-.475a11.956 11.956 0 0 1-1.081-.482 10.924 10.924 0 0 0-1.193-.51c-.741-.24-1.28-.529-1.824-.975-.27-.221-.784-.602-1.14-.845-.358-.243-.733-.54-.833-.662-.101-.12-.488-.538-.86-.927-.5-.523-.775-.886-1.061-1.398-.213-.38-.487-.823-.611-.986a4.921 4.921 0 0 1-.827-1.587c-.102-.321-.342-1.058-.533-1.637-.696-2.103-.837-2.933-.835-4.908.002-1.843.158-2.763.756-4.459a19.61 19.61 0 0 0 .436-1.403c.19-.747.457-1.314.895-1.896.188-.25.497-.721.688-1.047a6.32 6.32 0 0 1 .803-1.052c.251-.253.63-.66.84-.905a6.52 6.52 0 0 1 .814-.772c.236-.18.662-.53.946-.776.372-.324.733-.552 1.294-.816.429-.201 1.03-.523 1.337-.714.811-.508 1.63-.776 2.732-.894.232-.025 1.069-.126 1.86-.226 1.594-.2 2.806-.197 4.174.008l1.614.243c1.195.18 1.759.363 2.526.816.348.206.979.524 1.404.707.884.382 1.15.537 1.543.897.155.141.533.444.842.672.747.552 2.167 2.066 2.672 2.849.221.344.52.768.663.942.397.481.602.881.863 1.685.131.405.398 1.083.592 1.507.194.425.404.946.465 1.158.448 1.548.507 4.976.116 6.84-.073.348-.248.9-.39 1.229-.547 1.268-.655 1.54-.77 1.939-.218.753-.508 1.28-1.095 1.99a9.093 9.093 0 0 0-.583.842c-.474.776-2.007 2.325-2.814 2.843a18.23 18.23 0 0 0-1.12.788c-.581.453-.902.62-1.785.927-.363.126-.947.38-1.298.564-1.122.589-2.034.79-4.146.912-1.321.076-1.79.076-3.215-.006zm3.664-6.694c.527-.164 2.629-1.256 3.083-1.601.556-.424 1.078-1.032 1.733-2.015.985-1.482 1.087-1.746 1.26-3.26.12-1.05.131-2.084.034-3.088-.14-1.459-.39-2.262-.948-3.054a68.279 68.279 0 0 1-.743-1.093c-.533-.801-.625-.881-2.002-1.764-1.699-1.09-2.023-1.174-4.297-1.124-1.732.038-2.196.124-2.88.535-1.662.997-1.956 1.2-2.49 1.729-.311.309-.695.767-.852 1.017-.742 1.184-1.248 2.084-1.368 2.434-.207.6-.307 1.503-.304 2.723.005 1.81.188 2.67.768 3.61.173.281.462.8.643 1.152.277.54.46.775 1.162 1.494l.833.852 1.275.664c1.382.719 1.561.792 2.191.89.651.102 2.452.04 2.902-.1zm27.897 6.661c-2.148-.156-2.856-.315-4.21-.944a8.663 8.663 0 0 0-1.116-.414c-1.02-.28-1.637-.56-2.168-.984a9.987 9.987 0 0 0-1.03-.707c-.723-.416-.969-.613-1.184-.944-.156-.241-.183-.36-.184-.81 0-.51.013-.55.453-1.394.48-.923.822-1.336 1.68-2.036.683-.557.938-.67 1.515-.67.454.001.546.03 1.225.375.403.206 1.145.515 1.649.687.503.172 1.12.408 1.37.524 1.309.606 2.001.778 3.651.906 1.789.138 3.378-.004 4.088-.366.644-.329 1.24-1.189 1.242-1.79.001-.383-.203-.847-.598-1.361-.545-.708-1.063-1.002-2.292-1.303-.468-.115-1.057-.335-1.67-.625-.93-.44-1.472-.605-3.253-.985-.378-.081-.83-.26-1.438-.57-.487-.25-1.139-.526-1.448-.616-1.015-.294-1.561-.544-2.053-.94-.26-.208-.715-.534-1.01-.724-.38-.242-.768-.594-1.32-1.193-.994-1.078-1.093-1.273-1.45-2.828-.346-1.506.052-4.19.768-5.186.528-.733 1.23-1.575 1.585-1.901l.844-.777c.601-.557.776-.673 1.484-.983.325-.143.875-.424 1.222-.624 1.044-.602 1.628-.735 4.153-.947 2.139-.18 3.66-.18 5.686-.002 2.684.235 3.261.362 4.46.977.432.222.992.473 1.242.556 1.533.511 1.838 1.124 1.305 2.62-.62 1.744-.753 1.965-1.443 2.411-1.005.65-1.69.758-2.668.42-1.05-.363-1.45-.44-4.233-.807-1.27-.168-3.692-.002-4.733.325-1.017.319-1.49.906-1.487 1.843.003.742.395 1.25 1.196 1.55.224.084.622.279.885.433.81.476 1.087.595 1.741.753 1.115.27 1.807.499 2.59.86 1 .461 1.378.589 2.383.802 1.023.217 1.377.353 2.07.798.298.191.667.398.82.46 1.162.476 1.58.747 2.511 1.631.508.482 1.031 1.035 1.164 1.23.272.4 1.068 2.405 1.272 3.205.16.627.173 1.468.034 2.105-.125.573-1.01 2.779-1.277 3.185-.363.55-1.1 1.315-1.981 2.056-.92.773-1.22.955-2.121 1.288-.31.114-.852.362-1.207.552-1.108.593-2.021.785-4.354.917a30.82 30.82 0 0 1-4.36-.038zm-104.779-.107c-.606-.078-.881-.179-1.132-.413-.3-.28-.3-.767.002-1.403.118-.25.324-.85.458-1.333.175-.634.39-1.173.77-1.932.41-.823.571-1.236.734-1.895.262-1.055.264-1.06.848-2.245a9.42 9.42 0 0 0 .772-2.07c.16-.598.344-1.198.41-1.333.068-.135.294-.577.503-.982.209-.405.438-.974.509-1.263.282-1.147.564-1.957.88-2.526.452-.817.593-1.173.81-2.06.222-.913.395-1.389.725-2.005.483-.899.57-1.121.888-2.279.263-.955.413-1.347.814-2.132.405-.791.536-1.135.739-1.944.345-1.372.545-1.682 1.327-2.048l.42-.197 3.053-.035c3.574-.041 4.968.015 5.518.22.473.177.884.595 1.39 1.411.481.779.716 1.366.885 2.218.223 1.129.365 1.567.826 2.555.347.745.579 1.463.78 2.419.197.938.348 1.386.803 2.385.377.828.653 1.693.812 2.544.128.68.4 1.505.72 2.175.386.812.589 1.412.79 2.34.232 1.072.41 1.62.783 2.417.437.932.63 1.517.828 2.506.184.92.41 1.59.903 2.666.381.832.89 2.62.89 3.129 0 .486-.16.73-.631.961l-.387.19-2.35-.007c-2.255-.007-2.368-.013-2.755-.163-.498-.193-1.016-.665-1.352-1.233-.267-.45-.466-1.06-.77-2.35-.352-1.5-.984-2.432-2-2.95l-.315-.16-4.526-.01c-5.046-.009-4.884-.023-5.532.473-.697.534-1.214 1.346-1.486 2.334-.486 1.768-.606 1.996-1.574 2.983-.706.72-.952.87-1.59.97-.594.093-3.626.145-4.19.072zm17.234-13.055c.232-.112.345-.224.442-.439.244-.537.162-.942-.439-2.163-.187-.38-.479-1.156-.648-1.724a15.002 15.002 0 0 0-.661-1.768 16.276 16.276 0 0 1-.572-1.368c-.294-.844-.501-1.183-.812-1.33-.294-.14-.515-.105-.756.12-.236.221-.347.468-.607 1.35a14 14 0 0 1-.6 1.58 14.646 14.646 0 0 0-.63 1.685 19.56 19.56 0 0 1-.776 2.243c-.333.802-.254 1.318.259 1.7.281.211.732.247 3.179.256 2.228.008 2.322.003 2.621-.142zm116.84 13.05c-1.187-.063-1.54-.2-1.824-.704l-.152-.27-.012-10.506c-.012-10.044-.018-10.52-.142-10.841a1.906 1.906 0 0 0-.349-.554c-.444-.444-.354-.435-4.328-.44-3.608-.004-3.613-.004-3.908-.162-.785-.42-.895-.784-.844-2.822.04-1.624.136-2.146.49-2.672.404-.599 1.161-.932 2.378-1.045.863-.08 22.75-.112 22.97-.034.247.09.592.382.703.597.211.408.244.902.18 2.696-.071 1.98-.131 2.264-.568 2.701-.53.53-1.371.64-5.052.657-2.694.013-2.92.04-3.275.39-.101.1-.25.323-.331.497l-.148.316-.012 10.604c-.012 10.572-.013 10.606-.157 10.89a1.522 1.522 0 0 1-.778.687c-.206.071-3.573.082-4.841.015zm-157.59-.074a1.414 1.414 0 0 1-1.13-.986c-.04-.137-.067-5.696-.07-14.095-.004-13.68-.003-13.871.134-14.138a1.39 1.39 0 0 1 .75-.7c.238-.102.517-.119 1.893-.114 2.045.008 2.962.098 3.453.337.653.319 1.22 1.115 1.46 2.046.104.408.164 5.132.204 16.158.013 3.298.014 3.337.174 3.742.324.82.81 1.133 1.761 1.133.29 0 1.931-.011 3.649-.025 3.033-.024 3.14-.02 3.783.132 1.153.274 1.505.49 1.81 1.111.195.397.195.397.22 2.16.032 2.345-.07 2.802-.706 3.13-.252.13-.537.135-8.677.147-4.629.006-8.547-.01-8.708-.038zm178.488-.025a1.292 1.292 0 0 1-.827-.853c-.11-.394-.103-27.84.007-28.163.125-.37.325-.613.644-.784l.292-.156h9.823c9.218 0 9.838.008 10.062.123.14.072.395.123.614.123h.375v5.543h-.39c-.307 0-.44.037-.618.173-.371.283-1.008.529-1.578.61-.337.047-1.933.072-4.29.066-4.257-.01-5.692.05-6.174.26-.633.275-.822.657-.92 1.857-.086 1.07-.01 1.496.333 1.876.476.527.354.514 5.393.557l4.49.038.317.187c.196.115.382.301.49.49l.173.306-.012 2.15c-.007 1.351-.04 2.264-.091 2.456-.174.664-.706 1.158-1.32 1.227-.18.02-2.207.043-4.503.049-4.073.011-4.182.015-4.456.157-.613.317-.911 1.119-.911 2.45 0 1.367.284 2.11.931 2.432l.331.165 5.719.035 5.718.035.32.158c.208.102.45.158.685.158h.363v4.911h-.395c-.393 0-.398.003-.91.49-.602.57-1.01.795-1.647.905-.328.056-2.975.077-9.087.074-7.27-.004-8.675-.02-8.95-.105z" fill="#cacaca"/></svg>