<svg xmlns="http://www.w3.org/2000/svg" viewBox="0 0 210 297" height="297mm" width="210mm"><path d="M178.403 59.674c0-.216-.054-.493-.12-.628-.137-.273-.231-1.098-.236-2.057-.007-1.451.507-1.806 2.776-1.918 1.461-.073 1.937-.196 2.719-.705.293-.19.805-.507 1.139-.704.333-.197.714-.488.846-.647.486-.581 1.533-2.031 1.684-2.332.196-.388.298-1.17.218-1.676-.072-.454-.382-.83-.775-.938-.135-.038-.738-.05-1.34-.028-1.013.038-1.126.029-1.518-.12-.579-.22-.934-.597-1.286-1.361-.4-.87-.554-1.154-.822-1.53-.316-.441-.553-.928-.817-1.676-.264-.747-.44-1.106-.823-1.67a7.007 7.007 0 0 1-.88-1.829 5.64 5.64 0 0 0-.432-.975l-.528-.858c-.16-.259-.424-.835-.587-1.282-.353-.963-.42-1.099-.846-1.708-.367-.525-.574-.966-.861-1.836a5.751 5.751 0 0 0-.623-1.245c-.533-.811-.648-1.038-.923-1.82-.272-.772-.42-1.066-.875-1.738-.342-.505-.498-.83-.901-1.88-.202-.527-.4-.871-.815-1.41-.33-.431-.556-.938-.742-1.668-.278-1.088-.167-1.574.417-1.833.3-.133.55-.155 2.289-.206 1.074-.031 2.816-.059 3.872-.061l1.92-.005.392.2c.455.23.76.643 1.153 1.565.135.314.373.77.53 1.011.44.676.669 1.179.988 2.164.208.643.396 1.062.65 1.45.498.765.598.978.933 1.997.162.494.394 1.06.515 1.26l.506.83c.169.277.405.845.575 1.383.22.7.399 1.095.765 1.698.358.587.556 1.022.787 1.725.374 1.14.527 1.498.873 2.038.351.549.492.89.796 1.925.14.476.3.956.358 1.068.41.793 1.186.757 1.803-.083.508-.692.751-1.394 1.222-3.526.136-.618.295-1.06.65-1.806.46-.973.672-1.615.983-2.976.108-.473.312-1.014.657-1.74.378-.792.555-1.275.719-1.95.387-1.603.507-1.963.931-2.81.48-.956.557-1.163.872-2.352.343-1.287.6-1.721 1.369-2.299.744-.56.834-.57 4.663-.542 3.21.022 3.335.029 3.656.177.375.173.634.49.691.846.082.501-.841 3.383-1.373 4.288-.547.931-.59 1.043-1.055 2.733-.088.318-.4 1.066-.695 1.662-.42.848-.585 1.277-.757 1.974-.272 1.102-.431 1.532-.87 2.361-.39.735-.55 1.179-.862 2.398a7.176 7.176 0 0 1-.557 1.503c-.616 1.186-.668 1.316-.96 2.414-.338 1.267-.456 1.582-.868 2.32-.394.705-.587 1.223-.836 2.24-.157.642-.315 1.049-.696 1.791a11.56 11.56 0 0 0-.824 2.06c-.374 1.238-.412 1.321-.926 2.074a6.23 6.23 0 0 0-.543.975c-.319.802-.642 1.37-1.028 1.81-.212.24-.555.65-.764.913-.331.417-.904.93-2.08 1.868-.198.159-.616.36-1.098.532-.428.152-1.055.38-1.392.505l-.614.23-.022.413-.022.413h-10.325v-.386zM16.04 48.378a28.77 28.77 0 0 1-4.877-.759c-.636-.157-1.5-.348-1.922-.424-1.352-.245-1.63-.363-2.6-1.096-1-.757-1.277-1.05-1.767-1.86l-.351-.581h-.839v-4.191l.38-.001c.208 0 .514-.048.68-.106.255-.09.66-.094 2.71-.034 1.324.039 2.977.063 3.673.054 1.372-.018 1.48.004 1.907.379.217.19.299.352.488.962.124.403.316.864.425 1.024.228.333 1.698 1.478 2.13 1.658.523.22 1.297.32 3.407.446 1.826.108 2.334.112 4.107.034 3.981-.176 4.5-.298 5.944-1.398 1.138-.866 1.414-1.269 1.41-2.052-.001-.346-.046-.525-.203-.814-.226-.414-1.46-1.654-1.846-1.853-.662-.343-1.486-.415-6.1-.537-4.433-.117-6.997-.214-7.804-.296-1.443-.146-3.147-.476-6.32-1.223-.808-.19-1.214-.402-1.953-1.02-1.14-.954-1.267-1.106-1.75-2.105l-.447-.922h-.838v-5.491l.416-.002.415-.002.26-.513c.424-.841.86-1.423 1.533-2.047.733-.68 1.092-.878 2.145-1.189a50.03 50.03 0 0 0 1.626-.519c1.085-.37 2.044-.557 3.613-.706 1.046-.1 2.309-.115 8.526-.107 7.033.01 7.34.016 8.454.166 1.741.234 2.276.342 3.088.624.408.141 1.158.397 1.667.567 1.397.468 1.627.653 2.777 2.227.869 1.19 1.077 1.763 1.021 2.816-.021.409-.067.606-.172.747-.237.316-.528.53-.776.571-.129.021-1.862.045-3.85.053l-3.617.014-.318-.176c-.376-.208-.653-.56-1.048-1.333-.342-.67-.63-.967-1.224-1.265-.585-.293-.877-.356-2.28-.495-.914-.09-1.877-.115-4.12-.106-2.756.01-2.991.022-4.055.195-1.76.285-2.181.465-2.77 1.18-.752.917-.942 1.315-.94 1.973 0 .364.041.542.18.794.273.489.85 1.025 1.338 1.244.602.27 2.283.488 5.056.657.715.044 1.674.112 2.131.152.879.077 2.155.164 4.119.281 1.863.111 3.36.213 4.227.287.437.037 1.217.1 1.734.14 2.17.17 2.722.312 4.545 1.18 1.55.739 1.727.888 2.411 2.034.973 1.63 1.068 2.005 1.057 4.178-.008 1.74-.116 2.25-.678 3.215-.197.338-.514.887-.705 1.22-.43.753-.546.85-2.607 2.2-.594.39-.677.415-2.795.86-3.19.67-3.801.764-6.611 1.014-1.373.123-2.108.137-6.323.12-2.623-.01-4.915-.03-5.094-.043zm64.2.006c-.119-.017-.769-.099-1.445-.18-1.963-.238-3.071-.413-3.8-.602a46.063 46.063 0 0 0-1.763-.4c-1.224-.254-1.74-.426-2.131-.71-1.276-.93-1.967-1.51-2.16-1.81-.403-.635-1.106-2.455-1.184-3.067-.139-1.083.133-1.72.879-2.063.389-.18.466-.188 1.994-.214 2.238-.039 5.086.085 5.621.244.605.179.914.496 1.364 1.402.323.65.471.855 1.036 1.426.513.519.764.714 1.136.882 1.171.532 4.072.7 8.871.514 2.514-.097 3.176-.235 4.102-.855.228-.153.573-.369.767-.48.508-.293.856-.631 1.053-1.025.32-.642.215-1.723-.23-2.36-.15-.215-1.39-1.184-1.754-1.37-.368-.19-1.255-.335-2.312-.379a551.3 551.3 0 0 0-5.202-.147c-6.484-.16-7.447-.28-12.82-1.594-.825-.201-1.12-.404-2.346-1.607-.914-.898-1.074-1.18-1.417-2.501-.363-1.396-.457-2.24-.361-3.221.133-1.363.5-2.796.86-3.367.256-.406 1.78-1.852 2.148-2.04.164-.083.685-.268 1.156-.41a35.337 35.337 0 0 0 1.337-.432 14.515 14.515 0 0 1 2.591-.646c1.947-.283 2.32-.295 9.791-.295 6.502 0 7.428.014 8.49.129 1.606.173 2.44.356 3.684.808.577.21 1.228.439 1.447.509.886.285 1.134.466 2.154 1.565.738.797.993 1.263 1.139 2.079.215 1.206.082 2.019-.388 2.366-.441.326-.597.339-3.88.322-3.272-.017-3.734-.053-4.35-.344-.48-.228-.763-.555-1.114-1.291-.515-1.077-.974-1.354-2.521-1.518-2.154-.23-3.693-.28-5.805-.19-2.857.121-4.342.32-5.145.688-1.05.48-1.794 1.958-1.559 3.097.05.244.152.561.225.705.172.337.635.755.948.855.521.168 2.827.517 3.893.59.616.042 1.933.138 2.927.213.993.076 2.115.156 2.492.18 3.08.189 5.365.34 6.034.399.437.038 1.315.106 1.95.15 1.268.089 2.502.286 3.146.503.227.077.953.403 1.612.725 1.05.513 1.245.636 1.58.999.657.71 1.211 1.489 1.358 1.906.338.962.46 3.28.257 4.912-.175 1.414-.277 1.669-1.031 2.591-.851 1.04-1.05 1.23-1.863 1.777-.437.295-.902.613-1.034.708-.339.246-.98.442-2.145.656-.557.102-1.321.263-1.699.357-1.239.31-2.847.607-3.907.721-.82.089-2.253.119-6.75.143-3.14.016-5.806.015-5.925-.003zm64.092 0c-1.847-.15-3.63-.424-5.13-.788a63.483 63.483 0 0 0-2.11-.466c-.605-.12-1.266-.282-1.469-.36-.49-.186-2.843-1.762-3.063-2.052-.096-.126-.366-.603-.601-1.06a34.075 34.075 0 0 0-.724-1.337c-.41-.698-.638-1.473-.808-2.746-.448-3.364-.452-6.968-.01-10.02.238-1.643.382-2.062 1.054-3.06.186-.277.421-.667.522-.865.339-.667.602-.975 1.27-1.485a54.78 54.78 0 0 0 1.062-.83c.474-.387.917-.564 1.985-.793a18.097 18.097 0 0 0 1.819-.532c1.096-.388 1.958-.571 3.675-.78.97-.119 1.72-.133 7.19-.133 7.81 0 7.936.012 11.018 1.04.358.119.976.304 1.373.41.398.108.883.274 1.079.37.548.269 1.928 1.464 2.329 2.017.192.266.433.584.536.708.584.705.873 1.364 1.113 2.537.065.318.194.903.287 1.3.21.891.376 1.91.437 2.674.026.318.094.877.151 1.243.113.721.081 1.142-.118 1.539-.153.306-.295.436-.72.66l-.325.17-12.536.037c-9.235.026-12.586.058-12.722.12-.383.172-.64.461-.766.863-.114.36-.117.503-.035 1.588.17 2.24.458 2.872 1.707 3.734.526.363 1.783.926 2.422 1.085 1.637.407 6.737.54 9.036.237 2.047-.271 3.12-.956 3.87-2.469.435-.88.895-1.373 1.467-1.575.366-.129.614-.137 3.715-.128 2.822.008 3.385.027 3.727.126.838.242 1.218.775 1.134 1.593-.078.756-.513 1.909-1.074 2.846-.392.653-1.102 1.289-2.04 1.825-.358.205-.89.528-1.183.718-.59.384-1.085.55-2.322.78-.457.086-1.286.28-1.842.432-1.358.37-1.91.486-3.146.653-.93.126-1.587.145-5.959.172-2.702.017-5.076.017-5.274.001zm11.598-16.51c.59-.095 1.03-.349 1.284-.739.183-.281.196-.354.19-1.025-.01-.82-.115-1.167-.606-1.994-.678-1.141-1.607-1.769-2.988-2.018-1.099-.198-4.9-.311-7.238-.215-3.355.137-3.509.185-5.219 1.612-.483.403-.639.586-.829.971-.219.445-.235.533-.262 1.396-.027.863-.017.946.153 1.319.187.407.379.582.796.726.318.109 14.034.08 14.719-.032zm-38.838 16.268c-3.35-.04-3.4-.043-3.655-.201-.304-.19-.597-.696-.707-1.226-.085-.406-.118-35.277-.034-36.458l.044-.632h9.861l.041.632c.077 1.185.05 35.73-.028 36.215-.12.745-.478 1.313-.962 1.523-.42.182-.753.193-4.56.147zm-66.296-.07c-.669-.137-1.123-.575-1.308-1.261-.106-.392-.106-23.545 0-23.937.133-.493.46-.924.847-1.116l.352-.175h3.722c3.47 0 3.739.01 3.989.133.513.256.848.721.996 1.385.052.228.076 4.051.076 11.741 0 7.69-.024 11.514-.076 11.742-.148.664-.483 1.13-.996 1.384-.249.124-.526.134-3.809.144-1.947.006-3.654-.012-3.793-.04zm2.746-32.516c-2.61-.037-3.027-.058-3.216-.163-.539-.299-.784-.717-.897-1.532-.088-.629-.103-2.3-.031-3.466l.047-.77h9.934l.052.56c.148 1.562.078 3.56-.147 4.218-.152.446-.539.884-.918 1.04-.382.158-.86.169-4.824.113z" fill="#cacaca"/></svg>