<svg xmlns="http://www.w3.org/2000/svg" viewBox="0 0 210 297" height="297mm" width="210mm"><path d="M125.05 71.444l-.02-.44-.494-.26a10.389 10.389 0 0 0-1.1-.479c-.727-.26-1.189-.53-1.945-1.135a33.997 33.997 0 0 0-1.137-.863c-1.116-.802-1.67-1.603-1.667-2.413.002-.648.322-1.237 1.126-2.075a23.21 23.21 0 0 0 1.084-1.215c.482-.598 1.556-1.597 1.918-1.784.159-.082.335-.108.573-.085.295.028.488.131 1.346.72.55.379 1.243.887 1.539 1.13.786.646 1.397.845 3.248 1.063.984.115 1.489.098 2.522-.084 1.191-.21 1.8-.458 2.365-.96.192-.171.587-.486.878-.7a7.05 7.05 0 0 0 1.304-1.261c.077-.096.287-.348.466-.56.513-.61.693-1.06.974-2.432.354-1.73.347-2.753-.033-4.652-.318-1.583-.473-1.915-1.379-2.938-1.47-1.66-1.552-1.721-3.165-2.348l-1.586-.62c-.552-.22-.588-.224-1.727-.225l-1.163-.002-.705.311c-.388.17-1.022.441-1.41.601-.892.368-1.232.603-2.15 1.483-1.016.976-1.39 1.136-2.138.918-.568-.165-1.288-.596-1.704-1.021a17.21 17.21 0 0 0-.95-.867c-.33-.28-.662-.568-.74-.64-.233-.219-1.04-.722-1.298-.809a2.223 2.223 0 0 0-.584-.081c-.283 0-.377.033-.519.186-.27.291-.316.613-.296 2.044.015 1.141 0 1.36-.102 1.54-.211.376-.564.684-1.038.909l-.463.22h-2.608c-2.55 0-2.615-.004-2.897-.155a2.243 2.243 0 0 1-.52-.418c-.478-.544-.45-.065-.437-7.498.013-7.35-.052-10.66-.223-11.26-.112-.397-.683-1.51-1.085-2.116-.505-.763-1.103-1.062-2.496-1.249-.838-.112-.941-.112-1.727 0-1.404.201-2.122.525-2.613 1.18-1.134 1.517-1.291 1.771-1.49 2.413-.095.304-.113 1.19-.135 6.415-.014 3.334.008 7.191.049 8.571.083 2.827.064 3.008-.372 3.456-.382.394-.538.414-3.302.414-2.79 0-2.905-.016-3.435-.47a2.165 2.165 0 0 1-.441-.542c-.147-.288-.149-.352-.161-5.473-.01-3.879-.035-5.278-.101-5.569-.068-.292-.087-1.483-.08-4.864.01-3.849-.006-4.625-.112-5.533-.097-.836-.123-1.648-.122-3.89v-2.834l.26-.525a3.175 3.175 0 0 1 1.436-1.43l.403-.198 2.426.009 2.425.008.29.202c.16.112.445.433.634.714.484.725.73.896 1.286.895.419-.002.47-.021 1.034-.405.63-.428.896-.543 1.742-.753 2.05-.509 4.492-.494 6.792.04.942.218.996.241 1.738.74.33.222.897.58 1.262.795.81.477 1.066.703 1.573 1.382.217.29.557.718.757.95.482.564.736 1.103.977 2.08.403 1.63.838 1.978 1.566 1.25.39-.39 1.308-1.775 1.758-2.65.31-.604.497-.85 1.285-1.695.574-.617 1.12-1.126 1.45-1.354.29-.2.721-.54.959-.753.469-.421.982-.685 2.017-1.035a21.375 21.375 0 0 0 1.48-.587c.908-.403 1.382-.538 2.254-.645 1.354-.165 3.244-.023 5.253.395 1.968.41 1.9.405 6.097.416l3.912.011.45.228c.247.125.604.382.793.57.319.32.343.37.343.696 0 .224-.077.55-.215.902-.119.303-.31.979-.424 1.502-.251 1.146-.517 1.717-1.163 2.503-.256.31-.564.77-.686 1.022-.196.407-.22.528-.223 1.092-.001.35.052.936.12 1.304.206 1.13.288 2.285.293 4.088.005 2.29-.145 3.04-.814 4.062-.465.71-.807 1.378-.937 1.824-.426 1.468-.216 2.408.836 3.74.35.444.675.965.953 1.533.231.473.526 1.018.655 1.212.455.687.628 1.032.971 1.94.191.505.44 1.053.555 1.219.404.588.974.697 1.199.229.449-.937.549-1.816.4-3.515-.094-1.081-.117-2.975-.143-12.067-.034-11.702-.008-10.95-.422-12.154-.227-.661-.225-.776.031-1.789.309-1.22.368-2.083.311-4.563-.055-2.421-.022-2.664.414-3.078.635-.603 1.013-.658 4.21-.613 2.847.041 3.065.068 3.423.426.409.41.413.435.446 2.915a831.94 831.94 0 0 1 .006 14.415c-.032 2.468-.025 2.658.125 3.537.198 1.164.203 2.156.016 3.653-.202 1.61-.239 3.05-.149 5.744.112 3.36.12 7.428.013 7.816-.123.452-.406.836-.773 1.052l-.323.19-2.439.021-2.439.02-.486-.184c-1.25-.476-1.823-.576-2.064-.358-.253.23-.288.622-.276 3.109.016 3.332-.109 4.176-.89 6.023a25.34 25.34 0 0 0-.64 1.695c-.334 1.018-.426 1.2-1.013 1.997-.262.356-.632.9-.821 1.21-.19.31-.66.897-1.047 1.305l-1.055 1.117c-.195.207-.627.56-.96.784a21.44 21.44 0 0 0-1.133.824c-.757.6-.932.692-1.954 1.043-.506.173-1.09.406-1.297.518l-.377.203-.02.434-.022.434h-9.924zm-7.225-27.684c1.11-.415 1.596-1.527 1.285-2.934-.252-1.137-.687-1.801-1.446-2.205-.578-.309-.763-.28-.976.15-.143.288-.174.495-.228 1.516-.066 1.233-.027 2.617.085 3.064.132.528.579.671 1.28.409zm12.924-5.222c1.228-.373 2.543-1.212 3.143-2.005.317-.419.75-1.38 1.013-2.253.305-1.013.276-1.592-.139-2.773-.579-1.649-.65-1.749-1.97-2.735-1.123-.841-1.37-.972-2.022-1.078-1.028-.167-1.938-.066-2.608.288-.534.283-1.59 1.047-1.977 1.431-.284.282-.914 1.256-1.389 2.146-.347.65-.448 1.44-.296 2.302.1.57.226.87.624 1.502.186.296.488.781.67 1.079.55.897.942 1.18 2.686 1.935.626.272.764.306 1.243.307.348 0 .71-.051 1.022-.146zM18.695 52.667c-.31-.193-.472-.522-.77-1.563a10.159 10.159 0 0 0-.74-1.904c-.249-.491-.52-1.147-.605-1.457-.352-1.289-.518-1.73-.948-2.501-.494-.888-.533-.987-.954-2.433-.264-.91-.4-1.219-1.122-2.538-.177-.324-.327-.77-.56-1.656a7.236 7.236 0 0 0-.543-1.445c-.76-1.456-.879-1.724-1.048-2.374-.278-1.065-.484-1.617-.854-2.29-.524-.95-.718-1.427-.951-2.332-.205-.792-.41-1.266-1.104-2.555a6.12 6.12 0 0 1-.436-1.093c-.318-1.192-.591-1.927-.954-2.573-.468-.832-.678-1.361-.952-2.396-.203-.767-.34-1.085-1.05-2.432-.17-.323-.413-.97-.57-1.516-.377-1.317-.515-1.658-.959-2.373-.66-1.062-.764-1.324-.767-1.931-.003-.455.023-.573.173-.798.097-.145.302-.33.456-.41.27-.14.375-.145 3.005-.132 1.5.007 2.979.039 3.288.07.999.1 1.421.427 1.854 1.431.105.244.379.76.609 1.148.466.785.633 1.181.893 2.12.21.756.394 1.169.925 2.074.25.425.471.927.607 1.374.401 1.316.579 1.75 1.009 2.462.408.677.535.996 1.006 2.527.117.382.36.909.635 1.375.46.78.621 1.2.833 2.165.393 1.794 1.223 2.007 2.29.587.543-.722.917-1.444 1.23-2.375.269-.795.43-1.128.844-1.732.38-.556.61-1.039.854-1.802.235-.73.375-1.019.806-1.656.453-.67.583-.94.888-1.838.308-.91.37-1.038.806-1.686.447-.664.652-1.085.876-1.793.3-.954.642-1.602 1.066-2.027.6-.6 1.178-.75 1.656-.427.302.203.453.468.75 1.309a7.17 7.17 0 0 0 1.008 1.916c.153.213.41.72.57 1.127.327.826.6 1.343.986 1.871.327.447.546.884.847 1.689.157.42.429.92.805 1.48.312.466.61.958.66 1.093l.199.528c.18.484.5 1.103.903 1.755.213.345.507.942.652 1.328.413 1.093.827 1.478 1.384 1.286.345-.119.501-.263.83-.768.577-.886 1.106-2.138 1.504-3.558.193-.69.437-1.23.841-1.862.319-.499.41-.732.74-1.882.28-.973.457-1.386 1.027-2.396.164-.29.4-.862.523-1.269.549-1.809.541-1.79 1.23-2.91a19.1 19.1 0 0 0 .65-1.134c.39-.786.892-1.192 1.72-1.394.475-.116 2.087-.197 3.999-.203 1.887-.005 1.934-.002 2.223.157.171.095.364.281.459.445.144.247.16.354.138.867-.026.584-.029.592-.746 2.01-.749 1.482-.742 1.463-1.21 3.537-.19.845-.27 1.018-.703 1.492-.495.544-.633.866-.993 2.314-.245.99-.246.994-.771 2.185a13.77 13.77 0 0 0-.63 1.798c-.32 1.249-.535 1.847-.925 2.573-.438.817-.63 1.339-.908 2.467-.184.746-.329 1.125-.783 2.044-.47.95-.608 1.315-.878 2.326-.376 1.41-.368 1.39-.922 2.432-.257.482-.496 1.053-.592 1.41-.495 1.836-.596 2.126-1.097 3.136-.429.865-.574 1.25-.797 2.115-.327 1.265-.448 1.59-.87 2.343-.404.717-.55 1.11-.793 2.133-.404 1.701-.561 2.076-.977 2.33-.438.267-1.09.128-1.557-.332-.355-.35-.603-.815-.823-1.54-.331-1.09-.564-1.648-.914-2.185-.434-.666-.633-1.107-.978-2.16-.195-.598-.41-1.085-.653-1.48-.577-.938-.748-1.304-1.018-2.171-.288-.924-.381-1.128-.924-2.01-.287-.466-.475-.898-.721-1.657-.36-1.108-.438-1.28-.982-2.181-.197-.326-.41-.77-.471-.987-.393-1.37-.531-1.748-.703-1.932-.547-.585-1.098-.356-1.833.761a9.932 9.932 0 0 0-1.232 2.68c-.208.748-.31.968-1.01 2.18a5.983 5.983 0 0 0-.469 1.057c-.387 1.311-.589 1.79-1.078 2.56-.383.604-.475.826-.83 1.992-.281.929-.439 1.278-1.036 2.295-.168.285-.443.952-.645 1.563-.251.762-.546 1.443-1.034 2.392-.376.73-.75 1.401-.83 1.492-.318.355-.71.449-1.034.248zm152.257-.594a15.434 15.434 0 0 1-1.515-.206c-.427-.083-1.204-.227-1.727-.32-1.6-.285-2.2-.49-2.903-.99-.182-.13-.737-.445-1.234-.702-.978-.506-1.228-.674-1.714-1.152a19.838 19.838 0 0 0-.884-.79 6.414 6.414 0 0 1-.985-1.064 20.25 20.25 0 0 0-.79-1.026c-.428-.51-.683-.99-1.066-2.005-.151-.4-.437-1.048-.636-1.439-.716-1.41-.872-2.15-1.247-5.914-.146-1.46-.113-2.243.174-4.161.297-1.989.42-2.413 1.098-3.804.321-.66.683-1.437.803-1.728.254-.612.425-.869 1.374-2.055.901-1.126 1.672-1.864 2.547-2.439a20.92 20.92 0 0 0 1.128-.794c.65-.509 1.119-.708 2.326-.987.349-.08.936-.243 1.304-.361 1.523-.49 2.697-.694 3.978-.693 1.234 0 2.921.281 4.09.68.273.094.845.25 1.271.346 1.35.308 2.102.597 2.564.985.123.103.698.462 1.278.797.998.576 1.113.667 2.107 1.647.802.792 1.124 1.164 1.357 1.57.17.293.46.777.648 1.077.596.951.735 1.44.52 1.827-.047.085-.52.597-1.05 1.139-.784.801-1.086 1.058-1.628 1.381a11.88 11.88 0 0 0-1.292.925c-.345.29-.84.655-1.099.81-.26.154-.736.51-1.058.79-.322.28-.839.666-1.149.857-.31.19-.866.592-1.236.891-.37.3-.944.705-1.275.9-.33.196-.817.551-1.08.79-.264.24-.786.633-1.161.875-.375.243-.886.623-1.135.845a8.68 8.68 0 0 1-1.099.79c-.355.212-.913.601-1.239.866a18.55 18.55 0 0 1-1.212.887c-.81.533-.996.805-.99 1.439.009.754.406 1.325 1.216 1.752.796.419 2.373.742 3.608.74.83-.002 2.883-.268 3.7-.48.925-.24 1.69-.762 3.222-2.199.99-.928 1.505-1.106 2.208-.762.475.232.775.643 1.084 1.483.321.874.412 1.065.787 1.663.485.775.594 1.073.59 1.616-.005.651-.18.963-1.123 1.993-.788.861-.913.959-1.904 1.497a14.48 14.48 0 0 0-.987.602c-.995.672-1.4.796-4.158 1.27-2.472.425-2.853.454-4.406.34zm-5.937-16.754a9.93 9.93 0 0 0 .855-.546c.271-.194.678-.457.902-.584.225-.128.647-.44.938-.694.29-.254.831-.648 1.202-.876.37-.229.91-.62 1.198-.872a7.75 7.75 0 0 1 .983-.724c.627-.366 2.09-1.464 2.413-1.809.474-.509.528-1.103.144-1.586-.286-.359-.967-.802-1.655-1.075-.494-.197-.694-.237-1.29-.258l-.704-.026-1.444.718-1.443.719-.712.714c-.879.882-1.15 1.22-1.442 1.807a12.27 12.27 0 0 1-.535.934c-.664 1.03-.817 1.55-.83 2.837-.007.712.012.88.123 1.064.29.48.723.565 1.297.257zM74.349 51.58c-1.187-.14-2.222-.393-2.64-.646a9.491 9.491 0 0 1-.637-.444 15.166 15.166 0 0 0-1.143-.738c-.934-.549-1.697-1.29-2.974-2.886-.703-.879-.804-1.114-1.302-3.035-.427-1.647-.526-2.253-.52-3.206.004-.933.07-1.28.613-3.243.468-1.687.574-1.92 1.237-2.714.178-.213.502-.66.72-.994.293-.45.507-.687.825-.916.237-.17.708-.518 1.047-.772.835-.626 1.03-.735 1.602-.904.798-.236 2.935-.574 3.9-.618.99-.045 3.363.073 3.748.186.446.13 1.363.167 1.767.07.505-.121 1.047-.649 1.177-1.145.2-.768.047-1.485-.414-1.947-.513-.513-.42-.503-5.17-.501-4.563.002-4.64-.004-5.27-.373-.337-.198-.548-.529-.548-.861 0-.105.108-.44.24-.745.212-.49.393-1.137.768-2.751.218-.936.623-1.475 1.373-1.828.806-.38.52-.366 7.75-.367l6.712-.002.38.186c.496.243.99.778 1.264 1.369l.219.472.023 1.516c.014.909.065 1.755.127 2.114.058.334.105 1.037.105 1.586 0 .543.05 1.495.112 2.115.099.991.107 2.114.065 9.27-.037 6.301-.028 8.284.04 8.775.048.349.09.967.094 1.374.005.658-.014.779-.17 1.087-.369.724-1.206 1.28-2.192 1.457-.742.133-3.152-.012-4.179-.25-1.008-.235-1.625-.23-3.15.03-1.488.252-3.124.428-3.898.418a21.737 21.737 0 0 1-1.7-.14zm4.076-7.078c.606-.158.856-.311 1.687-1.033 1.152-1 1.36-1.406 1.309-2.546-.026-.574-.058-.704-.266-1.094-.311-.581-1.38-1.614-1.95-1.884-.926-.438-2.85-.516-3.88-.158-.88.306-1.963 1.288-2.37 2.148-.208.44-.227.535-.227 1.183 0 .624.023.753.197 1.128.214.457.599.888 1.319 1.476.874.714 1.378.873 2.787.88.665.003 1.122-.03 1.394-.1zM53.626 51.31c-.494-.125-.932-.496-1.047-.888-.039-.131-.081-5.59-.167-21.569-.02-3.567-.04-6.787-.045-7.158-.008-.536.016-.711.115-.862.344-.525 1.303-.695 4.155-.735 2.486-.035 2.554-.024 3.897.65 1.096.55 1.207.56 2.232.204.4-.14.934-.316 1.186-.392.252-.077.866-.333 1.364-.57.849-.402.938-.43 1.414-.43.682 0 1.14.24 1.57.824.429.582.51.928.59 2.478.038.736.088 1.6.112 1.92.052.694-.004.867-.484 1.477-.59.752-1.18 1.105-2.267 1.359a5.148 5.148 0 0 0-1.764.773 10.64 10.64 0 0 1-.935.531c-1.027.523-2.075 1.529-2.48 2.38-.462.971-.75 2.948-.686 4.72.082 2.285.153 14.046.086 14.32-.084.35-.433.697-.866.862-.307.117-.612.131-3.055.144-1.492.009-2.809-.009-2.925-.038zm134.938-.075c-1.024-.135-1.536-.72-1.778-2.033-.084-.458-.097-2.654-.083-14.216l.017-13.675.147-.409c.228-.629.557-1.037 1.037-1.283l.413-.211 1.873-.024c2.991-.038 2.86-.044 3.195.13.165.085.475.322.69.527.812.771 1.28.866 2.64.536.755-.184 1.07-.305 1.83-.704 1.141-.598 1.784-.802 2.54-.808.676-.005 1.065.163 1.338.575.267.403.31.809.329 3.054.017 2.206-.016 2.539-.322 3.206-.409.893-1.063 1.331-2.578 1.725-.697.181-.819.237-1.621.74a9.33 9.33 0 0 1-1.058.568c-1.012.428-1.42.817-2.165 2.063-.668 1.118-.68 1.262-.628 7.58.024 2.871.063 6.338.088 7.703.056 3.19-.037 3.893-.594 4.487-.385.41-.499.43-2.622.434-1.066.002-2.017.023-2.114.046-.097.023-.355.018-.574-.01zm-30.13-34.07c-.73-.277-1.246-.752-1.56-1.436-.15-.33-.17-.461-.149-.96.031-.685.19-1.048.712-1.635.736-.826 1.773-1.14 2.74-.83.533.17 1.182.814 1.405 1.394.235.61.238 1.73.006 2.308-.192.48-.568.882-1.042 1.114-.51.25-1.516.27-2.112.045z" fill="#cacaca"/></svg>