<svg xmlns="http://www.w3.org/2000/svg" viewBox="0 0 210 297" height="297mm" width="210mm"><path d="M65.69 58.521c-.016-.015-.778-.063-1.693-.107-3.82-.185-4.919-.38-6.725-1.193-.607-.273-1.568-.6-2.442-.832-.862-.227-1.527-.488-1.878-.735l-.74-.525a19.608 19.608 0 0 0-1.277-.799c-.72-.413-.924-.58-2.011-1.651-1.043-1.027-1.302-1.328-1.87-2.174-.361-.54-.791-1.178-.955-1.418-.311-.456-.601-1.094-.929-2.042a30.762 30.762 0 0 0-.735-1.78c-1.044-2.343-1.27-3.871-1.265-8.59.004-4.57.21-5.847 1.326-8.25.127-.275.368-.896.534-1.38.384-1.123.623-1.641.963-2.092l.599-.791a10.8 10.8 0 0 0 .672-1.056c.3-.541.52-.8 1.655-1.938 1.252-1.255 1.35-1.336 2.195-1.818a15.96 15.96 0 0 0 1.415-.91c.653-.497 1.16-.74 2.124-1.017.409-.118.919-.266 1.133-.33.214-.063.821-.3 1.35-.525 1.597-.682 2.41-.895 4.171-1.093 2.158-.243 6.938-.205 8.74.07 1.124.17 1.556.302 2.806.856.796.353 1.515.612 2.23.802 1.786.478 2.195.654 2.91 1.258.204.172.714.507 1.133.743 1.178.666 1.316.776 2.639 2.104 1.261 1.267 1.402 1.445 2.738 3.474.901 1.368 1.152 1.858 1.468 2.867.146.467.409 1.28.583 1.805.755 2.272 1.16 3.96 1.346 5.623.1.897.106 1.19.035 1.941-.144 1.53-.533 2.096-1.616 2.354-.25.06-3.745.088-12.993.105-13.82.025-12.82-.008-13.236.43-.463.488-.676 1.552-.483 2.42.244 1.103 1.065 2.528 2.226 3.869 1.299 1.498 2.125 1.947 3.97 2.156 1.675.19 5.203-.091 6.313-.503.722-.268.997-.494 2.18-1.793 1.37-1.504 1.697-1.772 2.456-2.018.454-.146.544-.149 5.02-.126 5.128.027 5.03.017 5.557.557.581.595.549 1.417-.098 2.49-.46.762-.628 1.128-.937 2.037-.339.993-.6 1.483-1.137 2.134-.266.323-.707.891-.98 1.263-.615.84-1.132 1.336-1.952 1.868-.35.228-.99.68-1.423 1.006-.852.642-1.274.845-2.342 1.124-.926.242-1.919.57-2.582.853a13.35 13.35 0 0 1-3.422.947c-1.43.197-6.633.451-6.766.33zm3.652-26.615c1.034-.156 1.497-.44 1.799-1.107.272-.6.153-1.275-.422-2.405-.154-.302-.28-.569-.28-.593 0-.191-.752-1.583-1.002-1.854-.267-.29-1.11-.952-1.211-.952-.02 0-.223-.124-.451-.276-1.009-.67-1.437-.815-2.282-.771-.734.037-1.081.173-2.133.83-1.124.702-1.684 1.301-2.322 2.482-1.022 1.891-1.096 2.067-1.131 2.675-.027.462-.006.612.128.923.214.498.598.818 1.153.96.641.165.583.163 4.19.173 2.48.008 3.489-.014 3.964-.085zm111.95 26.112a26.745 26.745 0 0 1-1.31-.136c-.155-.027-.49-.082-.743-.123-.531-.086-1.024-.223-2.548-.708a25.06 25.06 0 0 0-1.734-.488c-.916-.2-1.862-.486-2.23-.673-.175-.09-.61-.38-.965-.646a55.02 55.02 0 0 0-1.31-.943c-1.005-.697-1.682-1.418-2.576-2.744-1.564-2.32-1.577-2.348-1.858-4.302-.167-1.162-.175-1.317-.089-1.72.126-.595.386-.938.9-1.19l.412-.201 2.867.023c6.074.05 6.538.06 6.866.157.801.236 1.183.648 1.582 1.709.405 1.074.712 1.457 1.657 2.066.997.643 1.947 1.034 2.955 1.215 1.465.264 3.667-.066 4.773-.714.822-.482 1.422-1.372 1.42-2.106-.002-.623-.32-1.346-.79-1.795-.483-.462-.873-.627-2.173-.916-.453-.101-1.556-.432-2.451-.734-1.816-.614-2.089-.684-3.865-.99-1.6-.276-2.948-.663-5.302-1.524-.37-.136-.975-.315-1.345-.399-1.21-.274-1.872-.588-2.692-1.279a38.371 38.371 0 0 0-1.194-.944c-.759-.576-1.1-.953-1.454-1.609-.109-.201-.44-.734-.734-1.183-.842-1.28-1.072-1.969-1.23-3.685-.1-1.088-.034-4.033.108-4.79.203-1.082.35-1.453.945-2.38.177-.277.465-.79.641-1.14.467-.93.71-1.25 1.744-2.281.86-.859 1.442-1.309 2.188-1.693.148-.077.562-.358.92-.625.855-.637 1.456-.911 2.727-1.245a22.333 22.333 0 0 0 2.034-.66 32.785 32.785 0 0 1 1.341-.499c2.105-.666 9.165-.917 12.195-.433 1.388.222 1.599.288 3.662 1.149.272.114.706.26.963.324 1.236.31 2.053.678 2.711 1.22.25.206.785.597 1.192.869.698.468 1.135.86 1.58 1.425.109.136.427.486.709.778.647.672.923 1.113 1.302 2.088.166.429.45 1.066.63 1.416.305.592.328.673.328 1.172 0 .46-.027.577-.185.816-.24.364-.765.645-1.447.776-.756.144-7.954.152-8.507.008-.425-.11-.867-.428-1.243-.894-.66-.821-1.09-1.172-2.28-1.86-1.255-.727-1.754-.885-3.292-1.046-.918-.096-2.113-.047-2.743.113-.851.216-2.6 1.238-3.083 1.802-.49.573-.505 1.282-.042 1.955.234.34 1.146 1.058 1.702 1.34.505.256 1.247.433 2.502.596 1.511.196 2.442.412 4.158.963 1.83.588 2.567.773 4.054 1.021 2.418.404 2.87.536 4.353 1.273.448.222.99.462 1.204.532 1.86.61 2.854 1.477 5.015 4.376.437.586.774 1.68.93 3.02.225 1.93.224 3.625-.003 5.521-.23 1.922-.42 2.5-1.137 3.445-.202.266-.578.803-.834 1.192-.353.535-.725.96-1.529 1.746-1.266 1.237-1.246 1.221-2.053 1.65-.35.186-.909.537-1.241.78-.974.712-1.504.923-2.935 1.167-.983.167-1.72.35-2.618.647-.805.268-2.116.594-2.762.689-1.294.188-1.627.226-2.584.292-1.374.095-4.885.076-6.158-.033zm-72.911-.956c-2.687-.035-4.03-.078-4.247-.136-.777-.208-1.252-.67-1.753-1.705a17.685 17.685 0 0 0-.808-1.435c-.535-.846-.728-1.264-1.128-2.448-.282-.836-.428-1.127-.986-1.958-.416-.62-.695-1.22-.982-2.109-.301-.934-.485-1.332-.904-1.96-.6-.897-.726-1.158-1.093-2.243-.365-1.076-.572-1.501-1.107-2.266-.386-.553-.727-1.292-.975-2.11-.23-.762-.512-1.338-1.073-2.194-.47-.717-.61-1.024-.963-2.093a10.613 10.613 0 0 0-1.042-2.236 8.435 8.435 0 0 1-.815-1.76 10.002 10.002 0 0 0-.942-2.036c-.498-.83-.684-1.222-1.032-2.166a11.875 11.875 0 0 0-1.151-2.386c-.424-.684-.725-1.3-1.003-2.047-.33-.892-.467-1.177-.864-1.81-.694-1.109-.917-1.648-.916-2.22.001-1.056.715-1.615 1.91-1.496.254.025 2.103.063 4.11.083 3.013.03 3.933.016 5.274-.084.893-.066 1.895-.134 2.227-.152 1.16-.062 1.809.244 2.889 1.36.978 1.013 1.1 1.248 1.762 3.399.136.443.358.905.73 1.521.672 1.113.798 1.386 1.058 2.284.342 1.182.707 2 1.174 2.636.267.363.503.893.772 1.737.43 1.344.726 2.06 1.065 2.581.472.724.832 1.516 1.127 2.478.362 1.18.503 1.52.983 2.371.69 1.225 1.11 1.763 1.55 1.989.387.2.683.174.997-.084.343-.283.472-.546.789-1.609.33-1.102.427-1.327.986-2.27.468-.787.564-1.016.87-2.06.265-.912.499-1.457.936-2.182.218-.363.456-.76.529-.884.072-.124.33-.814.574-1.535.547-1.624.57-1.676 1.03-2.41.514-.818.786-1.433 1.095-2.47.296-.995.499-1.46.931-2.141.418-.657.64-1.11.916-1.876.496-1.368.89-1.872 1.819-2.318 1.037-.5 1.565-.536 4.581-.321.758.054 1.59.063 2.372.027 1.74-.08 2.25-.059 2.64.113.67.296.86.645.862 1.58.003 1.048-.184 1.565-1.002 2.782-.382.569-.686 1.274-.975 2.266a6.406 6.406 0 0 1-.895 1.913c-.511.77-.736 1.242-1.054 2.217-.333 1.024-.585 1.581-1.02 2.26-.497.778-.658 1.124-1.054 2.27-.468 1.353-.575 1.59-1.039 2.294-.483.734-.717 1.248-1.091 2.404-.332 1.023-.428 1.23-.957 2.044-.528.814-.69 1.161-1.021 2.18-.387 1.191-.478 1.392-1.05 2.298-.533.843-.76 1.348-1.054 2.336a7.186 7.186 0 0 1-.936 1.994c-.432.636-.696 1.206-1.04 2.247-.359 1.086-.513 1.413-1.076 2.286-.49.758-.626 1.065-1.013 2.272-.46 1.436-.907 2-2.033 2.557-.596.296-1.131.425-1.893.455-.353.015-2.41.004-4.571-.024zm30.411-.013c-.913-.09-1.714-.642-2.088-1.438-.243-.517-.314-1.199-.225-2.172.054-.595.077-6.03.076-17.888-.002-18.04-.014-17.348.31-17.975.193-.371.677-.796 1.175-1.03l.46-.217 5.544.01c3.05.006 5.647.032 5.77.059a1.885 1.885 0 0 1 1.27.986c.36.703.342-.236.34 18.123-.001 9.421.025 17.497.057 17.944.126 1.744-.158 2.692-.945 3.154-.658.385-.799.402-3.54.43-5.49.056-7.736.06-8.204.014zM7.247 56.833c-.449-.064-.955-.28-1.275-.544-.29-.24-.657-.766-.658-.944 0-.107-.073-.124-.53-.124h-.532V18.553h.531c.458 0 .531-.017.531-.124 0-.18.368-.705.661-.947.327-.27.755-.454 1.286-.556.303-.058 1.926-.074 5.663-.057 5.193.023 5.242.025 5.704.18.59.199.998.494 1.222.882.285.495.353 1.013.303 2.32-.024.643-.048 6.417-.052 12.83l-.008 11.663.167.478a2.28 2.28 0 0 0 1.158 1.295l.354.174 9.123.013c6.885.01 9.211.033 9.485.099.564.133 1.089.411 1.31.693.52.664.573.983.662 3.973.04 1.382.071 2.704.067 2.938-.02 1.225-.557 1.976-1.645 2.307-.47.142-.613.144-16.823.157-8.992.007-16.51-.01-16.704-.038zm151.5-31.38c-.33-.178-.446-.309-.574-.645-.255-.666.06-1.707.729-2.416.173-.184.514-.987.598-1.412.155-.778-.169-1.437-.805-1.64-.127-.04-.603-.12-1.057-.178-.936-.118-1.281-.26-1.61-.658-.459-.557-.467-.63-.467-4.198v-3.221l.195-.466a2.15 2.15 0 0 0 .194-.938V9.21h8.424v.502c0 .378.033.549.133.69.074.104.193.348.266.542.12.323.134.637.155 3.54.026 3.56.011 3.732-.422 4.944-.319.892-.653 1.518-1.113 2.084l-.434.538c-.059.074-.189.233-.29.354-.1.121-.336.443-.526.716-.674.967-1.567 1.905-2.085 2.186-.453.247-1.014.31-1.311.149z" fill="#c9c9c9"/></svg>