<svg xmlns="http://www.w3.org/2000/svg" width="4299.828" height="671.116" viewBox="0 0 1137.663 177.566"><path d="M972.83 174.81c-13.425-2.796-22.934-6.14-34.628-12.177l-6.901-3.563 11.456-.659c12.791-.735 23.625-3.22 32.834-7.529 7.948-3.719 17.287-9.41 17.287-10.535 0-.488-1.302-.886-2.894-.886-8.45 0-22.447-7.591-28.787-15.612-3.369-4.262-7.461-11.125-7.461-12.513 0-.284 2.9-.522 6.444-.529 3.544-.008 7.41-.272 8.592-.588 2.276-.61 2.973-2.262.955-2.264-2.708-.002-13.332-5.876-17.387-9.615-5.302-4.887-10.305-12.951-12.353-19.914-1.377-4.679-2.072-11.521-1.17-11.521.196 0 2.236.823 4.535 1.83 3.886 1.702 13.248 3.656 13.248 2.765 0-.218-2.338-2.81-5.196-5.76-12.042-12.433-15.865-29.453-10.086-44.9 1.13-3.02 2.292-5.489 2.584-5.489.292 0 4.715 4.016 9.829 8.925 19.001 18.238 39.634 28.788 64.78 33.123 15.55 2.68 14.159 3.368 14.09-6.963-.093-13.832 3.838-23.175 13.714-32.595 5.843-5.574 11.185-8.502 19.592-10.741 11.835-3.153 25.84.246 36.444 8.844 2.189 1.774 4.909 3.226 6.045 3.226 2.513 0 15.322-4.32 20.38-6.872 2.02-1.02 3.905-1.62 4.19-1.336 1.02 1.02-6.05 11.32-10.966 15.978-2.757 2.612-5.012 4.988-5.012 5.28 0 .917 8.823-.733 14.622-2.734 3.054-1.054 5.76-1.708 6.015-1.454.744.744-9.709 12.603-14.168 16.074-2.245 1.748-4.398 3.619-4.784 4.157-.385.539-.708 4.906-.716 9.705-.044 26.152-12.656 57.848-31.414 78.943-11.11 12.497-21.19 20.24-35.906 27.586-11.125 5.554-18.396 7.899-33.46 10.792-16.493 3.168-27.4 3.05-44.347-.479zm-918.413 1.228c-18.601-3.082-37.592-17.408-46.586-35.145C.599 126.632 0 120.901 0 65.909 0 15.728.186 14.06 6.527 7.361 13.655-.169 23.2-1.973 32.194 2.51 41.971 7.382 44.87 14.058 44.87 31.7v12.29l4.058.03 35.085.238c29.183.198 31.283.329 35.323 2.2 5.55 2.569 9.871 7.553 11.936 13.768 3.333 10.036-1.316 20.625-11.458 26.097-3.688 1.99-5.044 2.07-39.381 2.343l-35.563.282v13.353c0 14.904.853 18.254 6.016 23.636 6.088 6.348 5.91 6.315 37.423 6.84 31.751.53 31.516.485 38.082 7.245 3.665 3.774 6.316 10.336 6.302 15.6-.013 4.69-3.831 12.477-7.73 15.765-6.186 5.215-6.946 5.317-38.772 5.176-16.163-.072-30.46-.308-31.774-.526zm132.702-1.098c-16.98-4.784-32.685-17.89-39.758-33.178-5.225-11.294-6.067-17.65-6.067-45.813 0-29.747.393-31.691 7.656-37.908 10.45-8.945 26.363-5.25 32.012 7.431.468 1.05 1.078 13.939 1.356 28.641l.505 26.732 2.678 4.556c6.406 10.896 20.786 13.444 30.518 5.405 6.776-5.597 6.846-5.937 7.379-35.738.423-23.697.68-27.11 2.26-30.073 4.186-7.848 10.283-11.63 18.877-11.711 7.205-.068 13.358 3.527 17.502 10.226l2.89 4.67.477 26.81c.529 29.684.587 29.98 7.085 35.685 5.762 5.058 14.239 6.327 21.078 3.153 4.465-2.07 9.48-7.076 10.92-10.898.616-1.63 1.014-11.979 1.014-26.319 0-18.599.316-24.697 1.485-28.631 2.045-6.888 7.254-11.966 14.406-14.045 5.137-1.494 5.782-1.489 10.774.085 7.005 2.208 11.786 6.986 13.81 13.8 2.353 7.926 2.17 47.895-.273 59.737-2.683 13-7.211 21.184-17.197 31.082-12.922 12.81-25.431 18.055-43.054 18.055-13.998 0-26.382-4-36.553-11.81l-4.572-3.509-6.225 4.442c-3.424 2.443-9.529 5.75-13.567 7.347-6.545 2.589-8.64 2.938-19.277 3.214-9.385.244-13.258-.064-18.139-1.438zm186.649.252c-5.48-2.857-8.835-6.069-11.096-10.621l-2.276-4.584v-40.575c0-44.039-.038-43.686 5.442-50.762 3.78-4.88 10.179-7.792 16.984-7.728 8.16.077 15.37 4.566 19.383 12.07 2.061 3.852 2.113 4.796 2.394 43.88.246 34.159.072 40.59-1.201 44.423-3.23 9.725-11.016 15.404-21.107 15.393-3.266-.004-6.876-.637-8.523-1.496zm96.417.526c-19.127-3.839-34.933-16.972-41.474-34.46-8.415-22.499-12.696-65.57-10.555-106.18 1.08-20.483 1.744-23.092 7.301-28.707 8.763-8.853 24.955-7.917 32.424 1.876 4.426 5.802 5.144 10.395 5.144 32.916 0 15.672.298 20.982 1.22 21.747.78.648 9.191 1.029 23.285 1.056 13.456.025 23.128.446 24.79 1.078 10.2 3.878 16.55 16.08 13.687 26.304-1.422 5.077-7.172 11.881-12.12 14.34-3.118 1.549-6.634 1.855-26.04 2.268l-22.435.478.224 5.192c.312 7.242 1.753 10.957 5.536 14.279 4.62 4.056 8.613 4.859 24.312 4.889 11.35.021 14.538.342 17.7 1.778 5.128 2.33 11.346 9.54 12.847 14.899 2.85 10.184-2.956 21.688-13.093 25.936-3.443 1.443-35.936 1.68-42.753.311zm117.427.027c-13.868-2.88-26.824-10.863-34.454-21.228-6.995-9.501-12.605-27.358-15.677-49.902-2.59-19.007-2.676-82.33-.123-90.317.605-1.892 2.673-5.06 4.597-7.04 9.046-9.315 22.62-9.546 31.627-.539 5.9 5.899 6.262 7.697 6.663 32.969.255 16.073.696 23.116 1.478 23.614.614.39 11.164.716 23.446.724 21.154.014 22.555.126 26.582 2.137 5.215 2.605 9.557 7.911 11.37 13.895 2.938 9.698-1.809 20.08-11.593 25.36-3.516 1.897-5.598 2.099-26.254 2.538l-22.435.478-.337 2.386c-.573 4.063 1.787 12.286 4.425 15.422 4.601 5.468 8.48 6.492 24.674 6.515 10.98.016 15.329.385 18.14 1.54 12.572 5.165 18.053 20.559 11.242 31.575-1.55 2.506-4.669 5.86-6.931 7.451l-4.114 2.894-19.254.16c-10.59.089-20.972-.196-23.072-.632zm111.817-.879c-17.115-4.76-33.356-17.77-40.936-32.79-6.316-12.515-8.134-29.855-4.57-43.58 7.51-28.92 30.142-44.594 64.004-44.33 31.409.246 54.714 13.796 64.598 37.56 2.205 5.303 2.59 7.62 2.645 15.915.07 10.886-.974 13.357-7.197 17.022-3.07 1.809-5.236 1.925-40.905 2.19-24.638.184-38.083.63-38.878 1.29-.98.812-.945 1.532.177 3.701 2.926 5.66 10.862 9.162 22.929 10.121 9.568.76 15.053-.377 26.993-5.6 7.759-3.394 10.263-4.05 15.463-4.054 4.972-.004 6.826.436 9.323 2.215 11.54 8.222 5.187 25.29-12.782 34.344-11.659 5.874-17.35 7.03-36.638 7.444-15.24.326-18.561.128-24.226-1.448zm41.87-76.429c1.007-1.627-2.303-6.64-5.998-9.085-6.97-4.613-21.922-4.78-29.948-.337-4.121 2.282-8.104 7.603-7.013 9.368.798 1.292 42.163 1.344 42.96.054zm64.937 76.673c-4.442-2.337-8.186-6.166-10.123-10.35-1.588-3.428-1.77-6.55-1.775-30.55-.008-29.915.591-34.357 6.178-45.81 7.419-15.211 21.51-27.012 38.465-32.211 5.279-1.619 9.818-2.04 25.954-2.408 23.083-.526 27.515.168 33.434 5.235 11.588 9.919 9.58 26.754-4.025 33.753-3.132 1.61-5.716 1.822-22.324 1.822-20.555 0-24.153.61-29.48 5-6.832 5.633-7.183 7.28-7.208 33.865-.013 13.017-.414 25.354-.893 27.415-1.28 5.519-5.665 11.22-10.517 13.675-5.08 2.569-13.374 2.834-17.686.564zM375.421 42.775c-8.619-3.286-14.745-11.806-14.754-20.518-.02-20.487 24.51-29.979 38.184-14.775 9.17 10.194 6.4 25.985-5.89 33.58-3.974 2.456-13.221 3.36-17.54 1.713z" fill="#8e8e8e"/></svg>