<svg xmlns="http://www.w3.org/2000/svg" viewBox="0 0 964.627 299.857" height="1133.317" width="3645.834"><path d="M136.55 299.341c-20.657-1.887-43.338-9.123-61.6-19.654-20.107-11.593-37.778-28.234-50.345-47.41-5.867-8.954-14.602-25.74-14.602-28.062 0-.579-.642-2.295-1.427-3.812-1.807-3.495-3.928-11.192-6.423-23.312-2.708-13.152-2.893-38.757-.378-52.331 3.658-19.75 7.967-31.7 18.011-49.953 2.662-4.836 9.088-14.226 12.372-18.078 9.878-11.586 13.451-15.232 20.863-21.291 11.295-9.234 12.575-10.155 20.588-14.806 14.934-8.669 30.138-14.43 48.192-18.263 13.857-2.942 40.231-3.187 52.807-.492 10.76 2.306 24.993 6.33 26.118 7.384.497.465 1.568.848 2.379.85 2.22.006 22.943 10.64 29.754 15.269 24.971 16.968 44.285 41.048 56.054 69.884 5.997 14.695 10.299 37.547 10.299 54.71 0 8.249-2.154 26.429-4.114 34.729-9.45 40.017-36.562 75.58-73.392 96.268-24.747 13.901-57.273 20.918-85.157 18.37zm80.146-80.783c2.637-2.356 3.107-3.424 3.107-7.06 0-5.84-2.123-7.852-15.058-14.265-27.045-13.41-53.128-18.64-86.75-17.399-19.846.733-48.258 5.052-52.386 7.965-2.043 1.44-4.226 5.484-4.223 7.82.005 3.507 3.141 8.084 6.489 9.47 2.47 1.024 4.179.914 11.292-.726 22.153-5.108 53.441-6.428 73.557-3.103 20.064 3.316 36.996 9.268 51.47 18.092 4.632 2.824 8.745 2.563 12.502-.794zm16.242-38.958c7.79-5.135 8.016-14.68.485-20.424-4.467-3.406-25.157-13.161-35.477-16.726-34.763-12.008-77.696-15.244-113.252-8.537-23.695 4.47-29.02 7.441-29.02 16.195 0 5.349 1.852 8.813 5.803 10.857 3.68 1.903 6.713 1.74 17.604-.942 34.662-8.538 74.476-6.448 111.702 5.863 6.718 2.222 20.306 8.453 28.53 13.084 5.043 2.84 9.932 3.066 13.625.63zm21.52-47.5c1.35-1.005 3.26-3.764 4.246-6.132 3.684-8.848-.156-15.11-13.474-21.966-29.781-15.332-66.203-23.796-107.73-25.036-32.538-.972-68.767 3.246-83.859 9.763-12.109 5.228-10.577 23.596 2.257 27.052 2.964.798 5.43.546 13.36-1.364 22.189-5.344 31.863-6.41 58.252-6.422 29.294-.013 48.534 2.614 77.07 10.523 6.366 1.765 21.363 8.01 28.068 11.69 3.925 2.154 8.42 4.192 9.99 4.529 3.692.791 8.723-.331 11.82-2.638zm208.679 117.942c-.946-.6-1.145-14.793-.952-67.778l.244-67.019h24.739l.283 5.947c.16 3.359.72 5.947 1.287 5.947.553 0 3.084-1.87 5.627-4.156 12.812-11.52 30.662-13.23 48.464-4.641 6.962 3.359 16.933 13.415 20.385 20.56 8.673 17.95 8.387 41.664-.7 57.912-4.03 7.208-12.707 15.752-19.482 19.185-17.199 8.715-38.399 6.54-50.375-5.17-1.672-1.634-3.484-2.697-4.026-2.361-.632.39-.987 7.915-.987 20.908 0 17.633-.198 20.375-1.505 20.877-2.22.852-21.608.674-23.002-.211zm61.931-53.468c6.451-2.414 11.598-7.35 14.79-14.187 3.494-7.48 4-20.102 1.116-27.796-7.215-19.244-29.927-24.701-44.205-10.622-11.944 11.778-12.197 34.018-.523 46.006 7.705 7.912 18.628 10.413 28.822 6.599zm355.535 53.655c-3.507-.679-15.136-5.148-15.679-6.026-.856-1.384 7.69-19.55 9.109-19.362.735.098 3.05.828 5.143 1.624 2.093.795 5.89 1.465 8.437 1.488 4.137.037 5.026-.353 8.325-3.652 2.238-2.237 3.694-4.594 3.694-5.976 0-1.795-14.292-37.434-22.45-55.982a295.576 295.576 0 0 1-2.246-5.233l-3.316-8.088c-4.804-11.721-3.702-10.941-15.458-10.941h-10.288l-.248 40.184-.248 40.184-2.13.53c-1.173.29-7.055.405-13.073.253l-10.942-.276-.476-40.438-.476-40.437-6.184-.476-6.185-.476-.272-10.39c-.2-7.67.049-10.591.952-11.164.673-.427 3.685-.783 6.694-.791l5.471-.015v-6.56c0-13.014 6.119-24.974 15.102-29.519 6.393-3.234 16.34-4.374 26.142-2.996 12.636 1.777 12.039 1.11 12.039 13.449 0 11.216-.628 12.613-4.689 10.44-1.09-.584-4.656-1.29-7.924-1.569-10.016-.856-14.778 3.351-14.927 13.187-.033 2.23.393 3.582 1.136 3.605.654.02 9.539.018 19.743-.005 10.205-.023 18.995.282 19.534.677.54.395 2.203 3.93 3.697 7.855 1.494 3.924 3.238 8.42 3.876 9.99.637 1.57 2.117 5.424 3.288 8.563 3.273 8.777 4.86 12.937 6.713 17.603a669.058 669.058 0 0 1 3.142 8.087c5.387 14.225 7.076 18.022 7.827 17.603.765-.428 3.702-8.31 10.46-28.069 1.252-3.663 4.251-12.226 6.664-19.03 2.412-6.803 4.963-14.208 5.669-16.457 2.139-6.816 2.226-6.855 15.117-6.84 6.347.009 12.089.364 12.76.79 1.342.851.763 2.556-11.679 34.4-3.782 9.682-8.481 21.885-10.442 27.118-1.96 5.233-4.376 11.33-5.367 13.548-.99 2.218-1.801 4.452-1.801 4.963 0 .905-.571 2.33-4.68 11.688-1.09 2.48-1.982 4.835-1.984 5.233-.006 1.172-5.215 13.618-8.007 19.126-3.458 6.824-9.432 13.117-15.262 16.077-3.9 1.98-6.395 2.484-13.36 2.699-4.709.145-9.633.056-10.941-.197zm-254.044-28.544c-14.583-2.794-23.741-7.11-32.373-15.252-11-10.376-16.476-23.312-16.451-38.857.042-26.633 17.3-47.822 43.326-53.198 19.633-4.055 37.87 1.273 51.703 15.106 29.612 29.612 15.286 79.917-25.748 90.416-6.232 1.594-16.69 2.507-20.457 1.785zm19.03-25.778c11.74-5.552 18.824-20.406 16.187-33.941-3.523-18.082-18.769-28.501-36.337-24.834-7.56 1.577-15.435 8.274-19.02 16.172-3.132 6.902-3.149 20.814-.033 27.593 3.608 7.851 9.565 13.112 19.221 16.975 3.206 1.283 15.716.052 19.981-1.965zM391.544 220.69c-9.045-1.463-16.881-3.84-24.427-7.408-9.718-4.595-21.195-12.59-21.225-14.784-.022-1.623 12.754-16.976 14.771-17.75.727-.279 3.155.946 5.397 2.723 12.44 9.86 22.342 13.551 36.426 13.58 8.27.017 10.136-.291 14.27-2.359 6.672-3.337 9.328-7.57 8.809-14.041-.772-9.617-3.902-11.375-35.88-20.16-20.398-5.603-31.888-13.361-36.328-24.53-3.123-7.856-3.122-22.164.004-30.027 4.32-10.867 16.127-20.561 29.183-23.962 12.14-3.162 34.406-1.306 46.107 3.842 9.04 3.977 19.03 10.484 19.03 12.394 0 1.818-12.358 19.415-13.635 19.415-.53 0-1.64-.608-2.465-1.35-3.2-2.877-13.885-8.259-20.217-10.182-8.57-2.603-21.476-2.268-26.538.688-7.15 4.176-9.603 12.538-5.584 19.04 2.681 4.339 10.676 7.988 26.574 12.131 28.562 7.443 39.604 14.759 44.72 29.627 4.962 14.422-.146 32.903-11.734 42.455-5.21 4.294-13.742 8.13-21.78 9.79-6.684 1.38-19.59 1.82-25.478.868zm332.142-.804c-9.122-2.566-13.754-6.364-17.396-14.264-2.105-4.568-2.205-5.916-2.663-36.144l-.475-31.398-5.977-.285-5.976-.284.267-11.133.268-11.134 5.92-.282 5.922-.283.263-13.514.264-13.514 12.295-.267c9.197-.2 12.49.04 13.068.951.426.67.78 6.88.788 13.8l.015 12.58 13.083.264 13.082.265.268 11.153.268 11.153-13.113.265-13.112.265-.253 26.809-.253 26.809 2.314 2.686c2.12 2.463 2.854 2.686 8.815 2.675 3.577-.007 7.887-.59 9.578-1.298 5.37-2.245 5.964-1.327 5.964 9.22 0 7.766-.289 9.648-1.665 10.84-5.067 4.392-22.44 6.63-31.56 4.065zm45.303-1.063c-.364-.363-.661-23.702-.661-51.864v-51.203l2.14-.533c1.178-.293 6.851-.408 12.608-.256l10.466.277v103.711l-11.946.265c-6.57.146-12.243-.033-12.607-.397zM774.21 99.85c-1.738-.857-4.307-3.061-5.71-4.9-2.183-2.863-2.549-4.265-2.549-9.77 0-6.95 1.352-9.764 6.554-13.643 2.05-1.529 4.05-1.961 9.058-1.96 5.509.003 6.906.37 9.784 2.564 9.55 7.285 8.21 22.707-2.413 27.748-4.179 1.983-10.656 1.966-14.724-.04z" fill="#797979"/></svg>