<svg xmlns="http://www.w3.org/2000/svg" width="4291" height="601.816" viewBox="0 0 1135.327 159.231"><path d="M55.95 158.002c-1.472-1.089-1.632-5.622-1.851-52.667l-.24-51.476-26.691-.515C12.488 53.061.369 52.74.238 52.63.108 52.52 0 40.633 0 26.215V0h159.107l.56 3.098c.306 1.704.433 13.608.28 26.453l-.277 23.355-26.214.515c-14.418.283-26.322.605-26.453.715-.131.11-.238 23.374-.238 51.699v51.5l-2.446.929c-3.78 1.437-46.385 1.207-48.37-.262zm105.798 0c-1.499-1.1-1.604-5.092-1.374-52.19l.25-51 26.452-.253 26.453-.254.015 25.038c.008 13.771.368 25.596.8 26.278.63.994 10.872 1.226 51.575 1.169 36.88-.052 51.148.228 52.104 1.022 1.059.878 1.318 5.92 1.318 25.658 0 21.522-.187 24.638-1.508 25.145-.83.318-35.923.579-77.985.579-59.68 0-76.833-.262-78.1-1.192zm241.24-25.576c-1.538-.896-1.668-3.585-1.668-34.731 0-32.402-.074-33.8-1.843-34.747-1.015-.542-6.76-.986-12.767-.986-9.081 0-11.021-.255-11.502-1.508-1.071-2.792-.63-17.126.565-18.32 1.643-1.642 74.237-1.642 75.88 0 1.61 1.61 1.516 16.093-.119 18.33-1.087 1.486-2.588 1.705-10.806 1.576-5.25-.083-10.687.284-12.083.815l-2.54.966v33.83c0 32.472-.074 33.87-1.844 34.818-2.368 1.267-19.08 1.234-21.272-.043zm66.428-1.237c-7.117-3.314-11.403-7.57-14.828-14.719-2.722-5.684-3.097-7.505-3.488-16.936-.385-9.283-.192-11.123 1.582-15.135 1.112-2.512 2.02-4.99 2.02-5.506 0-1.992 7.919-10.263 12.193-12.736 4.154-2.403 5.32-2.604 15.59-2.681 9.312-.071 11.397.184 12.944 1.584 1.014.917 2.288 1.668 2.831 1.668 1.998 0 6.878 5.393 9.623 10.636 2.11 4.03 3.138 7.856 4.067 15.14 1.174 9.216 1.145 9.819-.54 11.05-1.362.996-6.127 1.304-20.19 1.304h-18.405v2.446c0 3.884 1.504 5.726 6.396 7.829 4.989 2.144 8.614 1.894 17.798-1.227 5.426-1.845 5.413-1.853 10.009 6.361l3.02 5.4-2.645 1.816c-5.987 4.11-13.316 5.973-23.462 5.963-8.165-.008-10.445-.362-14.515-2.257zm22.274-43.575c.196-1.683-.609-3.427-2.527-5.481-2.336-2.501-3.529-3.013-7.02-3.013-3.363 0-4.718.536-6.767 2.674-2.58 2.694-3.057 4.457-1.97 7.292.497 1.294 1.993 1.498 9.295 1.27 8.572-.27 8.706-.31 8.989-2.742zm51.77 43.287c-5.002-2.419-12.497-9.057-12.497-11.069 0-.55-.575-1.679-1.278-2.507-1.55-1.823-4.457-14.959-4.401-19.882.053-4.717 3.067-17.045 4.523-18.5.636-.637 1.156-1.681 1.156-2.321 0-1.445 8.345-9.894 9.771-9.894.573 0 1.866-.747 2.874-1.659 1.53-1.385 3.76-1.66 13.49-1.668 11.17-.01 11.825.102 15.679 2.652 4.102 2.714 11.568 9.888 11.568 11.116 0 .755-13.926 11.484-14.906 11.484-.341 0-2.002-1.6-3.692-3.553-2.61-3.02-3.655-3.553-6.958-3.553-5.588 0-8.11 2.731-9.643 10.444-1.707 8.59.026 17.697 4.005 21.045 4.171 3.51 8.684 2.821 14.55-2.22 1.984-1.704 3.924-3.098 4.312-3.098 1.254 0 12.332 9.797 12.332 10.907 0 1.488-9.265 10.286-13.458 12.78-2.92 1.736-4.892 2.045-12.869 2.016-8.158-.03-10.108-.368-14.558-2.52zm58.15 1.253c-.776-.936-1.01-13.14-.83-43.507.213-36.396.444-42.305 1.677-42.92.787-.393 2.932-1.36 4.767-2.15 1.835-.79 5.556-2.398 8.269-3.572 7.817-3.381 7.936-3.19 7.936 12.87 0 13.582.04 13.853 2.07 13.853 1.138 0 2.899-.75 3.913-1.668 1.505-1.362 3.65-1.669 11.69-1.669 9.636 0 9.91.062 12.856 2.86 8.196 7.79 9.387 13.21 9.458 43.067.042 17.994-.173 21.365-1.448 22.64-1.89 1.889-19.363 2.18-21.19.354-.825-.825-1.144-7.39-1.144-23.532 0-21.674-.066-22.458-2.072-24.594-3.068-3.265-9.475-3.104-12.157.306-1.87 2.376-1.976 3.697-1.976 24.594 0 15.904-.32 22.402-1.144 23.226-1.687 1.687-19.255 1.553-20.674-.158zm108.565.664c-12.638-4.302-19.979-10.24-24.822-20.077-12.183-24.748-4.613-58.006 15.585-68.479 4.508-2.337 15.779-5.145 20.676-5.15 6.185-.008 18.078 3.137 22.558 5.965 5.701 3.6 13.666 14.485 13.666 18.678 0 2.03-.845 2.549-11.443 7.027-1.837.776-4.722 1.714-6.41 2.085-2.888.634-3.243.404-5.938-3.846-3.716-5.86-7.04-8-12.433-8.003-5.639-.004-9.515 2.465-12.916 8.224-2.634 4.462-2.737 5.098-2.742 17.028-.005 11.62.153 12.689 2.547 17.158 3.635 6.79 6.389 8.46 13.941 8.46h6.194l5.008-5.51c4.56-5.018 5.268-5.453 7.916-4.872 1.6.352 3.133 1.001 3.406 1.445.274.443 3.282 2.161 6.684 3.819 7.378 3.594 7.65 4.756 2.67 11.425-5.28 7.075-11.354 11.087-21.739 14.361-2.944.928-19.87 1.126-22.408.262zm136.702-2.46c-3.088-2.082-5.391-4.654-7.02-7.837-2.374-4.645-2.432-5.246-2.899-30.413-.308-16.596-.135-26.14.49-26.992.742-1.013 3.385-1.254 11.438-1.044l10.474.273.476 23.018c.549 26.488.712 27.028 8.166 27.028 3.36 0 4.481-.504 6.525-2.933l2.468-2.933V63.868h10.295c6.736 0 10.69.396 11.44 1.144 1.494 1.495 1.64 62.872.156 65.647-.88 1.644-2.076 1.843-11.048 1.843-8.838 0-10.253-.228-11.644-1.877-1.568-1.861-1.624-1.857-6.349.468-3.705 1.823-6.28 2.347-11.57 2.354-6.104.008-7.274-.31-11.398-3.09zm169.958 1.721c-14.88-5.308-22.758-22.02-19.617-41.62 1.875-11.702 5.949-18.25 14.636-23.528 5.63-3.42 5.838-3.465 16.21-3.502 9.693-.035 10.84.159 14.797 2.493 5.287 3.118 11.453 9.182 11.4 11.212-.031 1.206-10.574 10.064-13.512 11.354-.391.171-2.214-1.33-4.052-3.337-2.948-3.217-3.861-3.648-7.735-3.648-5.965 0-8.532 3.141-9.431 11.54-1.521 14.206 2.091 22.3 9.952 22.3 3.211 0 4.608-.663 8.025-3.812 2.275-2.097 4.359-3.813 4.63-3.813.933 0 11.662 8.673 12.433 10.05 1.158 2.068-7.14 10.425-13.198 13.291-4.182 1.979-6.45 2.39-12.99 2.355-4.358-.023-9.554-.624-11.548-1.335zm-241.405-.774c-.252-.659-.346-15.994-.208-34.079l.251-32.881 9.533-.298c7.65-.24 10.154.03 12.68 1.368 2.997 1.587 3.281 1.586 5.988-.013 3.804-2.247 12.095-3.021 16.563-1.547 3.35 1.106 3.532 1.365 2.94 4.17-.347 1.646-.999 5.137-1.449 7.759-.968 5.64-2.386 9.59-3.744 10.429-.538.333-2.692-.269-4.787-1.337-4.592-2.343-5.97-2.4-10.157-.412-4.542 2.155-5.154 5.327-5.16 26.75-.003 10.05-.266 18.951-.584 19.78-.479 1.248-2.376 1.508-10.992 1.508-7.48 0-10.544-.337-10.874-1.197zm142.989 0c-.253-.659-.347-15.994-.209-34.079l.251-32.881 9.533-.298c7.664-.24 10.152.03 12.693 1.375 3.04 1.61 3.29 1.603 6.6-.179 5.146-2.769 18.514-2.63 23.14.239 4.221 2.617 6.82 6.139 9.01 12.208 1.414 3.917 1.802 8.797 2.177 27.384.251 12.44.185 23.7-.147 25.023-.599 2.386-.688 2.405-10.88 2.405-6.723 0-10.673-.395-11.422-1.143-.818-.82-1.144-6.982-1.145-21.687 0-17.648-.236-21.013-1.668-23.879-1.602-3.207-1.87-3.336-6.91-3.336-5.039 0-5.308.13-6.91 3.336-1.428 2.86-1.666 6.214-1.668 23.515 0 11.098-.261 20.857-.58 21.687-.478 1.247-2.375 1.507-10.992 1.507-7.479 0-10.543-.337-10.873-1.197zm153.029-1.215c-1.016-2.671-1.355-76.314-.374-81.217.478-2.392 1.42-3.177 5.958-4.958 2.964-1.163 7.383-2.993 9.82-4.067 2.435-1.073 4.902-1.66 5.48-1.302.686.424 1.052 5.289 1.052 13.97 0 14.888.458 15.867 6.082 12.991 4.176-2.135 10.179-2.883 16.885-2.105 5.192.602 6.169 1.095 10.244 5.17 3.932 3.932 4.666 5.314 5.769 10.863.695 3.497 1.646 6.358 2.113 6.358.473 0 .85 9.779.85 22.058 0 19.89-.164 22.183-1.668 23.325-1.138.864-4.892 1.275-11.814 1.296-8.39.025-10.245-.23-10.724-1.477-.318-.83-.579-11.144-.579-22.922V86.66l-2.34-2.34c-2.337-2.338-8.298-3.25-10.529-1.61-3.58 2.63-3.807 4.046-4.29 26.82l-.476 22.496-10.259.27-10.258.271zM214.482 26.69V0h104.859v53.382H214.482z" fill="#797979"/></svg>