<svg xmlns="http://www.w3.org/2000/svg" viewBox="0 0 970.372 206.138" height="779.104" width="3667.548"><path d="M.844 205.915c-.004-.115-.02-21.89-.034-48.389l-.027-48.18 48.633-.216 48.633-.216v97.211H49.45c-26.73 0-48.602-.095-48.606-.21zm108.3-48.592l.216-48.815 48.79-.216 48.791-.216.459 1.892c.252 1.04.355 23.007.227 48.815l-.232 46.923-49.233.216-49.234.216zm382.302 8.106c-15.663-4.842-24.279-13.207-29.717-28.85-1.446-4.161-2.047-18.08-.995-23.043.488-2.304 1.218-5.717 1.622-7.584 2.152-9.95 11.72-20.83 23.206-26.39 7.099-3.436 7.49-3.522 17.882-3.929 10.66-.417 18.303.425 22.624 2.493 2.205 1.055 2.25 1.239 2.484 10.073.13 4.949-.012 8.998-.316 8.998-.305 0-3.043-1.226-6.085-2.723-5.125-2.524-6.147-2.724-13.928-2.724-7.211 0-8.954.284-12.33 2.01-11.233 5.742-17.286 19.356-14.874 33.455 1.1 6.433 1.382 7.179 4.867 12.87 3.467 5.662 13.742 10.709 21.843 10.729 3.862.009 11.84-2.46 16.616-5.142 1.52-.854 3.142-1.552 3.605-1.552.524 0 .751 3.23.603 8.568l-.24 8.57-6.283 2.46c-5.471 2.141-7.587 2.495-16.34 2.733-7.354.2-11.18-.075-14.244-1.022zm137.836-.27c-13.712-3.736-23.893-13.485-28.973-27.743-2.02-5.667-2.476-20.046-.875-27.563 1.999-9.388 6.325-17.508 12.247-22.991 9.83-9.101 19.446-11.993 37.35-11.233 9.31.396 10.614.661 16.414 3.34 11.653 5.385 19.48 15.855 22.104 29.573 6.307 32.965-13.275 58.35-44.858 58.15-4.858-.03-10.087-.628-13.41-1.534zm27.187-18.036c2.03-1.19 4.459-3.139 5.396-4.33 6.599-8.389 7.91-29.109 2.493-39.38-3.892-7.38-9.386-11.02-17.821-11.808-7.874-.735-13.05.798-18.138 5.372-5.474 4.922-7.373 8.793-8.52 17.371-1.053 7.865.016 18.688 2.276 23.06 2.088 4.037 6.296 8.357 9.962 10.227 6.925 3.533 17.841 3.303 24.352-.512zm53.67 18.055c-3.225-.854-6.902-1.973-8.169-2.487l-2.304-.934v-9.238c0-5.08.29-9.237.643-9.237.354 0 1.957.872 3.561 1.94 5.465 3.632 12.563 5.601 20.181 5.598 8.101-.003 11.505-1.478 13.274-5.75 1.292-3.12.597-7.743-1.436-9.55-2.232-1.985-11.698-6.944-18.117-9.491-8.031-3.188-14.676-9.743-16.796-16.568-3.88-12.494 2.165-24.844 15.324-31.307 4.581-2.25 5.147-2.322 17.72-2.249 10.212.06 13.659.375 16.13 1.478l3.142 1.402v8.787c0 4.833-.141 8.787-.314 8.787-.172 0-1.963-.915-3.98-2.033-7.945-4.405-21.09-4.793-25.88-.764-2.188 1.842-2.504 2.657-2.504 6.455 0 2.392.528 5.092 1.173 6 1.26 1.776 2.06 2.216 15.807 8.724 14.867 7.036 20.179 13.542 20.226 24.77.048 11.419-6.598 20.164-18.855 24.81-6.621 2.51-20.967 2.936-28.825.857zm89.226-.01c-8.69-2.346-16.036-6.938-21.363-13.356-7.525-9.066-10.24-19.075-9.35-34.47 1.068-18.454 8.45-30.224 23.714-37.806l7.43-3.69 13.825-.007c17.601-.01 22.902 1.656 31.706 9.966 9.07 8.56 13.173 19.519 13.053 34.854-.18 22.919-12.01 39.167-32.423 44.526-7.591 1.993-19.179 1.986-26.592-.016zm24.129-16.48c9.875-4.115 15.244-16.073 14.124-31.463-1.27-17.453-11.126-27.024-26.363-25.602-7.423.694-12.122 3.162-15.981 8.395-4.977 6.747-5.533 8.862-5.533 21.06 0 9.595.23 11.391 1.928 15.082 4.269 9.275 11.542 13.804 22.189 13.817 4.005.005 7.722-.492 9.636-1.29zM943.976 165.1c-4.797-1.928-9.904-6.566-12.49-11.344-1.743-3.22-1.825-4.48-2.083-32.05l-.268-28.698h-32.543l-.219 35.82-.218 35.82h-19.272l-.419-35.61-.419-35.611-7.122-.42-7.122-.418V77.506l7.122-.419 7.122-.418.51-10.526c.627-12.909 2.778-18.647 9.262-24.713 6.312-5.904 10.33-7.365 21.333-7.756 12.91-.46 12.885-.477 12.885 9.597 0 7.31-.13 7.967-1.466 7.42-.806-.332-3.917-.773-6.913-.981-7.095-.493-10.572 1.198-13.219 6.43-1.669 3.3-1.878 4.817-1.675 12.15l.231 8.379h31.84l.236-9.755c.27-11.211-1.095-9.613 11.763-13.768 4.139-1.337 7.278-1.945 7.727-1.497.415.416.86 6.215.988 12.888l.234 12.131 10.296.236 10.295.236-.24 7.724-.241 7.725-10.265.235-10.264.235v24.902c0 23.28.11 25.078 1.65 27.603 2.87 4.708 9.55 6.444 15.395 4.002 1.654-.69 3.209-1.256 3.454-1.256.245 0 .446 3.388.446 7.53v7.53l-3.142 1.39c-5.02 2.22-18.038 2.412-23.192.34zm-672.9-.503c-.633-.277-.927-84.348-.427-122.073.004-.346 6.372-.629 14.15-.629 10.364 0 14.377.283 15.02 1.058.483.582 1.695 3.315 2.694 6.075.999 2.76 3.45 8.976 5.448 13.815 1.998 4.839 6.162 15.208 9.254 23.042 3.091 7.835 6.457 16.13 7.48 18.434 1.023 2.305 2.338 5.698 2.923 7.542.585 1.843 1.945 5.311 3.023 7.707 1.646 3.66 2.891 7.212 5.007 14.288.459 1.533 2.022 1.277 2.558-.42.255-.806.972-2.785 1.593-4.398a1389.69 1389.69 0 0 0 3.783-10.055c1.46-3.917 3.396-8.76 4.303-10.763.908-2.003 2.769-6.528 4.136-10.055 1.366-3.528 2.849-7.069 3.294-7.87.445-.8.809-1.816.809-2.259 0-.443 1.283-3.559 2.85-6.924 1.568-3.366 5.008-11.587 7.644-18.269 5.309-13.456 6.926-17.404 7.892-19.272.537-1.04 3.023-1.257 14.384-1.257h13.734V164.65h-19.272l-.171-46.504c-.146-39.798-.346-46.54-1.383-46.759-.834-.175-1.795 1.523-3.083 5.447-1.029 3.135-2.13 6.078-2.448 6.539-.318.46-2.005 4.42-3.75 8.798a1404.996 1404.996 0 0 1-6.851 16.791c-2.025 4.858-3.68 9.09-3.68 9.404 0 .315-.9 2.562-2 4.994-1.099 2.432-3.143 7.25-4.542 10.706-4.431 10.944-8.682 21.28-9.82 23.88-.606 1.383-1.345 3.362-1.643 4.398-.66 2.296-2.792 2.898-9.08 2.562l-4.809-.256-2.961-6.704c-1.629-3.686-4.395-10.285-6.148-14.663-1.753-4.378-4.556-11.038-6.23-14.799-1.673-3.761-3.042-7.254-3.042-7.762s-.343-1.578-.762-2.378c-1.934-3.694-6.222-13.535-7.367-16.906-.697-2.055-2.21-5.829-3.36-8.387-3.034-6.747-6.136-14.567-8.077-20.362-.27-.806-1.066-1.466-1.767-1.466-1.125 0-1.302 5.53-1.493 46.713l-.217 46.714-8.379.157c-4.608.087-8.756-.008-9.217-.21zm154.804-.07c-.82-.342-1.048-9.929-1.048-43.938V77.087h20.125l-.217 43.781-.217 43.78-8.798.158c-4.839.086-9.27-.04-9.845-.28zm120.17-.018c-.308-.307-.559-20.115-.559-44.017V77.034l9.845.236 9.846.236.248 5.656c.3 6.855 1.293 7.198 5.176 1.791 5.078-7.071 13.377-10.547 21.792-9.125l3.367.569v9.66c0 9.64-.004 9.659-1.885 9.05-1.037-.336-4.559-.795-7.827-1.021-6.964-.48-11.437 1.271-14.875 5.827-5.018 6.65-5.088 7.125-5.399 36.65-.208 19.803-.556 27.387-1.28 27.847-1.228.781-17.68.87-18.45.1zM.216 49.227L.432.419h98.036l.216 48.808.216 48.808H0zM109.5 97.477c-.798-.799-.669-95.168.132-96.43C110.152.23 120.878 0 158.637 0h48.34v98.035h-48.46c-26.652 0-48.71-.251-49.017-.558zm321.198-35.698c-4.978-2.697-6.507-4.181-7.545-7.326-1.681-5.094.076-9.595 4.953-12.689 4.837-3.067 8.687-3.102 13.284-.122 7.326 4.75 7.395 13.52.149 18.822-2.824 2.066-8.242 2.723-10.841 1.315z" fill="#797979"/></svg>